<svg version="1.2" xmlns="http://www.w3.org/2000/svg" viewBox="0 0 1811 457" width="1811" height="457"><defs><clipPath clipPathUnits="userSpaceOnUse" id="cp1"><path d="m-175-314h2160v2160h-2160z"/></clipPath><linearGradient id="P" gradientUnits="userSpaceOnUse"/><linearGradient id="g1" x2="1" href="#P" gradientTransform="matrix(105.582,0,0,148.415,.735,312.294)"><stop stop-color="#a27e52"/><stop offset=".05" stop-color="#a27e52"/><stop offset=".52" stop-color="#dfc49f"/><stop offset="1" stop-color="#be9762"/></linearGradient><linearGradient id="g2" x2="1" href="#P" gradientTransform="matrix(127.396,0,0,153.384,145.47,189.393)"><stop stop-color="#a27e52"/><stop offset=".05" stop-color="#a27e52"/><stop offset=".52" stop-color="#dfc49f"/><stop offset="1" stop-color="#be9762"/></linearGradient></defs><style>.a{fill:url(#g1)}.b{fill:url(#g2)}.c{fill:#2e394b}</style><g clip-path="url(#cp1)"><path class="a" d="m10.5 238.5l-9.3 0.2q-0.5 6.9-0.5 14 0 62.5 34.5 99c17.9 19.1 41.6 30.7 71.1 34.8v-18.2q-24.2-7.7-39.6-27.9-24.8-32.6-24.8-93.9 0-4.3 0.1-8.4c-10.2 0-20.9 0.1-31.5 0.4z"/><path class="b" d="m145.5 121.6c1.3 2.1 2.6 4.3 3.9 6.4 25.6 2.8 45 13.2 58.4 31.1 12.3 16.4 19.8 38.2 22.6 65.5 7 2.5 13.3 5.7 18.8 9.7 11.1 8.1 18.8 18.9 22.5 31.8 0.8-7.1 1.2-14.4 1.2-22q0-61.4-34.5-96.8c-19.6-20.1-46-31.6-79.4-34.6q-6.1 4.9-13.5 8.9z"/><path fill-rule="evenodd" class="c" d="m199.6 220.2c-7.4 0.9-13.7 1.4-18.8 1.4q-6.3 0-11.2-0.4-4.8-0.2-8.6-1.2-1.8-0.5-3.5-1c-1.2-0.5-2.3-0.9-3.3-1.4q-3.1-1.5-6.1-3.8c-4.3-3.2-8.5-7.8-12.7-13.9q-6.2-9.1-12.9-20.6-6.7-11.5-13.9-24.5l-2.9-5q-4.8-8.4-10-16.6c-0.8-1.3-1.6-2.6-2.4-3.8-1.6-2.5-3-4.4-4.1-5.9-1.1-1.5-2.2-2.6-3.5-3.4 0 0-0.1 0-0.1 0q-1.9-1.2-4.6-1.8-2.5-0.4-6.6-0.5l-10.9-0.4v54c0 6.2 0 11.8 0.1 16.8 0 4.9 0.1 9.4 0.2 13.5 0.1 1.2 0.2 2.2 0.6 3.1q1.1 2.1 3.4 2.9l17.3 5.2 0.4 5.6 0.1 1c-1.3 0-2.6 0-3.8 0q-9.8-0.3-19.5-0.3c-4.6-0.1-9.1-0.1-13.7-0.1q-2.7 0-5.4 0c-10.8 0-21.9 0.2-33.2 0.4l-0.6-6.6 19.1-5.8c2.6-0.7 4-2.3 4.2-4.8q0.2-6.2 0.2-13.9c0.1-5.1 0.1-10.8 0.1-17v-126.1c0-5.2 0-10-0.1-14.3q0-6.4-0.2-11.5c-0.1-2.7-1.3-4.4-3.7-5.3l-19.3-6-0.3-6.7q20.1 0.6 39.2 0.6c2.5 0 5.7-0.1 9.6-0.2 3.8-0.2 8.6-0.4 14.1-0.5 5.6-0.3 10.4-0.4 14.1-0.6 3.8 0 6.8-0.1 9-0.1 23.9 0 41.8 4.5 53.7 13.4 11.9 8.9 17.9 21.9 17.9 39q0 23.2-12.3 37.5c-0.7 0.9-1.5 1.8-2.4 2.6-8.1 8.4-19.8 14.9-35.1 19.6 0.1 0.1 0.1 0.2 0.3 0.3q4.8 7.2 9.1 14.2c3.1 4.8 6.1 9.6 8.9 14.3q1.3 2.3 2.7 4.5 6.8 11.3 12.8 21c4.8 7.7 9.1 14.5 13.1 20.4q6 8.9 11.1 14c1.8 1.8 3.6 3.3 5.3 4.6q2.7 1.9 5.5 3.2 2.9 1.3 6.1 2.1c2.1 0.7 4.5 1.3 7.1 1.9l0.3 5.2zm-79.1-125.3q0.6-0.6 1.1-1.2 11.4-11.5 11.4-34.6c0-15.8-4-27.3-12-34.6q-12-10.8-37.4-10.8-4.4 0-9.4 0.3c-3.3 0.2-6.9 0.5-10.7 0.9v90.9q2.9 0.2 5.8 0.3 6.2 0.2 11.8 0.2c17.9 0 31-3.8 39.4-11.4zm143.7 296.5q0 31.1-22.6 48.1-22.6 17-62.7 17c-5.3 0-11-0.1-17.2-0.5-6.2-0.3-13.1-0.4-20.8-0.4q-18.9 0-38.6 0.4l-0.6-6.6 19.1-5.8c2.6-0.7 4-2.3 4.2-4.8q0.1-6.2 0.2-13.9 0.1-7.7 0.1-17v-126.1q0-7.9-0.1-14.3-0.1-6.3-0.2-11.5-0.2-4-3.8-5.2l-19.2-6.1-0.3-5.7v-1q2.1 0.1 4.2 0.1 17.8 0.5 35 0.5 5-0.2 14.1-0.5h0.1c2.8-0.1 5.9-0.3 9.4-0.4q16.3-0.6 21.9-0.6 11.1 0 20.5 1.3 2.9 0.4 5.6 1 11 2.2 19.2 6.4v0.1c2.2 1.1 4.4 2.4 6.3 3.8q17.5 12.7 17.5 36.5 0 38.2-41.2 52 13.8 2.4 24 7.9 7.5 4.1 13 10c0.6 0.7 1.2 1.3 1.8 2 7.4 8.9 11.1 20 11.1 33.3zm-89.3-141.3c-2.6 0-5.6 0.1-8.8 0.3-3.2 0.1-6.7 0.4-10.3 0.8v83.8q9.5 0.1 19.4 0.1 10.2 0 18.2-2.2c6.6-1.8 12.1-4.7 16.4-8.9q11.7-11.1 11.7-32.2 0-19.2-9-29.1c-0.9-1.1-2-2-3-2.9-8-6.4-19.5-9.7-34.6-9.7zm55.3 144.6q0-8-1.5-14.6c-1.5-6.9-4.2-12.8-8.2-17.5q-1.7-2.1-3.9-3.9-5.5-4.8-14-7.7-11-3.7-26.8-4-1.4 0-2.9 0-8.8 0-17.1 0.4v94.3c3 1.2 6.6 1.9 10.7 2.2 4.1 0.3 7.8 0.5 11.2 0.5 17.1 0 30.2-4.3 39.1-12.7q13.4-12.8 13.4-37zm171.5 14.3c0 15.3-8.2 29.2-25.4 29.2-15.7 0-24.9-12.7-24.9-28.8 0-15.8 8.8-28.7 25.4-28.7 15.4 0 24.9 12 24.9 28.3zm-45.7 0.2c0 12.8 7.1 25 20.5 25 14.5 0 20.5-11.8 20.5-25.1 0-13-6.8-24.4-20.3-24.4-14.4 0-20.7 11.9-20.7 24.5zm58-27.7h19.9c10.2 0 17.3 5.7 17.3 15.6 0 10-7 15.9-17.8 15.9h-15v24.4h-4.4zm4.4 27.5h15.4c9 0 12.7-4.8 12.7-11.8 0-7.5-4.9-11.7-12.4-11.7h-15.7zm76.9 0.8h-28.5v23.5h31.2l-0.6 4h-34.9v-55.9h34.3v4h-30v20.5h28.5zm18.1 1.3v26.1h-4.4v-55.9h20.1c11 0 16.8 5.9 16.8 14.7 0 7.1-4.2 11.8-10.4 13.1 5.7 1.4 9.6 5.1 9.6 14.6v2.2c0 3.9-0.4 9.2 0.7 11.3h-4.4c-1.1-2.4-0.8-6.8-0.8-11.6v-1.5c0-9.2-2.7-13-13.4-13zm0-4h13.5c9.8 0 14.3-3.7 14.3-11 0-6.9-4.4-10.8-13.1-10.8h-14.7zm52.5 10.8l-7.1 19.3h-4.4l20.5-55.9h5.1l21.4 55.9h-4.7l-7.3-19.3zm22.2-4c-6.3-16.6-9.5-24.6-10.6-28.3h-0.1c-1.3 4.2-4.9 14.1-9.9 28.3zm42.7 27.7c2.9 0.3 8.3 1.9 8.3 7.4 0 5.9-5.1 7.4-8.9 7.4-2.9 0-4.7-0.6-5.7-1.1v-3.9c1.5 0.8 4.2 1.2 5.7 1.2 3.1 0 4.8-1.2 4.8-3.3 0-3.5-4.5-4.3-9.2-4.3v-1.8l3.8-5.4c-14.7-1-22.5-13.4-22.5-28.4 0-15.1 8.3-28.9 24.6-28.9 12.1 0 19.2 6.7 21 16.1h-4.3c-2.5-7.3-7.2-12.1-16.9-12.1-13.9 0-19.7 12.7-19.7 24.8 0 12 5.7 24.6 20 24.6 9.1 0 13.7-4.7 16.5-11.6h4.4c-2.5 8.4-8.5 14.8-19.1 15.5zm39.1-23.7l-7.1 19.3h-4.4l20.6-55.9h5.1l21.4 55.9h-4.7l-7.3-19.3zm-1.7-42.4v-1c0-5.3 2.5-7.3 6.2-7.3 4.8 0 10.2 4.5 13.5 4.5 1.7 0 2.8-0.8 2.8-3.9v-1h3.3v1.4c0 5.4-2.2 7.3-6.1 7.3-4.7 0-9.7-4.7-13.5-4.7-1.6 0-2.6 0.9-2.6 3.3v1.4zm23.8 38.4c-6.2-16.6-9.4-24.6-10.5-28.4h-0.1c-1.4 4.3-5 14.2-10 28.4zm69.4-5c0 15.2-8.2 29.1-25.4 29.1-15.7 0-24.9-12.7-24.9-28.7 0-15.8 8.8-28.8 25.5-28.8 15.3 0 24.8 12.1 24.8 28.4zm-45.7 0.1c0 12.9 7.1 25 20.5 25 14.5 0 20.6-11.8 20.6-25.1 0-13-6.9-24.4-20.4-24.4-14.4 0-20.7 11.9-20.7 24.5zm111.5 0.7h-28.5v23.5h31.3l-0.7 4h-34.9v-55.9h34.3v4h-30v20.4h28.5zm14.6 12.5c1.7 7.4 6.7 11.8 15.9 11.8 10.2 0 14.1-5.1 14.1-11.2 0-6.3-2.8-10.2-15.1-13.2-11.8-3-16.9-6.8-16.9-14.9 0-7.3 5.3-14.2 17.3-14.2 12.3 0 17.5 7.5 18.2 14.3h-4.5c-1.2-6-5.2-10.3-13.9-10.3-8.1 0-12.5 3.8-12.5 10 0 6.1 3.7 8.5 14 11.1 15.7 3.9 18 10.2 18 16.9 0 8.2-6 15.4-18.9 15.4-14 0-19.1-8.2-20.1-15.7zm57.9-36.9h-18.8v-4h42v4h-18.9v51.9h-4.3zm35.9 25.8v26.1h-4.4v-55.9h20c11 0 16.9 5.9 16.9 14.7 0 7.1-4.3 11.8-10.5 13.1 5.8 1.4 9.6 5.1 9.6 14.6v2.2c0 3.9-0.3 9.2 0.7 11.3h-4.4c-1-2.4-0.8-6.9-0.8-11.6v-1.5c0-9.2-2.7-13-13.4-13zm0-4h13.5c9.8 0 14.4-3.7 14.4-11 0-6.9-4.5-10.8-13.2-10.8h-14.7zm49.7-25.8v33.9c0 14.8 8.4 18.7 16.3 18.7 9.3 0 16.2-4 16.2-18.7v-33.9h4.4v33.6c0 17.5-9.2 23-20.8 23-11 0-20.6-6-20.6-22.2v-34.4zm64.3 4h-18.7v-4h42v4h-18.9v51.9h-4.4zm36.7-4v33.9c0 14.8 8.4 18.7 16.3 18.7 9.3 0 16.3-4 16.3-18.7v-33.9h4.4v33.6c0 17.5-9.3 23-20.9 23-11 0-20.6-6-20.6-22.2v-34.4zm57 29.8v26.1h-4.4v-55.9h20.1c11 0 16.8 5.9 16.8 14.7 0 7.1-4.2 11.8-10.5 13.1 5.8 1.4 9.6 5.1 9.6 14.6v2.2c0 3.9-0.3 9.2 0.7 11.3h-4.3c-1.1-2.4-0.8-6.9-0.8-11.6v-1.5c0-9.2-2.8-13-13.5-13zm0-4h13.5c9.9 0 14.4-3.7 14.4-11 0-6.9-4.5-10.8-13.2-10.8h-14.7zm52.6 10.8l-7.1 19.3h-4.4l20.5-55.9h5.1l21.4 55.9h-4.7l-7.3-19.3zm22.1-4c-6.2-16.6-9.4-24.6-10.5-28.3h-0.1c-1.3 4.2-4.9 14.1-10 28.3zm23.4-32.6h18.5c15.3 0 25.9 10.7 25.9 27.5 0 16.7-10.4 28.4-26 28.4h-18.4zm4.3 51.9h13.5c14.7 0 22-10.4 22-24.2 0-12.3-6.6-23.7-22-23.7h-13.5zm57.6-15.3l-7.1 19.3h-4.4l20.5-55.9h5.1l21.4 55.9h-4.7l-7.2-19.3zm22.1-4c-6.3-16.6-9.4-24.6-10.6-28.4-1.4 4.3-5 14.2-10 28.4zm44-32.6h18.6c15.3 0 25.9 10.7 25.9 27.5 0 16.7-10.4 28.4-26 28.4h-18.5zm4.4 51.9h13.4c14.8 0 22.1-10.4 22.1-24.2 0-12.3-6.6-23.7-22.1-23.7h-13.4zm85.2-23.5h-28.5v23.5h31.2l-0.6 4h-34.9v-55.9h34.3v4h-30v20.4h28.5zm76.7 12.6c-2.7 8.8-9.2 15.5-21 15.5-16.1 0-24.6-12.8-24.6-28.5 0-15.1 8.3-28.8 24.6-28.8 12.1 0 19.2 6.7 21 16h-4.3c-2.5-7.2-7.2-12-16.9-12-13.9 0-19.7 12.7-19.7 24.7 0 12 5.7 24.6 20 24.6 9.1 0 13.7-4.7 16.5-11.5zm16.5-11.2v26.1h-4.4v-55.9h20c11.1 0 16.9 5.9 16.9 14.7 0 7.1-4.2 11.7-10.5 13.1 5.8 1.3 9.6 5.1 9.6 14.6v2.1c0 4-0.3 9.2 0.7 11.4h-4.4c-1-2.4-0.8-6.9-0.8-11.7v-1.4c0-9.2-2.7-13-13.4-13zm0-4h13.5c9.8 0 14.4-3.7 14.4-11 0-6.9-4.5-10.8-13.2-10.8h-14.7zm78.1-42.9l-13.4 10.9h-5l12.3-10.9zm0.9 45.5h-28.5v23.5h31.2l-0.6 4h-34.9v-55.9h34.2v4h-29.9v20.4h28.5zm13.7-28.4h18.6c15.3 0 25.9 10.7 25.9 27.5 0 16.7-10.4 28.4-26 28.4h-18.5zm4.3 51.9h13.5c14.8 0 22.1-10.4 22.1-24.2 0-12.3-6.6-23.7-22.1-23.7h-13.5zm56.8 4h-4.3v-55.9h4.3zm27.6-51.9h-18.7v-4h42v4h-18.9v51.9h-4.4zm77 23.5c0 15.3-8.2 29.2-25.4 29.2-15.7 0-24.9-12.7-24.9-28.8 0-15.8 8.9-28.7 25.5-28.7 15.3 0 24.8 12.1 24.8 28.3zm-45.7 0.2c0 12.9 7.1 25 20.5 25 14.5 0 20.6-11.8 20.6-25.1 0-13-6.9-24.4-20.4-24.4-14.4 0-20.7 11.9-20.7 24.5z"/><path fill-rule="evenodd" class="c" d="m389.7 293.9q0 5.2 0 9.3 0.1 4.2 0.2 7.5 0.1 2.7 2.2 3.4l9.6 2.8 0.2 3.7q-10.2-0.3-20.4-0.3-10.4 0-21.4 0.3l-0.3-3.7 10.6-3.2q2.1-0.6 2.3-2.7 0.1-3.4 0.1-7.6 0.1-4.3 0.1-9.5v-69.7q0-4.4-0.1-7.9 0-3.5-0.1-6.3-0.1-2.3-2.1-3l-10.6-3.3-0.2-3.7q11.1 0.3 21.7 0.3 2 0 5.3-0.1 3.2-0.1 7.8-0.3 4.7-0.2 7.8-0.3 3.1 0 4.9 0 19.9 0 29.8 7.3 9.9 7.4 9.9 21.6 0 12.8-6.8 20.8-6.8 7.9-20.8 12.2 5.5 8.3 10.1 16 4.6 7.7 8.6 14.1 4 6.4 7.3 11.3 3.3 4.9 6.1 7.7 1.5 1.5 2.9 2.6 1.5 1 3.1 1.7 1.6 0.7 3.3 1.2 1.8 0.5 4 1.1l0.2 3.7q-6.2 0.8-10.4 0.8-3.5 0-6.2-0.2-2.7-0.1-4.8-0.7-2-0.5-3.7-1.3-1.7-0.8-3.4-2.1-3.6-2.7-7-7.7-3.5-5-7.2-11.4-3.7-6.3-7.7-13.5-4-7.2-8.4-14.1-1.3-2-2.2-3.2-1-1.2-2.1-1.9-1-0.7-2.5-1-1.4-0.2-3.7-0.3l-6-0.2zm0-36.3q5.2 0.3 9.7 0.3 14.9 0 21.8-6.3 6.9-6.3 6.9-19.8 0-13.1-6.6-19.1-6.6-6-20.7-6-2.4 0-5.2 0.1-2.7 0.2-5.9 0.6zm102.6-57.4h20.8q19.3 0 40.7-0.3l0.5 0.7-5 26.5-3.4 0.6-5.3-19.8h-39.7v47.2h7.8q8.9 0 19.9-0.1 2.3-0.1 2.9-2.3l3.1-11.6 4.6-0.1q-0.3 12-0.3 17.8 0 5.5 0.3 17.5l-4.6 0.3-3.1-11.7q-0.7-2.3-2.7-2.4-11.2-0.1-20.2-0.1h-7.7v31.3q0 9.5 0.1 18.8h41.3l10.5-21.9 3.8-0.6-1.8 29.9-0.6 0.6q-22.3-0.3-41.1-0.3h-20.5q-10.4 0-21.3 0.3l-0.4-3.7 10.6-3.2q2.2-0.6 2.3-2.7 0.1-3.4 0.2-7.7 0-4.2 0-9.4v-69.7q0-4.4 0-7.9-0.1-3.5-0.2-6.4-0.1-2.2-2-2.9l-10.7-3.3-0.2-3.7q11.1 0.3 21.4 0.3zm137.2-2.1l38.2 105.1q2.2 5.9 3.9 8 1.8 2.1 5 3.2l8.1 2.4 0.2 3.7q-11.3-0.3-20.9-0.3-9.8 0-23.1 0.3l-0.4-3.7 8.2-2.4q1.7-0.6 2.5-1.4 0.7-0.7 0.7-2.2 0-1.8-0.9-4.6-0.9-2.7-2.5-7.4l-8.1-23h-41.5l-9 22.9q-1.8 4.8-2.8 7.7-1.1 2.8-1.1 4.4 0 1.5 0.9 2.2 0.8 0.8 2.4 1.3l8 2.3 0.2 3.9q-12.2-0.3-20-0.3-7.7 0-17.2 0.3l-0.5-3.7 8.7-2.7q3.3-1 4.8-3.2 1.6-2.1 3.5-6.7l43.9-104.8zm-27.4 69.8h35.4l-16.8-47.3zm119.7-44.2v69.9q0 9.5 0.1 18.8h41.9l11-22.8 3.9-0.6-1.9 30.8-0.5 0.6q-22.3-0.3-41.2-0.3h-21.6q-10.4 0-21.3 0.3l-0.3-3.7 10.5-3.2q2.2-0.6 2.4-2.6 0-3.5 0.1-7.7 0-4.3 0-9.5v-69.7q0-4.3 0-7.9-0.1-3.5-0.1-6.3-0.1-2.3-2.1-3l-10.7-3.3-0.1-3.7q11 0.3 21.3 0.3 10.3 0 21.3-0.3l0.3 3.7-10.6 3.2q-2.1 0.5-2.3 2.6 0 3-0.1 8.8 0 5.8 0 5.6zm234 33.7q0 29.7-16.8 47.8-16.9 18.1-47.2 18.1-28.8 0-44.6-16.7-15.7-16.7-15.7-45.3 0-29.7 16.9-47 17-17.3 47.1-17.3 28.8 0 44.6 16.2 15.7 16.2 15.7 44.2zm-105.5 1.1q0 28 11.3 42.9 11.4 15 33.3 15 21.6 0 31.9-13.6 10.2-13.5 10.2-42.5 0-27.2-10.9-41.8-10.9-14.6-33.7-14.6-22.1 0-32.1 13.6-10 13.5-10 41zm152.5 35.2q0 5.2 0 9.3 0.1 4.2 0.2 7.4 0 2 2.2 2.7l11.9 3.6 0.1 3.7q-12.4-0.3-22.7-0.3-10.4 0-21.3 0.3l-0.3-3.7 10.5-3.2q2.3-0.7 2.4-2.6 0-3.5 0.1-7.7 0-4.3 0-9.5v-69.7q0-4.3 0-7.9-0.1-3.5-0.1-6.3-0.1-2.3-2.1-3l-10.7-3.3-0.1-3.7q11.1 0.3 21.6 0.3 7.1 0 13.7-0.3 6.7-0.4 12.1-0.4 20.4 0 30.8 8 10.5 8 10.5 23.7 0 18.5-12.1 28.7-12.1 10.2-33.9 10.2-6 0-12.8-0.8zm0-31.7q6 1.1 11.8 1.1 13.8 0 21-7.1 7.2-7.1 7.2-21.7 0-14-6.9-20.9-6.8-6.9-21.5-6.9-5.8 0-11.6 0.7zm90.3-61.9h20.9q19.3 0 40.7-0.4l0.5 0.7-5 26.6-3.4 0.6-5.4-19.9h-39.7v47.3h7.8q9 0 20-0.1 2.2-0.1 2.9-2.3l3-11.6 4.7-0.2q-0.3 12.1-0.3 17.8 0 5.6 0.3 17.6l-4.7 0.3-3.1-11.8q-0.7-2.2-2.6-2.3-11.2-0.2-20.2-0.2h-7.8v31.3q0 9.6 0.2 18.9h41.3l10.4-21.9 3.9-0.7-1.9 30-0.6 0.6q-22.2-0.3-41.1-0.3h-20.4q-10.4 0-21.3 0.3l-0.4-3.7 10.6-3.2q2.1-0.6 2.3-2.7 0.1-3.4 0.1-7.7 0.1-4.2 0.1-9.4v-69.7q0-4.4-0.1-7.9 0-3.5-0.1-6.4-0.1-2.2-2.1-2.9l-10.6-3.4-0.2-3.7q11.1 0.4 21.3 0.4zm101.8 24.1v69.5q0 10.1 0.2 16.9 0.1 2.4 2.1 2.9l10.3 3 0.1 3.9q-10.7-0.3-17.6-0.3-6.7 0-17.8 0.3l-0.3-3.7 10.5-3.2q2.3-0.7 2.4-2.7 0.1-7 0.1-17.1v-69.7q0-8.6-0.1-14.3-0.1-2.2-2.1-2.9l-10.7-3.4-0.1-3.7q11.1 0.4 17.5 0.4 3.9 0 7.8-0.4l72.2 90.2v-66.3q0-8.3-0.1-14.3-0.1-2-2.3-2.7l-10.1-2.9-0.2-4q11 0.4 17.8 0.4 6.9 0 17.6-0.4l0.4 3.7-10.9 3.4q-1.9 0.7-2 2.9-0.2 5.7-0.2 14.3v96.1l-7.2 0.7zm155.1-24.5q11.1 0.3 21.8 0.3 4-0.1 13-0.5 9-0.3 12.1-0.3 18.9 0 28.6 7 9.7 7 9.7 20.1-0.1 21.2-22.8 28.8 13.3 2.3 20.4 9.9 7.2 7.7 7.2 19.5 0 17.2-12.5 26.6-12.5 9.4-34.7 9.4-4.4 0-9.5-0.2-5.2-0.3-11.6-0.3-10.4 0-21.3 0.3l-0.4-3.7 10.6-3.2q2.2-0.6 2.3-2.7 0.1-3.4 0.2-7.6 0-4.3 0-9.5v-69.7q0-4.4 0-7.9-0.1-3.5-0.2-6.3 0-2.3-2-3l-10.7-3.3zm29.9 53.6q5.3 0.1 10.8 0.1 12.7 0 19.1-6.1 6.5-6.2 6.5-17.9 0-12.3-6.6-17.6-6.7-5.4-19.2-5.4-2.2 0-4.8 0.1-2.7 0.1-5.8 0.5zm0 6.9v52.1q2.6 1 6 1.2 3.4 0.3 6.2 0.3 14.2 0 21.6-7 7.4-7.1 7.4-20.5 0-13.4-7.5-19.9-7.5-6.5-24.2-6.5-4.8 0-9.5 0.3z"/><path fill-rule="evenodd" class="c" d="m1509.4 198.2l38.2 105.1q2.2 5.9 3.9 8.1 1.8 2.1 5 3.1l8.1 2.4 0.2 3.7q-11.3-0.3-20.9-0.3-9.8 0-23.1 0.3l-0.4-3.7 8.2-2.4q1.7-0.6 2.5-1.3 0.7-0.8 0.7-2.3 0-1.7-0.9-4.5-0.9-2.8-2.5-7.5l-8.1-23h-41.5l-9 22.9q-1.8 4.9-2.8 7.7-1.1 2.8-1.1 4.5 0 1.4 0.9 2.2 0.8 0.7 2.4 1.2l8 2.3 0.2 3.9q-12.2-0.3-20-0.3-7.7 0-17.2 0.3l-0.5-3.7 8.7-2.7q3.3-1 4.8-3.2 1.6-2.1 3.5-6.7l43.9-104.8zm-27.4 69.9h35.4l-16.8-47.4zm110.7-43.6v69.5q0 10.1 0.1 16.8 0.1 2.4 2.2 2.9l10.2 3 0.2 3.9q-10.8-0.2-17.6-0.2-6.8 0-17.8 0.2l-0.4-3.7 10.6-3.2q2.2-0.7 2.3-2.6 0.2-7 0.2-17.1v-69.7q0-8.6-0.2-14.3-0.1-2.3-2.1-2.9l-10.6-3.4-0.2-3.7q11.1 0.4 17.6 0.4 3.8 0 7.8-0.4l72.2 90.2v-66.3q0-8.3-0.2-14.3-0.1-2-2.2-2.7l-10.2-2.9-0.1-4q11 0.4 17.8 0.4 6.8 0 17.6-0.4l0.3 3.7-10.8 3.4q-2 0.6-2.1 2.9-0.1 5.7-0.1 14.3v96.1l-7.3 0.6zm143.2 35l34.6-38.6q4-4.5 6.5-7.7 2.5-3.1 2.5-5 0-1.7-2.3-2.3l-7-1.9-0.2-4q8.5 0.4 19 0.4 10 0 18.9-0.4l0.3 3.7-8.6 2.8q-4 1.3-6.9 3.9-2.9 2.7-6.1 6.3l-34.4 37.8 39.1 51.6q2.5 3.3 4.9 5.3 2.4 2 6.3 3.1l7.8 2.5 0.2 3.6q-7.2-0.2-18.3-0.2-3 0-6 0-3 0.1-6 0.2-3-6.2-15.9-23.3zm-2.2-35.6v70q0 5.2 0 9.4 0.1 4.2 0.1 7.7 0.1 2.2 2.3 2.9l9.5 3 0.3 3.7q-10.2-0.3-20.5-0.3-10.4 0-21.3 0.3l-0.3-3.7 10.5-3.2q2.3-0.7 2.4-2.7 0-3.4 0.1-7.7 0-4.2 0-9.4v-69.7q0-4.4 0-7.9-0.1-3.5-0.1-6.3-0.1-2.3-2.1-3l-10.7-3.3-0.1-3.7q11 0.3 21.3 0.3 10.2 0 20.4-0.3l0.4 3.7-9.8 3q-2.1 0.5-2.3 2.7 0 3-0.1 6.7 0 3.6 0 7.8z"/></g></svg>