<svg xmlns="http://www.w3.org/2000/svg" xmlns:xlink="http://www.w3.org/1999/xlink" width="1920" zoomAndPan="magnify" viewBox="0 0 1440 490.499985" height="654" preserveAspectRatio="xMidYMid meet" version="1.0"><defs><g/><clipPath id="ae0bc08c2c"><path d="M 5.40625 231.144531 L 89 231.144531 L 89 348 L 5.40625 348 Z M 5.40625 231.144531 " clip-rule="nonzero"/></clipPath><clipPath id="28a0859de7"><path d="M 13.640625 231.539062 L 6.347656 231.695312 C 6.085938 235.304688 5.953125 238.964844 5.953125 242.675781 C 5.953125 275.359375 14.972656 301.246094 33.011719 320.335938 C 47.050781 335.316406 65.636719 344.414062 88.769531 347.632812 L 88.769531 333.355469 C 76.117188 329.328125 65.765625 322.035156 57.714844 311.46875 C 44.75 294.421875 38.265625 269.871094 38.265625 237.8125 C 38.265625 235.566406 38.292969 233.367188 38.34375 231.222656 C 30.34375 231.222656 21.953125 231.300781 13.640625 231.539062 Z M 13.640625 231.539062 " clip-rule="nonzero"/></clipPath><linearGradient x1="-0.000331498" gradientTransform="matrix(82.802394, 0, 0, 116.419881, 5.98192, 289.423362)" y1="0" x2="0.999839" gradientUnits="userSpaceOnUse" y2="0" id="1c290b0d86"><stop stop-opacity="1" stop-color="rgb(63.499451%, 49.398804%, 32.199097%)" offset="0"/><stop stop-opacity="1" stop-color="rgb(63.499451%, 49.398804%, 32.199097%)" offset="0.03125"/><stop stop-opacity="1" stop-color="rgb(63.499451%, 49.398804%, 32.199097%)" offset="0.046875"/><stop stop-opacity="1" stop-color="rgb(63.61084%, 49.526978%, 32.339478%)" offset="0.0546875"/><stop stop-opacity="1" stop-color="rgb(63.920593%, 49.882507%, 32.730103%)" offset="0.0585937"/><stop stop-opacity="1" stop-color="rgb(64.120483%, 50.111389%, 32.981873%)" offset="0.0625"/><stop stop-opacity="1" stop-color="rgb(64.320374%, 50.340271%, 33.232117%)" offset="0.0664062"/><stop stop-opacity="1" stop-color="rgb(64.520264%, 50.569153%, 33.483887%)" offset="0.0703125"/><stop stop-opacity="1" stop-color="rgb(64.718628%, 50.798035%, 33.734131%)" offset="0.0742188"/><stop stop-opacity="1" stop-color="rgb(64.918518%, 51.026917%, 33.985901%)" offset="0.078125"/><stop stop-opacity="1" stop-color="rgb(65.118408%, 51.254272%, 34.236145%)" offset="0.0820312"/><stop stop-opacity="1" stop-color="rgb(65.318298%, 51.483154%, 34.487915%)" offset="0.0859375"/><stop stop-opacity="1" stop-color="rgb(65.516663%, 51.712036%, 34.738159%)" offset="0.0898437"/><stop stop-opacity="1" stop-color="rgb(65.716553%, 51.940918%, 34.989929%)" offset="0.09375"/><stop stop-opacity="1" stop-color="rgb(65.916443%, 52.168274%, 35.240173%)" offset="0.0976562"/><stop stop-opacity="1" stop-color="rgb(66.116333%, 52.397156%, 35.491943%)" offset="0.101562"/><stop stop-opacity="1" stop-color="rgb(66.314697%, 52.626038%, 35.742188%)" offset="0.105469"/><stop stop-opacity="1" stop-color="rgb(66.514587%, 52.854919%, 35.993958%)" offset="0.109375"/><stop stop-opacity="1" stop-color="rgb(66.714478%, 53.083801%, 36.244202%)" offset="0.113281"/><stop stop-opacity="1" stop-color="rgb(66.914368%, 53.312683%, 36.495972%)" offset="0.117187"/><stop stop-opacity="1" stop-color="rgb(67.112732%, 53.540039%, 36.746216%)" offset="0.121094"/><stop stop-opacity="1" stop-color="rgb(67.312622%, 53.768921%, 36.997986%)" offset="0.125"/><stop stop-opacity="1" stop-color="rgb(67.512512%, 53.997803%, 37.24823%)" offset="0.128906"/><stop stop-opacity="1" stop-color="rgb(67.712402%, 54.226685%, 37.5%)" offset="0.132812"/><stop stop-opacity="1" stop-color="rgb(67.910767%, 54.455566%, 37.750244%)" offset="0.136719"/><stop stop-opacity="1" stop-color="rgb(68.110657%, 54.684448%, 38.002014%)" offset="0.140625"/><stop stop-opacity="1" stop-color="rgb(68.310547%, 54.911804%, 38.252258%)" offset="0.144531"/><stop stop-opacity="1" stop-color="rgb(68.510437%, 55.140686%, 38.504028%)" offset="0.148437"/><stop stop-opacity="1" stop-color="rgb(68.708801%, 55.369568%, 38.754272%)" offset="0.152344"/><stop stop-opacity="1" stop-color="rgb(68.908691%, 55.59845%, 39.006042%)" offset="0.15625"/><stop stop-opacity="1" stop-color="rgb(69.108582%, 55.825806%, 39.257812%)" offset="0.160156"/><stop stop-opacity="1" stop-color="rgb(69.308472%, 56.054688%, 39.509583%)" offset="0.164062"/><stop stop-opacity="1" stop-color="rgb(69.506836%, 56.283569%, 39.759827%)" offset="0.167969"/><stop stop-opacity="1" stop-color="rgb(69.706726%, 56.512451%, 40.011597%)" offset="0.171875"/><stop stop-opacity="1" stop-color="rgb(69.906616%, 56.741333%, 40.261841%)" offset="0.175781"/><stop stop-opacity="1" stop-color="rgb(70.106506%, 56.970215%, 40.513611%)" offset="0.179688"/><stop stop-opacity="1" stop-color="rgb(70.304871%, 57.197571%, 40.763855%)" offset="0.183594"/><stop stop-opacity="1" stop-color="rgb(70.504761%, 57.426453%, 41.015625%)" offset="0.1875"/><stop stop-opacity="1" stop-color="rgb(70.704651%, 57.655334%, 41.265869%)" offset="0.191406"/><stop stop-opacity="1" stop-color="rgb(70.904541%, 57.884216%, 41.517639%)" offset="0.195312"/><stop stop-opacity="1" stop-color="rgb(71.102905%, 58.113098%, 41.767883%)" offset="0.199219"/><stop stop-opacity="1" stop-color="rgb(71.302795%, 58.34198%, 42.019653%)" offset="0.203125"/><stop stop-opacity="1" stop-color="rgb(71.502686%, 58.569336%, 42.269897%)" offset="0.207031"/><stop stop-opacity="1" stop-color="rgb(71.702576%, 58.798218%, 42.521667%)" offset="0.210937"/><stop stop-opacity="1" stop-color="rgb(71.90094%, 59.0271%, 42.771912%)" offset="0.214844"/><stop stop-opacity="1" stop-color="rgb(72.10083%, 59.255981%, 43.023682%)" offset="0.21875"/><stop stop-opacity="1" stop-color="rgb(72.30072%, 59.483337%, 43.273926%)" offset="0.222656"/><stop stop-opacity="1" stop-color="rgb(72.50061%, 59.712219%, 43.525696%)" offset="0.226562"/><stop stop-opacity="1" stop-color="rgb(72.698975%, 59.941101%, 43.77594%)" offset="0.230469"/><stop stop-opacity="1" stop-color="rgb(72.898865%, 60.169983%, 44.02771%)" offset="0.234375"/><stop stop-opacity="1" stop-color="rgb(73.098755%, 60.398865%, 44.277954%)" offset="0.238281"/><stop stop-opacity="1" stop-color="rgb(73.298645%, 60.627747%, 44.529724%)" offset="0.242187"/><stop stop-opacity="1" stop-color="rgb(73.497009%, 60.855103%, 44.779968%)" offset="0.246094"/><stop stop-opacity="1" stop-color="rgb(73.696899%, 61.083984%, 45.031738%)" offset="0.25"/><stop stop-opacity="1" stop-color="rgb(73.89679%, 61.312866%, 45.281982%)" offset="0.253906"/><stop stop-opacity="1" stop-color="rgb(74.09668%, 61.541748%, 45.533752%)" offset="0.257812"/><stop stop-opacity="1" stop-color="rgb(74.295044%, 61.77063%, 45.783997%)" offset="0.261719"/><stop stop-opacity="1" stop-color="rgb(74.494934%, 61.999512%, 46.035767%)" offset="0.265625"/><stop stop-opacity="1" stop-color="rgb(74.694824%, 62.226868%, 46.286011%)" offset="0.269531"/><stop stop-opacity="1" stop-color="rgb(74.894714%, 62.45575%, 46.537781%)" offset="0.273437"/><stop stop-opacity="1" stop-color="rgb(75.093079%, 62.684631%, 46.788025%)" offset="0.277344"/><stop stop-opacity="1" stop-color="rgb(75.292969%, 62.913513%, 47.039795%)" offset="0.28125"/><stop stop-opacity="1" stop-color="rgb(75.492859%, 63.140869%, 47.290039%)" offset="0.285156"/><stop stop-opacity="1" stop-color="rgb(75.692749%, 63.369751%, 47.541809%)" offset="0.289062"/><stop stop-opacity="1" stop-color="rgb(75.891113%, 63.598633%, 47.792053%)" offset="0.292969"/><stop stop-opacity="1" stop-color="rgb(76.091003%, 63.827515%, 48.043823%)" offset="0.296875"/><stop stop-opacity="1" stop-color="rgb(76.290894%, 64.056396%, 48.294067%)" offset="0.300781"/><stop stop-opacity="1" stop-color="rgb(76.490784%, 64.285278%, 48.545837%)" offset="0.304687"/><stop stop-opacity="1" stop-color="rgb(76.689148%, 64.512634%, 48.796082%)" offset="0.308594"/><stop stop-opacity="1" stop-color="rgb(76.889038%, 64.741516%, 49.047852%)" offset="0.3125"/><stop stop-opacity="1" stop-color="rgb(77.088928%, 64.970398%, 49.298096%)" offset="0.316406"/><stop stop-opacity="1" stop-color="rgb(77.288818%, 65.19928%, 49.549866%)" offset="0.320312"/><stop stop-opacity="1" stop-color="rgb(77.487183%, 65.428162%, 49.80011%)" offset="0.324219"/><stop stop-opacity="1" stop-color="rgb(77.687073%, 65.657043%, 50.05188%)" offset="0.328125"/><stop stop-opacity="1" stop-color="rgb(77.886963%, 65.884399%, 50.302124%)" offset="0.332031"/><stop stop-opacity="1" stop-color="rgb(78.086853%, 66.113281%, 50.553894%)" offset="0.335937"/><stop stop-opacity="1" stop-color="rgb(78.285217%, 66.342163%, 50.805664%)" offset="0.339844"/><stop stop-opacity="1" stop-color="rgb(78.485107%, 66.571045%, 51.057434%)" offset="0.34375"/><stop stop-opacity="1" stop-color="rgb(78.684998%, 66.798401%, 51.307678%)" offset="0.347656"/><stop stop-opacity="1" stop-color="rgb(78.884888%, 67.027283%, 51.559448%)" offset="0.351562"/><stop stop-opacity="1" stop-color="rgb(79.083252%, 67.256165%, 51.809692%)" offset="0.355469"/><stop stop-opacity="1" stop-color="rgb(79.283142%, 67.485046%, 52.061462%)" offset="0.359375"/><stop stop-opacity="1" stop-color="rgb(79.483032%, 67.713928%, 52.311707%)" offset="0.363281"/><stop stop-opacity="1" stop-color="rgb(79.682922%, 67.94281%, 52.563477%)" offset="0.367187"/><stop stop-opacity="1" stop-color="rgb(79.881287%, 68.170166%, 52.813721%)" offset="0.371094"/><stop stop-opacity="1" stop-color="rgb(80.081177%, 68.399048%, 53.065491%)" offset="0.375"/><stop stop-opacity="1" stop-color="rgb(80.281067%, 68.62793%, 53.315735%)" offset="0.378906"/><stop stop-opacity="1" stop-color="rgb(80.480957%, 68.856812%, 53.567505%)" offset="0.382812"/><stop stop-opacity="1" stop-color="rgb(80.679321%, 69.085693%, 53.817749%)" offset="0.386719"/><stop stop-opacity="1" stop-color="rgb(80.879211%, 69.314575%, 54.069519%)" offset="0.390625"/><stop stop-opacity="1" stop-color="rgb(81.079102%, 69.541931%, 54.319763%)" offset="0.394531"/><stop stop-opacity="1" stop-color="rgb(81.278992%, 69.770813%, 54.571533%)" offset="0.398437"/><stop stop-opacity="1" stop-color="rgb(81.477356%, 69.999695%, 54.821777%)" offset="0.402344"/><stop stop-opacity="1" stop-color="rgb(81.677246%, 70.228577%, 55.073547%)" offset="0.40625"/><stop stop-opacity="1" stop-color="rgb(81.877136%, 70.455933%, 55.323792%)" offset="0.410156"/><stop stop-opacity="1" stop-color="rgb(82.077026%, 70.684814%, 55.575562%)" offset="0.414062"/><stop stop-opacity="1" stop-color="rgb(82.275391%, 70.913696%, 55.825806%)" offset="0.417969"/><stop stop-opacity="1" stop-color="rgb(82.475281%, 71.142578%, 56.077576%)" offset="0.421875"/><stop stop-opacity="1" stop-color="rgb(82.675171%, 71.37146%, 56.32782%)" offset="0.425781"/><stop stop-opacity="1" stop-color="rgb(82.875061%, 71.600342%, 56.57959%)" offset="0.429687"/><stop stop-opacity="1" stop-color="rgb(83.073425%, 71.827698%, 56.829834%)" offset="0.433594"/><stop stop-opacity="1" stop-color="rgb(83.273315%, 72.05658%, 57.081604%)" offset="0.4375"/><stop stop-opacity="1" stop-color="rgb(83.473206%, 72.285461%, 57.331848%)" offset="0.441406"/><stop stop-opacity="1" stop-color="rgb(83.673096%, 72.514343%, 57.583618%)" offset="0.445312"/><stop stop-opacity="1" stop-color="rgb(83.87146%, 72.743225%, 57.833862%)" offset="0.449219"/><stop stop-opacity="1" stop-color="rgb(84.07135%, 72.972107%, 58.085632%)" offset="0.453125"/><stop stop-opacity="1" stop-color="rgb(84.269714%, 73.199463%, 58.335876%)" offset="0.457031"/><stop stop-opacity="1" stop-color="rgb(84.469604%, 73.428345%, 58.587646%)" offset="0.460937"/><stop stop-opacity="1" stop-color="rgb(84.669495%, 73.657227%, 58.837891%)" offset="0.464844"/><stop stop-opacity="1" stop-color="rgb(84.869385%, 73.886108%, 59.089661%)" offset="0.46875"/><stop stop-opacity="1" stop-color="rgb(85.067749%, 74.113464%, 59.339905%)" offset="0.472656"/><stop stop-opacity="1" stop-color="rgb(85.267639%, 74.342346%, 59.591675%)" offset="0.476562"/><stop stop-opacity="1" stop-color="rgb(85.467529%, 74.571228%, 59.841919%)" offset="0.480469"/><stop stop-opacity="1" stop-color="rgb(85.667419%, 74.80011%, 60.093689%)" offset="0.484375"/><stop stop-opacity="1" stop-color="rgb(85.865784%, 75.028992%, 60.343933%)" offset="0.488281"/><stop stop-opacity="1" stop-color="rgb(86.065674%, 75.257874%, 60.595703%)" offset="0.492187"/><stop stop-opacity="1" stop-color="rgb(86.265564%, 75.485229%, 60.845947%)" offset="0.496094"/><stop stop-opacity="1" stop-color="rgb(86.465454%, 75.714111%, 61.097717%)" offset="0.5"/><stop stop-opacity="1" stop-color="rgb(86.663818%, 75.942993%, 61.347961%)" offset="0.503906"/><stop stop-opacity="1" stop-color="rgb(86.863708%, 76.171875%, 61.599731%)" offset="0.507812"/><stop stop-opacity="1" stop-color="rgb(87.063599%, 76.400757%, 61.849976%)" offset="0.511719"/><stop stop-opacity="1" stop-color="rgb(87.263489%, 76.629639%, 62.101746%)" offset="0.515625"/><stop stop-opacity="1" stop-color="rgb(87.231445%, 76.560974%, 61.975098%)" offset="0.53125"/><stop stop-opacity="1" stop-color="rgb(87.094116%, 76.348877%, 61.653137%)" offset="0.539062"/><stop stop-opacity="1" stop-color="rgb(86.883545%, 76.060486%, 61.262512%)" offset="0.546875"/><stop stop-opacity="1" stop-color="rgb(86.671448%, 75.772095%, 60.871887%)" offset="0.554687"/><stop stop-opacity="1" stop-color="rgb(86.459351%, 75.483704%, 60.481262%)" offset="0.5625"/><stop stop-opacity="1" stop-color="rgb(86.248779%, 75.195312%, 60.090637%)" offset="0.570312"/><stop stop-opacity="1" stop-color="rgb(86.036682%, 74.908447%, 59.700012%)" offset="0.578125"/><stop stop-opacity="1" stop-color="rgb(85.824585%, 74.620056%, 59.309387%)" offset="0.585938"/><stop stop-opacity="1" stop-color="rgb(85.614014%, 74.331665%, 58.918762%)" offset="0.59375"/><stop stop-opacity="1" stop-color="rgb(85.401917%, 74.043274%, 58.528137%)" offset="0.601562"/><stop stop-opacity="1" stop-color="rgb(85.189819%, 73.754883%, 58.137512%)" offset="0.609375"/><stop stop-opacity="1" stop-color="rgb(84.979248%, 73.466492%, 57.746887%)" offset="0.617188"/><stop stop-opacity="1" stop-color="rgb(84.767151%, 73.179626%, 57.356262%)" offset="0.625"/><stop stop-opacity="1" stop-color="rgb(84.555054%, 72.891235%, 56.965637%)" offset="0.632812"/><stop stop-opacity="1" stop-color="rgb(84.342957%, 72.602844%, 56.575012%)" offset="0.640625"/><stop stop-opacity="1" stop-color="rgb(84.132385%, 72.314453%, 56.184387%)" offset="0.648438"/><stop stop-opacity="1" stop-color="rgb(83.920288%, 72.026062%, 55.793762%)" offset="0.65625"/><stop stop-opacity="1" stop-color="rgb(83.708191%, 71.737671%, 55.401611%)" offset="0.660156"/><stop stop-opacity="1" stop-color="rgb(83.602905%, 71.594238%, 55.206299%)" offset="0.664062"/><stop stop-opacity="1" stop-color="rgb(83.49762%, 71.450806%, 55.010986%)" offset="0.671875"/><stop stop-opacity="1" stop-color="rgb(83.285522%, 71.162415%, 54.620361%)" offset="0.679687"/><stop stop-opacity="1" stop-color="rgb(83.073425%, 70.874023%, 54.229736%)" offset="0.6875"/><stop stop-opacity="1" stop-color="rgb(82.862854%, 70.585632%, 53.839111%)" offset="0.695312"/><stop stop-opacity="1" stop-color="rgb(82.650757%, 70.297241%, 53.448486%)" offset="0.703125"/><stop stop-opacity="1" stop-color="rgb(82.43866%, 70.00885%, 53.057861%)" offset="0.710937"/><stop stop-opacity="1" stop-color="rgb(82.228088%, 69.721985%, 52.667236%)" offset="0.71875"/><stop stop-opacity="1" stop-color="rgb(82.015991%, 69.433594%, 52.276611%)" offset="0.726562"/><stop stop-opacity="1" stop-color="rgb(81.803894%, 69.145203%, 51.885986%)" offset="0.734375"/><stop stop-opacity="1" stop-color="rgb(81.591797%, 68.856812%, 51.495361%)" offset="0.742187"/><stop stop-opacity="1" stop-color="rgb(81.381226%, 68.56842%, 51.104736%)" offset="0.75"/><stop stop-opacity="1" stop-color="rgb(81.169128%, 68.281555%, 50.714111%)" offset="0.757812"/><stop stop-opacity="1" stop-color="rgb(80.957031%, 67.993164%, 50.323486%)" offset="0.765625"/><stop stop-opacity="1" stop-color="rgb(80.74646%, 67.704773%, 49.932861%)" offset="0.773438"/><stop stop-opacity="1" stop-color="rgb(80.534363%, 67.416382%, 49.542236%)" offset="0.78125"/><stop stop-opacity="1" stop-color="rgb(80.322266%, 67.127991%, 49.151611%)" offset="0.789062"/><stop stop-opacity="1" stop-color="rgb(80.111694%, 66.8396%, 48.760986%)" offset="0.796875"/><stop stop-opacity="1" stop-color="rgb(79.899597%, 66.552734%, 48.370361%)" offset="0.804688"/><stop stop-opacity="1" stop-color="rgb(79.6875%, 66.264343%, 47.979736%)" offset="0.8125"/><stop stop-opacity="1" stop-color="rgb(79.476929%, 65.975952%, 47.589111%)" offset="0.820312"/><stop stop-opacity="1" stop-color="rgb(79.264832%, 65.687561%, 47.198486%)" offset="0.828125"/><stop stop-opacity="1" stop-color="rgb(79.052734%, 65.39917%, 46.807861%)" offset="0.835938"/><stop stop-opacity="1" stop-color="rgb(78.840637%, 65.110779%, 46.41571%)" offset="0.839844"/><stop stop-opacity="1" stop-color="rgb(78.735352%, 64.967346%, 46.220398%)" offset="0.84375"/><stop stop-opacity="1" stop-color="rgb(78.630066%, 64.823914%, 46.025085%)" offset="0.851562"/><stop stop-opacity="1" stop-color="rgb(78.417969%, 64.535522%, 45.63446%)" offset="0.859375"/><stop stop-opacity="1" stop-color="rgb(78.205872%, 64.247131%, 45.243835%)" offset="0.867187"/><stop stop-opacity="1" stop-color="rgb(77.9953%, 63.95874%, 44.85321%)" offset="0.875"/><stop stop-opacity="1" stop-color="rgb(77.783203%, 63.670349%, 44.462585%)" offset="0.882812"/><stop stop-opacity="1" stop-color="rgb(77.571106%, 63.381958%, 44.07196%)" offset="0.890625"/><stop stop-opacity="1" stop-color="rgb(77.360535%, 63.095093%, 43.681335%)" offset="0.898437"/><stop stop-opacity="1" stop-color="rgb(77.148438%, 62.806702%, 43.29071%)" offset="0.90625"/><stop stop-opacity="1" stop-color="rgb(76.93634%, 62.518311%, 42.900085%)" offset="0.914062"/><stop stop-opacity="1" stop-color="rgb(76.725769%, 62.229919%, 42.50946%)" offset="0.921875"/><stop stop-opacity="1" stop-color="rgb(76.513672%, 61.941528%, 42.118835%)" offset="0.929687"/><stop stop-opacity="1" stop-color="rgb(76.301575%, 61.653137%, 41.72821%)" offset="0.9375"/><stop stop-opacity="1" stop-color="rgb(76.091003%, 61.366272%, 41.337585%)" offset="0.945312"/><stop stop-opacity="1" stop-color="rgb(75.878906%, 61.077881%, 40.94696%)" offset="0.953125"/><stop stop-opacity="1" stop-color="rgb(75.666809%, 60.78949%, 40.556335%)" offset="0.960937"/><stop stop-opacity="1" stop-color="rgb(75.454712%, 60.501099%, 40.16571%)" offset="0.96875"/><stop stop-opacity="1" stop-color="rgb(75.244141%, 60.212708%, 39.775085%)" offset="0.976562"/><stop stop-opacity="1" stop-color="rgb(75.032043%, 59.924316%, 39.38446%)" offset="0.984375"/><stop stop-opacity="1" stop-color="rgb(74.819946%, 59.637451%, 38.993835%)" offset="0.992187"/><stop stop-opacity="1" stop-color="rgb(74.609375%, 59.34906%, 38.60321%)" offset="1"/></linearGradient><clipPath id="8519b9f0ee"><path d="M 121 130.328125 L 220.511719 130.328125 L 220.511719 250.953125 L 121 250.953125 Z M 121 130.328125 " clip-rule="nonzero"/></clipPath><clipPath id="163dff87f7"><path d="M 121.253906 137.800781 C 122.265625 139.433594 123.277344 141.144531 124.289062 142.78125 C 144.21875 144.960938 159.324219 153.050781 169.753906 166.984375 C 179.332031 179.746094 185.167969 196.710938 187.347656 217.957031 C 192.800781 219.902344 197.703125 222.390625 201.984375 225.503906 C 210.625 231.808594 216.621094 240.214844 219.5 250.253906 C 220.125 244.726562 220.4375 239.046875 220.4375 233.132812 C 220.4375 201.277344 211.484375 176.164062 193.578125 157.800781 C 178.320312 142.15625 157.765625 133.207031 131.765625 130.875 C 128.597656 133.414062 125.09375 135.722656 121.253906 137.800781 Z M 121.253906 137.800781 " clip-rule="nonzero"/></clipPath><linearGradient x1="0.000235363" gradientTransform="matrix(99.178203, 0, 0, 119.367132, 121.231134, 190.557666)" y1="0" x2="1.000267" gradientUnits="userSpaceOnUse" y2="0" id="9e5c2eaefb"><stop stop-opacity="1" stop-color="rgb(63.499451%, 49.398804%, 32.199097%)" offset="0"/><stop stop-opacity="1" stop-color="rgb(63.499451%, 49.398804%, 32.199097%)" offset="0.03125"/><stop stop-opacity="1" stop-color="rgb(63.499451%, 49.398804%, 32.199097%)" offset="0.046875"/><stop stop-opacity="1" stop-color="rgb(63.624573%, 49.542236%, 32.356262%)" offset="0.0546875"/><stop stop-opacity="1" stop-color="rgb(63.949585%, 49.916077%, 32.765198%)" offset="0.0585938"/><stop stop-opacity="1" stop-color="rgb(64.149475%, 50.144958%, 33.016968%)" offset="0.0625"/><stop stop-opacity="1" stop-color="rgb(64.349365%, 50.372314%, 33.267212%)" offset="0.0664063"/><stop stop-opacity="1" stop-color="rgb(64.549255%, 50.601196%, 33.518982%)" offset="0.0703125"/><stop stop-opacity="1" stop-color="rgb(64.74762%, 50.830078%, 33.769226%)" offset="0.0742188"/><stop stop-opacity="1" stop-color="rgb(64.94751%, 51.05896%, 34.020996%)" offset="0.078125"/><stop stop-opacity="1" stop-color="rgb(65.145874%, 51.286316%, 34.27124%)" offset="0.0820312"/><stop stop-opacity="1" stop-color="rgb(65.345764%, 51.515198%, 34.52301%)" offset="0.0859375"/><stop stop-opacity="1" stop-color="rgb(65.545654%, 51.74408%, 34.773254%)" offset="0.0898438"/><stop stop-opacity="1" stop-color="rgb(65.745544%, 51.972961%, 35.025024%)" offset="0.09375"/><stop stop-opacity="1" stop-color="rgb(65.943909%, 52.201843%, 35.275269%)" offset="0.0976562"/><stop stop-opacity="1" stop-color="rgb(66.143799%, 52.430725%, 35.527039%)" offset="0.101562"/><stop stop-opacity="1" stop-color="rgb(66.343689%, 52.658081%, 35.777283%)" offset="0.105469"/><stop stop-opacity="1" stop-color="rgb(66.543579%, 52.886963%, 36.029053%)" offset="0.109375"/><stop stop-opacity="1" stop-color="rgb(66.741943%, 53.115845%, 36.279297%)" offset="0.113281"/><stop stop-opacity="1" stop-color="rgb(66.941833%, 53.344727%, 36.531067%)" offset="0.117188"/><stop stop-opacity="1" stop-color="rgb(67.141724%, 53.572083%, 36.781311%)" offset="0.121094"/><stop stop-opacity="1" stop-color="rgb(67.341614%, 53.800964%, 37.033081%)" offset="0.125"/><stop stop-opacity="1" stop-color="rgb(67.539978%, 54.029846%, 37.283325%)" offset="0.128906"/><stop stop-opacity="1" stop-color="rgb(67.739868%, 54.258728%, 37.535095%)" offset="0.132813"/><stop stop-opacity="1" stop-color="rgb(67.939758%, 54.48761%, 37.785339%)" offset="0.136719"/><stop stop-opacity="1" stop-color="rgb(68.139648%, 54.716492%, 38.037109%)" offset="0.140625"/><stop stop-opacity="1" stop-color="rgb(68.338013%, 54.943848%, 38.287354%)" offset="0.144531"/><stop stop-opacity="1" stop-color="rgb(68.537903%, 55.172729%, 38.539124%)" offset="0.148438"/><stop stop-opacity="1" stop-color="rgb(68.737793%, 55.401611%, 38.789368%)" offset="0.152344"/><stop stop-opacity="1" stop-color="rgb(68.937683%, 55.630493%, 39.041138%)" offset="0.15625"/><stop stop-opacity="1" stop-color="rgb(69.136047%, 55.857849%, 39.291382%)" offset="0.160156"/><stop stop-opacity="1" stop-color="rgb(69.335938%, 56.086731%, 39.543152%)" offset="0.164062"/><stop stop-opacity="1" stop-color="rgb(69.534302%, 56.315613%, 39.793396%)" offset="0.167969"/><stop stop-opacity="1" stop-color="rgb(69.734192%, 56.544495%, 40.045166%)" offset="0.171875"/><stop stop-opacity="1" stop-color="rgb(69.934082%, 56.771851%, 40.29541%)" offset="0.175781"/><stop stop-opacity="1" stop-color="rgb(70.133972%, 57.000732%, 40.54718%)" offset="0.179688"/><stop stop-opacity="1" stop-color="rgb(70.332336%, 57.229614%, 40.797424%)" offset="0.183594"/><stop stop-opacity="1" stop-color="rgb(70.532227%, 57.458496%, 41.049194%)" offset="0.1875"/><stop stop-opacity="1" stop-color="rgb(70.732117%, 57.687378%, 41.299438%)" offset="0.191406"/><stop stop-opacity="1" stop-color="rgb(70.932007%, 57.91626%, 41.551208%)" offset="0.195312"/><stop stop-opacity="1" stop-color="rgb(71.130371%, 58.143616%, 41.801453%)" offset="0.199219"/><stop stop-opacity="1" stop-color="rgb(71.330261%, 58.372498%, 42.053223%)" offset="0.203125"/><stop stop-opacity="1" stop-color="rgb(71.530151%, 58.601379%, 42.303467%)" offset="0.207031"/><stop stop-opacity="1" stop-color="rgb(71.730042%, 58.830261%, 42.555237%)" offset="0.210938"/><stop stop-opacity="1" stop-color="rgb(71.928406%, 59.057617%, 42.805481%)" offset="0.214844"/><stop stop-opacity="1" stop-color="rgb(72.128296%, 59.286499%, 43.057251%)" offset="0.21875"/><stop stop-opacity="1" stop-color="rgb(72.328186%, 59.515381%, 43.307495%)" offset="0.222656"/><stop stop-opacity="1" stop-color="rgb(72.528076%, 59.744263%, 43.559265%)" offset="0.226563"/><stop stop-opacity="1" stop-color="rgb(72.72644%, 59.973145%, 43.809509%)" offset="0.230469"/><stop stop-opacity="1" stop-color="rgb(72.926331%, 60.202026%, 44.061279%)" offset="0.234375"/><stop stop-opacity="1" stop-color="rgb(73.126221%, 60.429382%, 44.311523%)" offset="0.238281"/><stop stop-opacity="1" stop-color="rgb(73.326111%, 60.658264%, 44.563293%)" offset="0.242188"/><stop stop-opacity="1" stop-color="rgb(73.524475%, 60.887146%, 44.813538%)" offset="0.246094"/><stop stop-opacity="1" stop-color="rgb(73.724365%, 61.116028%, 45.065308%)" offset="0.25"/><stop stop-opacity="1" stop-color="rgb(73.922729%, 61.343384%, 45.315552%)" offset="0.253906"/><stop stop-opacity="1" stop-color="rgb(74.12262%, 61.572266%, 45.567322%)" offset="0.257812"/><stop stop-opacity="1" stop-color="rgb(74.32251%, 61.801147%, 45.817566%)" offset="0.261719"/><stop stop-opacity="1" stop-color="rgb(74.5224%, 62.030029%, 46.069336%)" offset="0.265625"/><stop stop-opacity="1" stop-color="rgb(74.720764%, 62.257385%, 46.31958%)" offset="0.269531"/><stop stop-opacity="1" stop-color="rgb(74.920654%, 62.486267%, 46.57135%)" offset="0.273438"/><stop stop-opacity="1" stop-color="rgb(75.120544%, 62.715149%, 46.821594%)" offset="0.277344"/><stop stop-opacity="1" stop-color="rgb(75.320435%, 62.944031%, 47.073364%)" offset="0.28125"/><stop stop-opacity="1" stop-color="rgb(75.518799%, 63.172913%, 47.323608%)" offset="0.285156"/><stop stop-opacity="1" stop-color="rgb(75.718689%, 63.401794%, 47.575378%)" offset="0.289062"/><stop stop-opacity="1" stop-color="rgb(75.918579%, 63.62915%, 47.825623%)" offset="0.292969"/><stop stop-opacity="1" stop-color="rgb(76.118469%, 63.858032%, 48.077393%)" offset="0.296875"/><stop stop-opacity="1" stop-color="rgb(76.316833%, 64.086914%, 48.327637%)" offset="0.300781"/><stop stop-opacity="1" stop-color="rgb(76.516724%, 64.315796%, 48.579407%)" offset="0.304688"/><stop stop-opacity="1" stop-color="rgb(76.716614%, 64.543152%, 48.829651%)" offset="0.308594"/><stop stop-opacity="1" stop-color="rgb(76.916504%, 64.772034%, 49.081421%)" offset="0.3125"/><stop stop-opacity="1" stop-color="rgb(77.114868%, 65.000916%, 49.331665%)" offset="0.316406"/><stop stop-opacity="1" stop-color="rgb(77.314758%, 65.229797%, 49.583435%)" offset="0.320312"/><stop stop-opacity="1" stop-color="rgb(77.514648%, 65.458679%, 49.833679%)" offset="0.324219"/><stop stop-opacity="1" stop-color="rgb(77.714539%, 65.687561%, 50.085449%)" offset="0.328125"/><stop stop-opacity="1" stop-color="rgb(77.912903%, 65.914917%, 50.335693%)" offset="0.332031"/><stop stop-opacity="1" stop-color="rgb(78.112793%, 66.143799%, 50.587463%)" offset="0.335938"/><stop stop-opacity="1" stop-color="rgb(78.311157%, 66.372681%, 50.837708%)" offset="0.339844"/><stop stop-opacity="1" stop-color="rgb(78.511047%, 66.601562%, 51.089478%)" offset="0.34375"/><stop stop-opacity="1" stop-color="rgb(78.710938%, 66.828918%, 51.339722%)" offset="0.347656"/><stop stop-opacity="1" stop-color="rgb(78.910828%, 67.0578%, 51.591492%)" offset="0.351562"/><stop stop-opacity="1" stop-color="rgb(79.109192%, 67.286682%, 51.841736%)" offset="0.355469"/><stop stop-opacity="1" stop-color="rgb(79.309082%, 67.515564%, 52.093506%)" offset="0.359375"/><stop stop-opacity="1" stop-color="rgb(79.508972%, 67.74292%, 52.34375%)" offset="0.363281"/><stop stop-opacity="1" stop-color="rgb(79.708862%, 67.971802%, 52.59552%)" offset="0.367188"/><stop stop-opacity="1" stop-color="rgb(79.907227%, 68.200684%, 52.845764%)" offset="0.371094"/><stop stop-opacity="1" stop-color="rgb(80.107117%, 68.429565%, 53.097534%)" offset="0.375"/><stop stop-opacity="1" stop-color="rgb(80.307007%, 68.658447%, 53.347778%)" offset="0.378906"/><stop stop-opacity="1" stop-color="rgb(80.506897%, 68.887329%, 53.599548%)" offset="0.382812"/><stop stop-opacity="1" stop-color="rgb(80.705261%, 69.114685%, 53.849792%)" offset="0.386719"/><stop stop-opacity="1" stop-color="rgb(80.905151%, 69.343567%, 54.101562%)" offset="0.390625"/><stop stop-opacity="1" stop-color="rgb(81.105042%, 69.572449%, 54.351807%)" offset="0.394531"/><stop stop-opacity="1" stop-color="rgb(81.304932%, 69.801331%, 54.603577%)" offset="0.398438"/><stop stop-opacity="1" stop-color="rgb(81.503296%, 70.028687%, 54.853821%)" offset="0.402344"/><stop stop-opacity="1" stop-color="rgb(81.703186%, 70.257568%, 55.105591%)" offset="0.40625"/><stop stop-opacity="1" stop-color="rgb(81.903076%, 70.48645%, 55.355835%)" offset="0.410156"/><stop stop-opacity="1" stop-color="rgb(82.102966%, 70.715332%, 55.607605%)" offset="0.414062"/><stop stop-opacity="1" stop-color="rgb(82.301331%, 70.944214%, 55.857849%)" offset="0.417969"/><stop stop-opacity="1" stop-color="rgb(82.501221%, 71.173096%, 56.109619%)" offset="0.421875"/><stop stop-opacity="1" stop-color="rgb(82.701111%, 71.400452%, 56.359863%)" offset="0.425781"/><stop stop-opacity="1" stop-color="rgb(82.901001%, 71.629333%, 56.611633%)" offset="0.429688"/><stop stop-opacity="1" stop-color="rgb(83.099365%, 71.858215%, 56.861877%)" offset="0.433594"/><stop stop-opacity="1" stop-color="rgb(83.299255%, 72.087097%, 57.113647%)" offset="0.4375"/><stop stop-opacity="1" stop-color="rgb(83.49762%, 72.314453%, 57.363892%)" offset="0.441406"/><stop stop-opacity="1" stop-color="rgb(83.69751%, 72.543335%, 57.615662%)" offset="0.445312"/><stop stop-opacity="1" stop-color="rgb(83.8974%, 72.772217%, 57.865906%)" offset="0.449219"/><stop stop-opacity="1" stop-color="rgb(84.09729%, 73.001099%, 58.117676%)" offset="0.453125"/><stop stop-opacity="1" stop-color="rgb(84.295654%, 73.228455%, 58.36792%)" offset="0.457031"/><stop stop-opacity="1" stop-color="rgb(84.495544%, 73.457336%, 58.61969%)" offset="0.460938"/><stop stop-opacity="1" stop-color="rgb(84.695435%, 73.686218%, 58.869934%)" offset="0.464844"/><stop stop-opacity="1" stop-color="rgb(84.895325%, 73.9151%, 59.121704%)" offset="0.46875"/><stop stop-opacity="1" stop-color="rgb(85.093689%, 74.143982%, 59.371948%)" offset="0.472656"/><stop stop-opacity="1" stop-color="rgb(85.293579%, 74.372864%, 59.623718%)" offset="0.476562"/><stop stop-opacity="1" stop-color="rgb(85.493469%, 74.60022%, 59.873962%)" offset="0.480469"/><stop stop-opacity="1" stop-color="rgb(85.693359%, 74.829102%, 60.125732%)" offset="0.484375"/><stop stop-opacity="1" stop-color="rgb(85.891724%, 75.057983%, 60.375977%)" offset="0.488281"/><stop stop-opacity="1" stop-color="rgb(86.091614%, 75.286865%, 60.627747%)" offset="0.492188"/><stop stop-opacity="1" stop-color="rgb(86.291504%, 75.514221%, 60.877991%)" offset="0.496094"/><stop stop-opacity="1" stop-color="rgb(86.491394%, 75.743103%, 61.129761%)" offset="0.5"/><stop stop-opacity="1" stop-color="rgb(86.689758%, 75.971985%, 61.380005%)" offset="0.503906"/><stop stop-opacity="1" stop-color="rgb(86.889648%, 76.200867%, 61.631775%)" offset="0.507812"/><stop stop-opacity="1" stop-color="rgb(87.089539%, 76.429749%, 61.882019%)" offset="0.511719"/><stop stop-opacity="1" stop-color="rgb(87.289429%, 76.65863%, 62.133789%)" offset="0.515625"/><stop stop-opacity="1" stop-color="rgb(87.237549%, 76.567078%, 61.978149%)" offset="0.53125"/><stop stop-opacity="1" stop-color="rgb(87.081909%, 76.330566%, 61.628723%)" offset="0.539063"/><stop stop-opacity="1" stop-color="rgb(86.869812%, 76.042175%, 61.238098%)" offset="0.546875"/><stop stop-opacity="1" stop-color="rgb(86.657715%, 75.753784%, 60.847473%)" offset="0.554688"/><stop stop-opacity="1" stop-color="rgb(86.447144%, 75.465393%, 60.456848%)" offset="0.5625"/><stop stop-opacity="1" stop-color="rgb(86.235046%, 75.178528%, 60.066223%)" offset="0.570313"/><stop stop-opacity="1" stop-color="rgb(86.022949%, 74.890137%, 59.675598%)" offset="0.578125"/><stop stop-opacity="1" stop-color="rgb(85.812378%, 74.601746%, 59.284973%)" offset="0.585938"/><stop stop-opacity="1" stop-color="rgb(85.600281%, 74.313354%, 58.894348%)" offset="0.59375"/><stop stop-opacity="1" stop-color="rgb(85.388184%, 74.024963%, 58.503723%)" offset="0.601562"/><stop stop-opacity="1" stop-color="rgb(85.177612%, 73.738098%, 58.113098%)" offset="0.609375"/><stop stop-opacity="1" stop-color="rgb(84.965515%, 73.449707%, 57.722473%)" offset="0.617187"/><stop stop-opacity="1" stop-color="rgb(84.753418%, 73.161316%, 57.331848%)" offset="0.625"/><stop stop-opacity="1" stop-color="rgb(84.542847%, 72.872925%, 56.941223%)" offset="0.632812"/><stop stop-opacity="1" stop-color="rgb(84.33075%, 72.584534%, 56.550598%)" offset="0.640625"/><stop stop-opacity="1" stop-color="rgb(84.118652%, 72.297668%, 56.159973%)" offset="0.648437"/><stop stop-opacity="1" stop-color="rgb(83.908081%, 72.009277%, 55.769348%)" offset="0.65625"/><stop stop-opacity="1" stop-color="rgb(83.695984%, 71.720886%, 55.378723%)" offset="0.664062"/><stop stop-opacity="1" stop-color="rgb(83.483887%, 71.432495%, 54.988098%)" offset="0.671875"/><stop stop-opacity="1" stop-color="rgb(83.273315%, 71.144104%, 54.597473%)" offset="0.679688"/><stop stop-opacity="1" stop-color="rgb(83.061218%, 70.857239%, 54.206848%)" offset="0.6875"/><stop stop-opacity="1" stop-color="rgb(82.849121%, 70.568848%, 53.816223%)" offset="0.695312"/><stop stop-opacity="1" stop-color="rgb(82.63855%, 70.280457%, 53.425598%)" offset="0.703125"/><stop stop-opacity="1" stop-color="rgb(82.426453%, 69.992065%, 53.034973%)" offset="0.710938"/><stop stop-opacity="1" stop-color="rgb(82.214355%, 69.703674%, 52.644348%)" offset="0.71875"/><stop stop-opacity="1" stop-color="rgb(82.003784%, 69.416809%, 52.253723%)" offset="0.726563"/><stop stop-opacity="1" stop-color="rgb(81.791687%, 69.128418%, 51.863098%)" offset="0.734375"/><stop stop-opacity="1" stop-color="rgb(81.57959%, 68.840027%, 51.472473%)" offset="0.742188"/><stop stop-opacity="1" stop-color="rgb(81.369019%, 68.551636%, 51.081848%)" offset="0.75"/><stop stop-opacity="1" stop-color="rgb(81.156921%, 68.263245%, 50.691223%)" offset="0.757813"/><stop stop-opacity="1" stop-color="rgb(80.944824%, 67.976379%, 50.300598%)" offset="0.765625"/><stop stop-opacity="1" stop-color="rgb(80.734253%, 67.687988%, 49.909973%)" offset="0.773438"/><stop stop-opacity="1" stop-color="rgb(80.522156%, 67.399597%, 49.519348%)" offset="0.78125"/><stop stop-opacity="1" stop-color="rgb(80.310059%, 67.111206%, 49.128723%)" offset="0.789063"/><stop stop-opacity="1" stop-color="rgb(80.099487%, 66.822815%, 48.738098%)" offset="0.796875"/><stop stop-opacity="1" stop-color="rgb(79.88739%, 66.53595%, 48.347473%)" offset="0.804687"/><stop stop-opacity="1" stop-color="rgb(79.675293%, 66.247559%, 47.956848%)" offset="0.8125"/><stop stop-opacity="1" stop-color="rgb(79.464722%, 65.959167%, 47.566223%)" offset="0.820312"/><stop stop-opacity="1" stop-color="rgb(79.252625%, 65.670776%, 47.175598%)" offset="0.828125"/><stop stop-opacity="1" stop-color="rgb(79.040527%, 65.382385%, 46.784973%)" offset="0.835937"/><stop stop-opacity="1" stop-color="rgb(78.829956%, 65.093994%, 46.394348%)" offset="0.84375"/><stop stop-opacity="1" stop-color="rgb(78.617859%, 64.807129%, 46.003723%)" offset="0.851562"/><stop stop-opacity="1" stop-color="rgb(78.405762%, 64.518738%, 45.613098%)" offset="0.859375"/><stop stop-opacity="1" stop-color="rgb(78.193665%, 64.230347%, 45.222473%)" offset="0.867188"/><stop stop-opacity="1" stop-color="rgb(77.983093%, 63.941956%, 44.831848%)" offset="0.875"/><stop stop-opacity="1" stop-color="rgb(77.770996%, 63.653564%, 44.441223%)" offset="0.882812"/><stop stop-opacity="1" stop-color="rgb(77.558899%, 63.366699%, 44.050598%)" offset="0.890625"/><stop stop-opacity="1" stop-color="rgb(77.348328%, 63.078308%, 43.659973%)" offset="0.898438"/><stop stop-opacity="1" stop-color="rgb(77.13623%, 62.789917%, 43.269348%)" offset="0.90625"/><stop stop-opacity="1" stop-color="rgb(76.924133%, 62.501526%, 42.878723%)" offset="0.914063"/><stop stop-opacity="1" stop-color="rgb(76.713562%, 62.213135%, 42.488098%)" offset="0.921875"/><stop stop-opacity="1" stop-color="rgb(76.501465%, 61.92627%, 42.097473%)" offset="0.929688"/><stop stop-opacity="1" stop-color="rgb(76.289368%, 61.637878%, 41.706848%)" offset="0.9375"/><stop stop-opacity="1" stop-color="rgb(76.078796%, 61.349487%, 41.316223%)" offset="0.945313"/><stop stop-opacity="1" stop-color="rgb(75.866699%, 61.061096%, 40.925598%)" offset="0.953125"/><stop stop-opacity="1" stop-color="rgb(75.654602%, 60.772705%, 40.534973%)" offset="0.960938"/><stop stop-opacity="1" stop-color="rgb(75.444031%, 60.48584%, 40.144348%)" offset="0.96875"/><stop stop-opacity="1" stop-color="rgb(75.231934%, 60.197449%, 39.753723%)" offset="0.976563"/><stop stop-opacity="1" stop-color="rgb(75.019836%, 59.909058%, 39.363098%)" offset="0.984375"/><stop stop-opacity="1" stop-color="rgb(74.809265%, 59.620667%, 38.972473%)" offset="0.992188"/><stop stop-opacity="1" stop-color="rgb(74.601746%, 59.338379%, 38.587952%)" offset="1"/></linearGradient></defs><g clip-path="url(#ae0bc08c2c)"><g clip-path="url(#28a0859de7)"><path fill="url(#1c290b0d86)" d="M 5.953125 231.222656 L 5.953125 347.632812 L 88.769531 347.632812 L 88.769531 231.222656 Z M 5.953125 231.222656 " fill-rule="nonzero"/></g></g><g fill="#2e394b" fill-opacity="1"><g transform="translate(0.73322, 214.317964)"><g><path d="M 55.09375 -37.921875 C 55.09375 -32.984375 55.113281 -28.535156 55.15625 -24.578125 C 55.195312 -20.628906 55.257812 -17.046875 55.34375 -13.828125 C 55.414062 -11.273438 56.484375 -9.671875 58.546875 -9.015625 L 72.265625 -4.9375 L 72.625 0.375 C 62.832031 0.125 53.035156 0 43.234375 0 C 33.265625 0 23.050781 0.125 12.59375 0.375 L 12.109375 -4.9375 L 27.296875 -9.515625 C 29.359375 -10.085938 30.472656 -11.363281 30.640625 -13.34375 C 30.710938 -16.632812 30.769531 -20.316406 30.8125 -24.390625 C 30.851562 -28.472656 30.875 -32.984375 30.875 -37.921875 L 30.875 -138.09375 C 30.875 -142.289062 30.851562 -146.078125 30.8125 -149.453125 C 30.769531 -152.828125 30.710938 -155.875 30.640625 -158.59375 C 30.554688 -160.738281 29.566406 -162.140625 27.671875 -162.796875 L 12.359375 -167.609375 L 12.109375 -172.921875 C 22.722656 -172.597656 33.054688 -172.4375 43.109375 -172.4375 C 45.085938 -172.4375 47.597656 -172.492188 50.640625 -172.609375 C 53.691406 -172.734375 57.398438 -172.878906 61.765625 -173.046875 C 66.210938 -173.210938 69.914062 -173.335938 72.875 -173.421875 C 75.84375 -173.503906 78.191406 -173.546875 79.921875 -173.546875 C 98.691406 -173.546875 112.769531 -170.003906 122.15625 -162.921875 C 131.550781 -155.835938 136.25 -145.503906 136.25 -131.921875 C 136.25 -119.648438 133.035156 -109.703125 126.609375 -102.078125 C 120.179688 -94.460938 110.378906 -88.597656 97.203125 -84.484375 C 102.390625 -76.578125 107.164062 -68.9375 111.53125 -61.5625 C 115.894531 -54.195312 119.953125 -47.445312 123.703125 -41.3125 C 127.453125 -35.175781 130.890625 -29.757812 134.015625 -25.0625 C 137.148438 -20.375 140.070312 -16.671875 142.78125 -13.953125 C 144.1875 -12.554688 145.585938 -11.34375 146.984375 -10.3125 C 148.390625 -9.28125 149.851562 -8.4375 151.375 -7.78125 C 152.894531 -7.125 154.5 -6.546875 156.1875 -6.046875 C 157.875 -5.554688 159.75 -5.0625 161.8125 -4.5625 L 162.1875 0.859375 C 156.25 1.597656 151.265625 1.96875 147.234375 1.96875 C 143.859375 1.96875 140.894531 1.882812 138.34375 1.71875 C 135.789062 1.5625 133.523438 1.234375 131.546875 0.734375 C 129.566406 0.242188 127.773438 -0.390625 126.171875 -1.171875 C 124.566406 -1.953125 122.984375 -2.960938 121.421875 -4.203125 C 118.046875 -6.753906 114.726562 -10.4375 111.46875 -15.25 C 108.21875 -20.070312 104.84375 -25.53125 101.34375 -31.625 C 97.84375 -37.71875 94.195312 -44.203125 90.40625 -51.078125 C 86.625 -57.953125 82.632812 -64.679688 78.4375 -71.265625 C 77.195312 -73.242188 76.144531 -74.804688 75.28125 -75.953125 C 74.414062 -77.109375 73.46875 -78.015625 72.4375 -78.671875 C 71.414062 -79.335938 70.222656 -79.789062 68.859375 -80.03125 C 67.503906 -80.28125 65.753906 -80.445312 63.609375 -80.53125 L 55.09375 -80.78125 Z M 55.09375 -90.046875 C 60.113281 -89.796875 64.765625 -89.671875 69.046875 -89.671875 C 83.296875 -89.671875 93.734375 -92.695312 100.359375 -98.75 C 106.984375 -104.800781 110.296875 -114.289062 110.296875 -127.21875 C 110.296875 -139.738281 107.125 -148.878906 100.78125 -154.640625 C 94.445312 -160.410156 84.53125 -163.296875 71.03125 -163.296875 C 68.71875 -163.296875 66.242188 -163.210938 63.609375 -163.046875 C 60.972656 -162.878906 58.132812 -162.632812 55.09375 -162.3125 Z M 55.09375 -90.046875 "/></g></g></g><g fill="#2e394b" fill-opacity="1"><g transform="translate(73.394168, 400.918602)"><g><path d="M 12.109375 -172.921875 C 22.722656 -172.597656 33.054688 -172.4375 43.109375 -172.4375 C 46.898438 -172.601562 53.035156 -172.847656 61.515625 -173.171875 C 69.992188 -173.503906 75.71875 -173.671875 78.6875 -173.671875 C 96.46875 -173.671875 109.90625 -170.3125 119 -163.59375 C 128.101562 -156.882812 132.65625 -147.234375 132.65625 -134.640625 C 132.65625 -114.378906 121.742188 -100.582031 99.921875 -93.25 C 112.691406 -91.113281 122.71875 -86.378906 130 -79.046875 C 137.289062 -71.722656 140.9375 -62.378906 140.9375 -51.015625 C 140.9375 -34.546875 134.960938 -21.800781 123.015625 -12.78125 C 111.078125 -3.769531 94.53125 0.734375 73.375 0.734375 C 69.175781 0.734375 64.625 0.609375 59.71875 0.359375 C 54.820312 0.117188 49.328125 0 43.234375 0 C 33.265625 0 23.050781 0.125 12.59375 0.375 L 12.109375 -4.9375 L 27.296875 -9.515625 C 29.359375 -10.085938 30.472656 -11.363281 30.640625 -13.34375 C 30.710938 -16.632812 30.769531 -20.316406 30.8125 -24.390625 C 30.851562 -28.472656 30.875 -32.984375 30.875 -37.921875 L 30.875 -138.09375 C 30.875 -142.289062 30.851562 -146.078125 30.8125 -149.453125 C 30.769531 -152.828125 30.710938 -155.875 30.640625 -158.59375 C 30.554688 -160.738281 29.566406 -162.140625 27.671875 -162.796875 L 12.359375 -167.609375 Z M 54.84375 -85.96875 L 54.84375 -11 C 57.3125 -10.09375 60.171875 -9.515625 63.421875 -9.265625 C 66.679688 -9.015625 69.664062 -8.890625 72.375 -8.890625 C 86.050781 -8.890625 96.445312 -12.265625 103.5625 -19.015625 C 110.6875 -25.773438 114.25 -35.578125 114.25 -48.421875 C 114.25 -61.265625 110.644531 -70.796875 103.4375 -77.015625 C 96.238281 -83.234375 84.609375 -86.34375 68.546875 -86.34375 C 63.859375 -86.34375 59.289062 -86.21875 54.84375 -85.96875 Z M 54.84375 -95.84375 C 59.945312 -95.769531 65.132812 -95.734375 70.40625 -95.734375 C 82.59375 -95.734375 91.796875 -98.675781 98.015625 -104.5625 C 104.234375 -110.445312 107.34375 -118.988281 107.34375 -130.1875 C 107.34375 -141.96875 104.148438 -150.429688 97.765625 -155.578125 C 91.378906 -160.722656 82.175781 -163.296875 70.15625 -163.296875 C 68.019531 -163.296875 65.675781 -163.234375 63.125 -163.109375 C 60.570312 -162.984375 57.8125 -162.753906 54.84375 -162.421875 Z M 54.84375 -95.84375 "/></g></g></g><g clip-path="url(#8519b9f0ee)"><g clip-path="url(#163dff87f7)"><path fill="url(#9e5c2eaefb)" d="M 121.253906 130.875 L 121.253906 250.253906 L 220.4375 250.253906 L 220.4375 130.875 Z M 121.253906 130.875 " fill-rule="nonzero"/></g></g><g fill="#2e394b" fill-opacity="1"><g transform="translate(282.772373, 293.883253)"><g><path d="M 30.15625 -20.765625 C 30.15625 -18.054688 30.164062 -15.617188 30.1875 -13.453125 C 30.21875 -11.296875 30.253906 -9.335938 30.296875 -7.578125 C 30.335938 -6.179688 30.925781 -5.300781 32.0625 -4.9375 L 39.5625 -2.703125 L 39.765625 0.203125 C 34.398438 0.0664062 29.035156 0 23.671875 0 C 18.210938 0 12.617188 0.0664062 6.890625 0.203125 L 6.625 -2.703125 L 14.953125 -5.203125 C 16.078125 -5.523438 16.679688 -6.222656 16.765625 -7.296875 C 16.816406 -9.109375 16.851562 -11.128906 16.875 -13.359375 C 16.894531 -15.585938 16.90625 -18.054688 16.90625 -20.765625 L 16.90625 -75.609375 C 16.90625 -77.910156 16.894531 -79.984375 16.875 -81.828125 C 16.851562 -83.671875 16.816406 -85.335938 16.765625 -86.828125 C 16.722656 -88.003906 16.1875 -88.769531 15.15625 -89.125 L 6.765625 -91.765625 L 6.625 -94.671875 C 12.4375 -94.492188 18.097656 -94.40625 23.609375 -94.40625 C 24.679688 -94.40625 26.050781 -94.4375 27.71875 -94.5 C 29.394531 -94.570312 31.425781 -94.65625 33.8125 -94.75 C 36.25 -94.832031 38.273438 -94.894531 39.890625 -94.9375 C 41.515625 -94.988281 42.800781 -95.015625 43.75 -95.015625 C 54.03125 -95.015625 61.738281 -93.078125 66.875 -89.203125 C 72.019531 -85.328125 74.59375 -79.664062 74.59375 -72.21875 C 74.59375 -65.507812 72.832031 -60.066406 69.3125 -55.890625 C 65.800781 -51.722656 60.4375 -48.507812 53.21875 -46.25 C 56.0625 -41.925781 58.675781 -37.742188 61.0625 -33.703125 C 63.457031 -29.671875 65.679688 -25.972656 67.734375 -22.609375 C 69.785156 -19.253906 71.664062 -16.289062 73.375 -13.71875 C 75.082031 -11.15625 76.679688 -9.128906 78.171875 -7.640625 C 78.941406 -6.878906 79.707031 -6.210938 80.46875 -5.640625 C 81.238281 -5.078125 82.039062 -4.613281 82.875 -4.25 C 83.707031 -3.894531 84.585938 -3.582031 85.515625 -3.3125 C 86.441406 -3.039062 87.46875 -2.769531 88.59375 -2.5 L 88.796875 0.46875 C 85.546875 0.875 82.816406 1.078125 80.609375 1.078125 C 78.765625 1.078125 77.140625 1.03125 75.734375 0.9375 C 74.335938 0.851562 73.097656 0.675781 72.015625 0.40625 C 70.941406 0.132812 69.960938 -0.210938 69.078125 -0.640625 C 68.203125 -1.066406 67.335938 -1.617188 66.484375 -2.296875 C 64.628906 -3.691406 62.8125 -5.707031 61.03125 -8.34375 C 59.25 -10.988281 57.398438 -13.976562 55.484375 -17.3125 C 53.566406 -20.644531 51.570312 -24.191406 49.5 -27.953125 C 47.425781 -31.722656 45.238281 -35.410156 42.9375 -39.015625 C 42.257812 -40.097656 41.6875 -40.953125 41.21875 -41.578125 C 40.75 -42.210938 40.226562 -42.710938 39.65625 -43.078125 C 39.09375 -43.441406 38.441406 -43.691406 37.703125 -43.828125 C 36.960938 -43.960938 36.003906 -44.050781 34.828125 -44.09375 L 30.15625 -44.234375 Z M 30.15625 -49.296875 C 32.90625 -49.160156 35.453125 -49.09375 37.796875 -49.09375 C 45.597656 -49.09375 51.3125 -50.75 54.9375 -54.0625 C 58.570312 -57.375 60.390625 -62.570312 60.390625 -69.65625 C 60.390625 -76.507812 58.648438 -81.515625 55.171875 -84.671875 C 51.703125 -87.828125 46.273438 -89.40625 38.890625 -89.40625 C 37.617188 -89.40625 36.257812 -89.359375 34.8125 -89.265625 C 33.375 -89.171875 31.820312 -89.035156 30.15625 -88.859375 Z M 30.15625 -49.296875 "/></g></g></g><g fill="#2e394b" fill-opacity="1"><g transform="translate(370.342033, 293.883253)"><g><path d="M 23.40625 -94.40625 L 39.828125 -94.40625 C 49.929688 -94.40625 60.59375 -94.492188 71.8125 -94.671875 L 72.21875 -94.140625 L 68.296875 -73.234375 L 65.59375 -72.765625 L 61.40625 -88.390625 L 30.15625 -88.390625 L 30.15625 -51.1875 L 36.3125 -51.1875 C 41 -51.1875 46.226562 -51.234375 52 -51.328125 C 53.175781 -51.367188 53.941406 -51.957031 54.296875 -53.09375 L 56.671875 -62.21875 L 60.328125 -62.359375 C 60.191406 -56.046875 60.125 -51.378906 60.125 -48.359375 C 60.125 -45.421875 60.191406 -40.820312 60.328125 -34.5625 L 56.671875 -34.28125 L 54.234375 -43.546875 C 53.878906 -44.722656 53.179688 -45.332031 52.140625 -45.375 C 46.273438 -45.46875 40.976562 -45.515625 36.25 -45.515625 L 30.15625 -45.515625 L 30.15625 -20.890625 C 30.15625 -15.890625 30.203125 -10.957031 30.296875 -6.09375 L 62.765625 -6.09375 L 71.015625 -23.265625 L 74.046875 -23.8125 L 72.5625 -0.265625 L 72.09375 0.203125 C 60.414062 0.0664062 49.640625 0 39.765625 0 L 23.671875 0 C 18.210938 0 12.617188 0.0664062 6.890625 0.203125 L 6.625 -2.703125 L 14.953125 -5.203125 C 16.078125 -5.523438 16.679688 -6.222656 16.765625 -7.296875 C 16.816406 -9.109375 16.851562 -11.128906 16.875 -13.359375 C 16.894531 -15.585938 16.90625 -18.054688 16.90625 -20.765625 L 16.90625 -75.609375 C 16.90625 -77.910156 16.894531 -79.984375 16.875 -81.828125 C 16.851562 -83.671875 16.816406 -85.335938 16.765625 -86.828125 C 16.722656 -88.003906 16.1875 -88.769531 15.15625 -89.125 L 6.765625 -91.765625 L 6.625 -94.671875 C 12.4375 -94.492188 18.03125 -94.40625 23.40625 -94.40625 Z M 23.40625 -94.40625 "/></g></g></g><g fill="#2e394b" fill-opacity="1"><g transform="translate(450.898186, 293.883253)"><g><path d="M 50.984375 -96.09375 L 81.015625 -13.390625 C 82.140625 -10.273438 83.164062 -8.164062 84.09375 -7.0625 C 85.019531 -5.957031 86.335938 -5.132812 88.046875 -4.59375 L 94.40625 -2.703125 L 94.546875 0.203125 C 88.640625 0.0664062 83.160156 0 78.109375 0 C 72.972656 0 66.910156 0.0664062 59.921875 0.203125 L 59.640625 -2.703125 L 66.078125 -4.59375 C 66.972656 -4.914062 67.613281 -5.265625 68 -5.640625 C 68.382812 -6.023438 68.578125 -6.625 68.578125 -7.4375 C 68.578125 -8.34375 68.335938 -9.523438 67.859375 -10.984375 C 67.390625 -12.453125 66.726562 -14.40625 65.875 -16.84375 L 59.515625 -34.96875 L 26.921875 -34.96875 L 19.8125 -16.90625 C 18.863281 -14.382812 18.117188 -12.378906 17.578125 -10.890625 C 17.035156 -9.398438 16.765625 -8.226562 16.765625 -7.375 C 16.765625 -6.601562 16.976562 -6.023438 17.40625 -5.640625 C 17.84375 -5.265625 18.488281 -4.941406 19.34375 -4.671875 L 25.625 -2.84375 L 25.765625 0.203125 C 19.359375 0.0664062 14.128906 0 10.078125 0 C 6.015625 0 1.484375 0.0664062 -3.515625 0.203125 L -3.859375 -2.703125 L 2.96875 -4.796875 C 4.6875 -5.335938 5.953125 -6.171875 6.765625 -7.296875 C 7.578125 -8.429688 8.476562 -10.191406 9.46875 -12.578125 L 44.03125 -95.078125 Z M 29.421875 -41.125 L 57.28125 -41.125 L 44.09375 -78.375 Z M 29.421875 -41.125 "/></g></g></g><g fill="#2e394b" fill-opacity="1"><g transform="translate(545.112122, 293.883253)"><g><path d="M 30.15625 -75.875 L 30.15625 -20.890625 C 30.15625 -15.890625 30.203125 -10.957031 30.296875 -6.09375 L 63.234375 -6.09375 L 71.890625 -24 L 74.9375 -24.484375 L 73.4375 -0.265625 L 73.03125 0.203125 C 61.351562 0.0664062 50.554688 0 40.640625 0 L 23.671875 0 C 18.210938 0 12.617188 0.0664062 6.890625 0.203125 L 6.625 -2.703125 L 14.953125 -5.203125 C 16.078125 -5.523438 16.679688 -6.222656 16.765625 -7.296875 C 16.816406 -9.109375 16.851562 -11.128906 16.875 -13.359375 C 16.894531 -15.585938 16.90625 -18.054688 16.90625 -20.765625 L 16.90625 -75.609375 C 16.90625 -77.910156 16.894531 -79.984375 16.875 -81.828125 C 16.851562 -83.671875 16.816406 -85.335938 16.765625 -86.828125 C 16.722656 -88.003906 16.1875 -88.769531 15.15625 -89.125 L 6.765625 -91.765625 L 6.625 -94.671875 C 12.4375 -94.492188 18.03125 -94.40625 23.40625 -94.40625 C 28.8125 -94.40625 34.398438 -94.492188 40.171875 -94.671875 L 40.4375 -91.765625 L 32.0625 -89.265625 C 30.976562 -88.992188 30.390625 -88.296875 30.296875 -87.171875 C 30.253906 -85.585938 30.21875 -83.285156 30.1875 -80.265625 C 30.164062 -77.253906 30.15625 -75.789062 30.15625 -75.875 Z M 30.15625 -75.875 "/></g></g></g><g fill="#2e394b" fill-opacity="1"><g transform="translate(654.902529, 293.883253)"><g><path d="M 21.578125 -48.484375 C 21.578125 -33.785156 24.550781 -22.523438 30.5 -14.703125 C 36.445312 -6.878906 45.171875 -2.96875 56.671875 -2.96875 C 67.984375 -2.96875 76.332031 -6.519531 81.71875 -13.625 C 87.113281 -20.726562 89.8125 -31.875 89.8125 -47.0625 C 89.8125 -61.3125 86.945312 -72.269531 81.21875 -79.9375 C 75.488281 -87.601562 66.648438 -91.4375 54.703125 -91.4375 C 43.117188 -91.4375 34.703125 -87.882812 29.453125 -80.78125 C 24.203125 -73.675781 21.578125 -62.910156 21.578125 -48.484375 Z M 104.6875 -49.375 C 104.6875 -33.769531 100.253906 -21.222656 91.390625 -11.734375 C 82.535156 -2.242188 70.148438 2.5 54.234375 2.5 C 39.128906 2.5 27.441406 -1.882812 19.171875 -10.65625 C 10.898438 -19.425781 6.765625 -31.289062 6.765625 -46.25 C 6.765625 -61.851562 11.210938 -74.195312 20.109375 -83.28125 C 29.015625 -92.363281 41.359375 -96.90625 57.140625 -96.90625 C 72.296875 -96.90625 84.007812 -92.65625 92.28125 -84.15625 C 100.550781 -75.664062 104.6875 -64.070312 104.6875 -49.375 Z M 104.6875 -49.375 "/></g></g></g><g fill="#2e394b" fill-opacity="1"><g transform="translate(767.306721, 293.883253)"><g><path d="M 30.15625 -45.71875 C 33.3125 -45.175781 36.425781 -44.90625 39.5 -44.90625 C 46.707031 -44.90625 52.191406 -46.765625 55.953125 -50.484375 C 59.722656 -54.203125 61.609375 -59.894531 61.609375 -67.5625 C 61.609375 -74.90625 59.816406 -80.378906 56.234375 -83.984375 C 52.648438 -87.597656 47.003906 -89.40625 39.296875 -89.40625 C 36.273438 -89.40625 33.226562 -89.222656 30.15625 -88.859375 Z M 30.15625 -20.765625 C 30.15625 -18.054688 30.164062 -15.617188 30.1875 -13.453125 C 30.21875 -11.296875 30.253906 -9.359375 30.296875 -7.640625 C 30.335938 -6.609375 30.925781 -5.910156 32.0625 -5.546875 L 41.390625 -2.703125 L 41.515625 0.203125 C 34.984375 0.0664062 29.035156 0 23.671875 0 C 18.210938 0 12.617188 0.0664062 6.890625 0.203125 L 6.625 -2.703125 L 14.953125 -5.203125 C 16.117188 -5.566406 16.722656 -6.265625 16.765625 -7.296875 C 16.816406 -9.109375 16.851562 -11.128906 16.875 -13.359375 C 16.894531 -15.585938 16.90625 -18.054688 16.90625 -20.765625 L 16.90625 -75.609375 C 16.90625 -77.910156 16.894531 -79.984375 16.875 -81.828125 C 16.851562 -83.671875 16.816406 -85.335938 16.765625 -86.828125 C 16.722656 -88.003906 16.1875 -88.769531 15.15625 -89.125 L 6.765625 -91.765625 L 6.625 -94.671875 C 12.4375 -94.492188 18.097656 -94.40625 23.609375 -94.40625 C 27.296875 -94.40625 30.863281 -94.492188 34.3125 -94.671875 C 37.769531 -94.859375 40.914062 -94.953125 43.75 -94.953125 C 54.34375 -94.953125 62.351562 -92.863281 67.78125 -88.6875 C 73.21875 -84.519531 75.9375 -78.3125 75.9375 -70.0625 C 75.9375 -60.363281 72.800781 -52.832031 66.53125 -47.46875 C 60.269531 -42.101562 51.484375 -39.421875 40.171875 -39.421875 C 37.054688 -39.421875 33.71875 -39.625 30.15625 -40.03125 Z M 30.15625 -20.765625 "/></g></g></g><g fill="#2e394b" fill-opacity="1"><g transform="translate(845.53856, 293.883253)"><g><path d="M 23.40625 -94.40625 L 39.828125 -94.40625 C 49.929688 -94.40625 60.59375 -94.492188 71.8125 -94.671875 L 72.21875 -94.140625 L 68.296875 -73.234375 L 65.59375 -72.765625 L 61.40625 -88.390625 L 30.15625 -88.390625 L 30.15625 -51.1875 L 36.3125 -51.1875 C 41 -51.1875 46.226562 -51.234375 52 -51.328125 C 53.175781 -51.367188 53.941406 -51.957031 54.296875 -53.09375 L 56.671875 -62.21875 L 60.328125 -62.359375 C 60.191406 -56.046875 60.125 -51.378906 60.125 -48.359375 C 60.125 -45.421875 60.191406 -40.820312 60.328125 -34.5625 L 56.671875 -34.28125 L 54.234375 -43.546875 C 53.878906 -44.722656 53.179688 -45.332031 52.140625 -45.375 C 46.273438 -45.46875 40.976562 -45.515625 36.25 -45.515625 L 30.15625 -45.515625 L 30.15625 -20.890625 C 30.15625 -15.890625 30.203125 -10.957031 30.296875 -6.09375 L 62.765625 -6.09375 L 71.015625 -23.265625 L 74.046875 -23.8125 L 72.5625 -0.265625 L 72.09375 0.203125 C 60.414062 0.0664062 49.640625 0 39.765625 0 L 23.671875 0 C 18.210938 0 12.617188 0.0664062 6.890625 0.203125 L 6.625 -2.703125 L 14.953125 -5.203125 C 16.078125 -5.523438 16.679688 -6.222656 16.765625 -7.296875 C 16.816406 -9.109375 16.851562 -11.128906 16.875 -13.359375 C 16.894531 -15.585938 16.90625 -18.054688 16.90625 -20.765625 L 16.90625 -75.609375 C 16.90625 -77.910156 16.894531 -79.984375 16.875 -81.828125 C 16.851562 -83.671875 16.816406 -85.335938 16.765625 -86.828125 C 16.722656 -88.003906 16.1875 -88.769531 15.15625 -89.125 L 6.765625 -91.765625 L 6.625 -94.671875 C 12.4375 -94.492188 18.03125 -94.40625 23.40625 -94.40625 Z M 23.40625 -94.40625 "/></g></g></g><g fill="#2e394b" fill-opacity="1"><g transform="translate(926.044925, 293.883253)"><g><path d="M 23.0625 -75.40625 L 23.0625 -20.765625 C 23.0625 -15.441406 23.109375 -11.019531 23.203125 -7.5 C 23.242188 -6.238281 23.804688 -5.472656 24.890625 -5.203125 L 32.9375 -2.84375 L 33.0625 0.203125 C 27.425781 0.0664062 22.804688 0 19.203125 0 C 15.691406 0 11.023438 0.0664062 5.203125 0.203125 L 4.9375 -2.703125 L 13.25 -5.203125 C 14.425781 -5.566406 15.035156 -6.265625 15.078125 -7.296875 C 15.171875 -10.953125 15.21875 -15.441406 15.21875 -20.765625 L 15.21875 -75.609375 C 15.21875 -80.117188 15.171875 -83.859375 15.078125 -86.828125 C 15.035156 -88.003906 14.492188 -88.769531 13.453125 -89.125 L 5.078125 -91.765625 L 4.9375 -94.671875 C 10.75 -94.492188 15.347656 -94.40625 18.734375 -94.40625 C 20.765625 -94.40625 22.816406 -94.492188 24.890625 -94.671875 L 81.6875 -23.734375 L 81.6875 -75.875 C 81.6875 -80.25 81.644531 -84.015625 81.5625 -87.171875 C 81.507812 -88.210938 80.921875 -88.910156 79.796875 -89.265625 L 71.8125 -91.5625 L 71.6875 -94.671875 C 77.457031 -94.492188 82.125 -94.40625 85.6875 -94.40625 C 89.289062 -94.40625 93.910156 -94.492188 99.546875 -94.671875 L 99.8125 -91.765625 L 91.296875 -89.125 C 90.253906 -88.769531 89.710938 -88.003906 89.671875 -86.828125 C 89.578125 -83.859375 89.53125 -80.117188 89.53125 -75.609375 L 89.53125 0 L 83.859375 0.546875 Z M 23.0625 -75.40625 "/></g></g></g><g fill="#2e394b" fill-opacity="1"><g transform="translate(1065.449569, 293.883253)"><g><path d="M 6.625 -94.671875 C 12.4375 -94.492188 18.097656 -94.40625 23.609375 -94.40625 C 25.679688 -94.5 29.035156 -94.632812 33.671875 -94.8125 C 38.316406 -94.988281 41.453125 -95.078125 43.078125 -95.078125 C 52.816406 -95.078125 60.175781 -93.238281 65.15625 -89.5625 C 70.132812 -85.894531 72.625 -80.613281 72.625 -73.71875 C 72.625 -62.625 66.648438 -55.070312 54.703125 -51.0625 C 61.691406 -49.882812 67.179688 -47.289062 71.171875 -43.28125 C 75.160156 -39.269531 77.15625 -34.15625 77.15625 -27.9375 C 77.15625 -18.914062 73.882812 -11.9375 67.34375 -7 C 60.8125 -2.0625 51.753906 0.40625 40.171875 0.40625 C 37.867188 0.40625 35.375 0.335938 32.6875 0.203125 C 30.007812 0.0664062 27.003906 0 23.671875 0 C 18.210938 0 12.617188 0.0664062 6.890625 0.203125 L 6.625 -2.703125 L 14.953125 -5.203125 C 16.078125 -5.523438 16.679688 -6.222656 16.765625 -7.296875 C 16.816406 -9.109375 16.851562 -11.128906 16.875 -13.359375 C 16.894531 -15.585938 16.90625 -18.054688 16.90625 -20.765625 L 16.90625 -75.609375 C 16.90625 -77.910156 16.894531 -79.984375 16.875 -81.828125 C 16.851562 -83.671875 16.816406 -85.335938 16.765625 -86.828125 C 16.722656 -88.003906 16.1875 -88.769531 15.15625 -89.125 L 6.765625 -91.765625 Z M 30.03125 -47.0625 L 30.03125 -6.015625 C 31.382812 -5.523438 32.945312 -5.210938 34.71875 -5.078125 C 36.5 -4.941406 38.132812 -4.875 39.625 -4.875 C 47.113281 -4.875 52.804688 -6.71875 56.703125 -10.40625 C 60.609375 -14.101562 62.5625 -19.472656 62.5625 -26.515625 C 62.5625 -33.546875 60.585938 -38.757812 56.640625 -42.15625 C 52.691406 -45.5625 46.320312 -47.265625 37.53125 -47.265625 C 34.957031 -47.265625 32.457031 -47.195312 30.03125 -47.0625 Z M 30.03125 -52.484375 C 32.820312 -52.429688 35.660156 -52.40625 38.546875 -52.40625 C 45.222656 -52.40625 50.257812 -54.015625 53.65625 -57.234375 C 57.0625 -60.460938 58.765625 -65.144531 58.765625 -71.28125 C 58.765625 -77.726562 57.015625 -82.359375 53.515625 -85.171875 C 50.023438 -87.992188 44.988281 -89.40625 38.40625 -89.40625 C 37.238281 -89.40625 35.957031 -89.367188 34.5625 -89.296875 C 33.164062 -89.234375 31.65625 -89.109375 30.03125 -88.921875 Z M 30.03125 -52.484375 "/></g></g></g><g fill="#2e394b" fill-opacity="1"><g transform="translate(1146.704685, 293.883253)"><g><path d="M 50.984375 -96.09375 L 81.015625 -13.390625 C 82.140625 -10.273438 83.164062 -8.164062 84.09375 -7.0625 C 85.019531 -5.957031 86.335938 -5.132812 88.046875 -4.59375 L 94.40625 -2.703125 L 94.546875 0.203125 C 88.640625 0.0664062 83.160156 0 78.109375 0 C 72.972656 0 66.910156 0.0664062 59.921875 0.203125 L 59.640625 -2.703125 L 66.078125 -4.59375 C 66.972656 -4.914062 67.613281 -5.265625 68 -5.640625 C 68.382812 -6.023438 68.578125 -6.625 68.578125 -7.4375 C 68.578125 -8.34375 68.335938 -9.523438 67.859375 -10.984375 C 67.390625 -12.453125 66.726562 -14.40625 65.875 -16.84375 L 59.515625 -34.96875 L 26.921875 -34.96875 L 19.8125 -16.90625 C 18.863281 -14.382812 18.117188 -12.378906 17.578125 -10.890625 C 17.035156 -9.398438 16.765625 -8.226562 16.765625 -7.375 C 16.765625 -6.601562 16.976562 -6.023438 17.40625 -5.640625 C 17.84375 -5.265625 18.488281 -4.941406 19.34375 -4.671875 L 25.625 -2.84375 L 25.765625 0.203125 C 19.359375 0.0664062 14.128906 0 10.078125 0 C 6.015625 0 1.484375 0.0664062 -3.515625 0.203125 L -3.859375 -2.703125 L 2.96875 -4.796875 C 4.6875 -5.335938 5.953125 -6.171875 6.765625 -7.296875 C 7.578125 -8.429688 8.476562 -10.191406 9.46875 -12.578125 L 44.03125 -95.078125 Z M 29.421875 -41.125 L 57.28125 -41.125 L 44.09375 -78.375 Z M 29.421875 -41.125 "/></g></g></g><g fill="#2e394b" fill-opacity="1"><g transform="translate(1240.639135, 293.883253)"><g><path d="M 23.0625 -75.40625 L 23.0625 -20.765625 C 23.0625 -15.441406 23.109375 -11.019531 23.203125 -7.5 C 23.242188 -6.238281 23.804688 -5.472656 24.890625 -5.203125 L 32.9375 -2.84375 L 33.0625 0.203125 C 27.425781 0.0664062 22.804688 0 19.203125 0 C 15.691406 0 11.023438 0.0664062 5.203125 0.203125 L 4.9375 -2.703125 L 13.25 -5.203125 C 14.425781 -5.566406 15.035156 -6.265625 15.078125 -7.296875 C 15.171875 -10.953125 15.21875 -15.441406 15.21875 -20.765625 L 15.21875 -75.609375 C 15.21875 -80.117188 15.171875 -83.859375 15.078125 -86.828125 C 15.035156 -88.003906 14.492188 -88.769531 13.453125 -89.125 L 5.078125 -91.765625 L 4.9375 -94.671875 C 10.75 -94.492188 15.347656 -94.40625 18.734375 -94.40625 C 20.765625 -94.40625 22.816406 -94.492188 24.890625 -94.671875 L 81.6875 -23.734375 L 81.6875 -75.875 C 81.6875 -80.25 81.644531 -84.015625 81.5625 -87.171875 C 81.507812 -88.210938 80.921875 -88.910156 79.796875 -89.265625 L 71.8125 -91.5625 L 71.6875 -94.671875 C 77.457031 -94.492188 82.125 -94.40625 85.6875 -94.40625 C 89.289062 -94.40625 93.910156 -94.492188 99.546875 -94.671875 L 99.8125 -91.765625 L 91.296875 -89.125 C 90.253906 -88.769531 89.710938 -88.003906 89.671875 -86.828125 C 89.578125 -83.859375 89.53125 -80.117188 89.53125 -75.609375 L 89.53125 0 L 83.859375 0.546875 Z M 23.0625 -75.40625 "/></g></g></g><g fill="#2e394b" fill-opacity="1"><g transform="translate(1345.367993, 293.883253)"><g><path d="M 30.15625 -75.875 L 30.15625 -20.765625 C 30.15625 -18.054688 30.164062 -15.597656 30.1875 -13.390625 C 30.21875 -11.179688 30.253906 -9.175781 30.296875 -7.375 C 30.335938 -6.195312 30.925781 -5.429688 32.0625 -5.078125 L 39.5625 -2.703125 L 39.765625 0.203125 C 34.398438 0.0664062 29.035156 0 23.671875 0 C 18.210938 0 12.617188 0.0664062 6.890625 0.203125 L 6.625 -2.703125 L 14.953125 -5.203125 C 16.117188 -5.566406 16.722656 -6.265625 16.765625 -7.296875 C 16.816406 -9.109375 16.851562 -11.128906 16.875 -13.359375 C 16.894531 -15.585938 16.90625 -18.054688 16.90625 -20.765625 L 16.90625 -75.609375 C 16.90625 -77.910156 16.894531 -79.984375 16.875 -81.828125 C 16.851562 -83.671875 16.816406 -85.335938 16.765625 -86.828125 C 16.722656 -88.003906 16.1875 -88.769531 15.15625 -89.125 L 6.765625 -91.765625 L 6.625 -94.671875 C 12.4375 -94.492188 18.03125 -94.40625 23.40625 -94.40625 C 28.769531 -94.40625 34.109375 -94.492188 39.421875 -94.671875 L 39.765625 -91.765625 L 32.0625 -89.40625 C 30.976562 -89.132812 30.390625 -88.4375 30.296875 -87.3125 C 30.253906 -85.6875 30.21875 -83.925781 30.1875 -82.03125 C 30.164062 -80.132812 30.15625 -78.082031 30.15625 -75.875 Z M 31.921875 -47.875 L 59.171875 -78.25 C 61.296875 -80.632812 63.007812 -82.648438 64.3125 -84.296875 C 65.625 -85.941406 66.28125 -87.257812 66.28125 -88.25 C 66.28125 -89.15625 65.671875 -89.765625 64.453125 -90.078125 L 58.90625 -91.5625 L 58.765625 -94.671875 C 63.234375 -94.492188 68.21875 -94.40625 73.71875 -94.40625 C 78.988281 -94.40625 83.945312 -94.492188 88.59375 -94.671875 L 88.859375 -91.765625 L 82.03125 -89.609375 C 79.957031 -88.929688 78.164062 -87.894531 76.65625 -86.5 C 75.144531 -85.101562 73.53125 -83.457031 71.8125 -81.5625 L 44.765625 -51.796875 L 75.546875 -11.21875 C 76.847656 -9.507812 78.128906 -8.125 79.390625 -7.0625 C 80.648438 -6.007812 82.296875 -5.1875 84.328125 -4.59375 L 90.484375 -2.703125 L 90.625 0.203125 C 86.832031 0.0664062 82.03125 0 76.21875 0 C 74.6875 0 73.128906 0.0078125 71.546875 0.03125 C 69.972656 0.0507812 68.394531 0.0859375 66.8125 0.140625 C 65.238281 -3.109375 61.066406 -9.21875 54.296875 -18.1875 Z M 31.921875 -47.875 "/></g></g></g><g fill="#2e394b" fill-opacity="1"><g transform="translate(349.136084, 396.510163)"><g><path d="M 2.796875 -12.070312 C 3.683594 -5.71875 8.066406 0.570312 19.1875 0.570312 C 29.667969 0.570312 34.6875 -5.082031 34.6875 -11.878906 C 34.6875 -17.34375 32.652344 -22.296875 20.140625 -25.410156 C 12.132812 -27.382812 9.402344 -29.160156 9.402344 -33.734375 C 9.402344 -38.371094 12.707031 -41.101562 18.613281 -41.101562 C 25.347656 -41.101562 28.207031 -37.738281 29.097656 -33.351562 L 33.734375 -33.351562 C 33.164062 -38.945312 28.96875 -44.980469 18.804688 -44.980469 C 9.148438 -44.980469 4.636719 -39.515625 4.636719 -33.351562 C 4.636719 -27.0625 8.511719 -23.761719 18.359375 -21.347656 C 27.699219 -19.058594 29.921875 -16.199219 29.921875 -11.433594 C 29.921875 -6.925781 27 -3.238281 19.375 -3.238281 C 12.515625 -3.238281 8.703125 -6.417969 7.433594 -12.070312 Z M 2.796875 -12.070312 "/></g></g></g><g fill="#2e394b" fill-opacity="1"><g transform="translate(386.998098, 396.510163)"><g><path d="M 15.054688 0 L 19.628906 0 L 19.628906 -40.277344 L 34.304688 -40.277344 L 34.304688 -44.34375 L 0.382812 -44.34375 L 0.382812 -40.277344 L 15.054688 -40.277344 Z M 15.054688 0 "/></g></g></g><g fill="#2e394b" fill-opacity="1"><g transform="translate(421.747305, 396.510163)"><g><path d="M 20.648438 -20.140625 C 28.84375 -20.140625 30.875 -17.214844 30.875 -10.417969 L 30.875 -9.339844 C 30.875 -5.398438 30.75 -1.90625 31.574219 0 L 36.019531 0 C 35.257812 -1.714844 35.449219 -5.78125 35.449219 -8.894531 L 35.449219 -10.671875 C 35.449219 -18.296875 32.335938 -21.15625 28.207031 -22.171875 C 32.84375 -23.25 36.210938 -26.871094 36.210938 -32.589844 C 36.210938 -39.515625 31.445312 -44.34375 22.554688 -44.34375 L 6.035156 -44.34375 L 6.035156 0 L 10.546875 0 L 10.546875 -20.140625 Z M 10.546875 -40.339844 L 21.601562 -40.339844 C 28.078125 -40.339844 31.445312 -37.417969 31.445312 -32.335938 C 31.445312 -26.871094 28.144531 -24.140625 20.773438 -24.140625 L 10.546875 -24.140625 Z M 10.546875 -40.339844 "/></g></g></g><g fill="#2e394b" fill-opacity="1"><g transform="translate(462.023339, 396.510163)"><g><path d="M 5.71875 -44.34375 L 5.71875 -17.28125 C 5.71875 -4.066406 13.46875 0.570312 22.425781 0.570312 C 31.765625 0.570312 39.386719 -3.683594 39.386719 -17.789062 L 39.386719 -44.34375 L 34.8125 -44.34375 L 34.8125 -17.535156 C 34.8125 -6.480469 29.667969 -3.367188 22.554688 -3.367188 C 16.582031 -3.367188 10.355469 -6.351562 10.355469 -17.535156 L 10.355469 -44.34375 Z M 5.71875 -44.34375 "/></g></g></g><g fill="#2e394b" fill-opacity="1"><g transform="translate(507.127431, 396.510163)"><g><path d="M 35.703125 -12.132812 C 33.734375 -7.179688 30.367188 -3.367188 23.316406 -3.367188 C 12.453125 -3.367188 8.257812 -13.023438 8.257812 -22.171875 C 8.257812 -31.445312 12.578125 -40.976562 23.0625 -40.976562 C 30.429688 -40.976562 33.925781 -37.292969 35.703125 -31.957031 L 40.277344 -31.957031 C 38.878906 -39.324219 33.226562 -44.980469 23.25 -44.980469 C 10.101562 -44.980469 3.429688 -34.050781 3.429688 -22.042969 C 3.429688 -9.53125 10.164062 0.570312 23.125 0.570312 C 32.78125 0.570312 38.179688 -4.890625 40.214844 -12.132812 Z M 35.703125 -12.132812 "/></g></g></g><g fill="#2e394b" fill-opacity="1"><g transform="translate(550.135122, 396.510163)"><g><path d="M 15.054688 0 L 19.628906 0 L 19.628906 -40.277344 L 34.304688 -40.277344 L 34.304688 -44.34375 L 0.382812 -44.34375 L 0.382812 -40.277344 L 15.054688 -40.277344 Z M 15.054688 0 "/></g></g></g><g fill="#2e394b" fill-opacity="1"><g transform="translate(584.88433, 396.510163)"><g><path d="M 5.71875 -44.34375 L 5.71875 -17.28125 C 5.71875 -4.066406 13.46875 0.570312 22.425781 0.570312 C 31.765625 0.570312 39.386719 -3.683594 39.386719 -17.789062 L 39.386719 -44.34375 L 34.8125 -44.34375 L 34.8125 -17.535156 C 34.8125 -6.480469 29.667969 -3.367188 22.554688 -3.367188 C 16.582031 -3.367188 10.355469 -6.351562 10.355469 -17.535156 L 10.355469 -44.34375 Z M 5.71875 -44.34375 "/></g></g></g><g fill="#2e394b" fill-opacity="1"><g transform="translate(629.988422, 396.510163)"><g><path d="M 20.648438 -20.140625 C 28.84375 -20.140625 30.875 -17.214844 30.875 -10.417969 L 30.875 -9.339844 C 30.875 -5.398438 30.75 -1.90625 31.574219 0 L 36.019531 0 C 35.257812 -1.714844 35.449219 -5.78125 35.449219 -8.894531 L 35.449219 -10.671875 C 35.449219 -18.296875 32.335938 -21.15625 28.207031 -22.171875 C 32.84375 -23.25 36.210938 -26.871094 36.210938 -32.589844 C 36.210938 -39.515625 31.445312 -44.34375 22.554688 -44.34375 L 6.035156 -44.34375 L 6.035156 0 L 10.546875 0 L 10.546875 -20.140625 Z M 10.546875 -40.339844 L 21.601562 -40.339844 C 28.078125 -40.339844 31.445312 -37.417969 31.445312 -32.335938 C 31.445312 -26.871094 28.144531 -24.140625 20.773438 -24.140625 L 10.546875 -24.140625 Z M 10.546875 -40.339844 "/></g></g></g><g fill="#2e394b" fill-opacity="1"><g transform="translate(670.264456, 396.510163)"><g><path d="M 32.84375 -25.285156 L 10.480469 -25.285156 L 10.480469 -40.277344 L 33.988281 -40.277344 L 33.988281 -44.34375 L 6.035156 -44.34375 L 6.035156 0 L 34.371094 0 L 35.003906 -4.003906 L 10.480469 -4.003906 L 10.480469 -21.28125 L 32.84375 -21.28125 Z M 32.84375 -25.285156 "/></g></g></g><g fill="#2e394b" fill-opacity="1"><g transform="translate(707.681769, 396.510163)"><g><path d="M 6.035156 0 L 21.089844 0 C 33.734375 0 41.929688 -9.339844 41.929688 -22.554688 C 41.929688 -35.832031 33.542969 -44.34375 21.21875 -44.34375 L 6.035156 -44.34375 Z M 10.546875 -40.339844 L 20.648438 -40.339844 C 32.273438 -40.339844 37.164062 -31.699219 37.164062 -22.425781 C 37.164062 -11.878906 31.765625 -3.9375 20.648438 -3.9375 L 10.546875 -3.9375 Z M 10.546875 -40.339844 "/></g></g></g><g fill="#2e394b" fill-opacity="1"><g transform="translate(776.967031, 396.510163)"><g><path d="M 35.703125 -12.132812 C 33.734375 -7.179688 30.367188 -3.367188 23.316406 -3.367188 C 12.453125 -3.367188 8.257812 -13.023438 8.257812 -22.171875 C 8.257812 -31.445312 12.578125 -40.976562 23.0625 -40.976562 C 30.429688 -40.976562 33.925781 -37.292969 35.703125 -31.957031 L 40.277344 -31.957031 C 38.878906 -39.324219 33.226562 -44.980469 23.25 -44.980469 C 10.101562 -44.980469 3.429688 -34.050781 3.429688 -22.042969 C 3.429688 -9.53125 10.164062 0.570312 23.125 0.570312 C 32.78125 0.570312 38.179688 -4.890625 40.214844 -12.132812 Z M 35.703125 -12.132812 "/></g></g></g><g fill="#2e394b" fill-opacity="1"><g transform="translate(819.974722, 396.510163)"><g><path d="M 20.648438 -20.140625 C 28.84375 -20.140625 30.875 -17.214844 30.875 -10.417969 L 30.875 -9.339844 C 30.875 -5.398438 30.75 -1.90625 31.574219 0 L 36.019531 0 C 35.257812 -1.714844 35.449219 -5.78125 35.449219 -8.894531 L 35.449219 -10.671875 C 35.449219 -18.296875 32.335938 -21.15625 28.207031 -22.171875 C 32.84375 -23.25 36.210938 -26.871094 36.210938 -32.589844 C 36.210938 -39.515625 31.445312 -44.34375 22.554688 -44.34375 L 6.035156 -44.34375 L 6.035156 0 L 10.546875 0 L 10.546875 -20.140625 Z M 10.546875 -40.339844 L 21.601562 -40.339844 C 28.078125 -40.339844 31.445312 -37.417969 31.445312 -32.335938 C 31.445312 -26.871094 28.144531 -24.140625 20.773438 -24.140625 L 10.546875 -24.140625 Z M 10.546875 -40.339844 "/></g></g></g><g fill="#2e394b" fill-opacity="1"><g transform="translate(860.250755, 396.510163)"><g><path d="M 32.84375 -25.285156 L 10.480469 -25.285156 L 10.480469 -40.277344 L 33.988281 -40.277344 L 33.988281 -44.34375 L 6.035156 -44.34375 L 6.035156 0 L 34.371094 0 L 35.003906 -4.003906 L 10.480469 -4.003906 L 10.480469 -21.28125 L 32.84375 -21.28125 Z M 32.84375 -25.285156 "/></g></g></g><g fill="#2e394b" fill-opacity="1"><g transform="translate(897.668088, 396.510163)"><g><path d="M 6.035156 0 L 21.089844 0 C 33.734375 0 41.929688 -9.339844 41.929688 -22.554688 C 41.929688 -35.832031 33.542969 -44.34375 21.21875 -44.34375 L 6.035156 -44.34375 Z M 10.546875 -40.339844 L 20.648438 -40.339844 C 32.273438 -40.339844 37.164062 -31.699219 37.164062 -22.425781 C 37.164062 -11.878906 31.765625 -3.9375 20.648438 -3.9375 L 10.546875 -3.9375 Z M 10.546875 -40.339844 "/></g></g></g><g fill="#2e394b" fill-opacity="1"><g transform="translate(943.089799, 396.510163)"><g><path d="M 6.035156 -44.34375 L 6.035156 0 L 10.546875 0 L 10.546875 -44.34375 Z M 6.035156 -44.34375 "/></g></g></g><g fill="#2e394b" fill-opacity="1"><g transform="translate(959.733849, 396.510163)"><g><path d="M 15.054688 0 L 19.628906 0 L 19.628906 -40.277344 L 34.304688 -40.277344 L 34.304688 -44.34375 L 0.382812 -44.34375 L 0.382812 -40.277344 L 15.054688 -40.277344 Z M 15.054688 0 "/></g></g></g><g fill="#2e394b" fill-opacity="1"><g transform="translate(1014.993498, 396.510163)"><g><path d="M 23.949219 -44.980469 C 10.671875 -44.980469 3.429688 -34.75 3.429688 -22.171875 C 3.429688 -9.402344 10.738281 0.636719 23.441406 0.636719 C 37.292969 0.636719 43.898438 -10.292969 43.898438 -22.425781 C 43.898438 -35.449219 36.273438 -44.980469 23.949219 -44.980469 Z M 23.761719 -40.976562 C 34.050781 -40.976562 39.132812 -32.335938 39.132812 -22.363281 C 39.132812 -12.324219 34.625 -3.304688 23.695312 -3.304688 C 13.53125 -3.304688 8.257812 -12.386719 8.257812 -22.363281 C 8.257812 -32.082031 12.960938 -40.976562 23.761719 -40.976562 Z M 23.761719 -40.976562 "/></g></g></g><g fill="#2e394b" fill-opacity="1"><g transform="translate(1062.384547, 396.510163)"><g><path d="M 6.035156 0 L 10.609375 0 L 10.609375 -18.804688 L 21.917969 -18.804688 C 30.558594 -18.804688 36.339844 -23.441406 36.339844 -31.699219 C 36.339844 -39.640625 30.621094 -44.34375 22.296875 -44.34375 L 6.035156 -44.34375 Z M 10.609375 -40.339844 L 22.171875 -40.339844 C 27.824219 -40.339844 31.636719 -37.292969 31.636719 -31.574219 C 31.636719 -26.175781 28.589844 -22.742188 21.917969 -22.742188 L 10.609375 -22.742188 Z M 10.609375 -40.339844 "/></g></g></g><g fill="#2e394b" fill-opacity="1"><g transform="translate(1101.771219, 396.510163)"><g><path d="M 32.84375 -25.285156 L 10.480469 -25.285156 L 10.480469 -40.277344 L 33.988281 -40.277344 L 33.988281 -44.34375 L 6.035156 -44.34375 L 6.035156 0 L 34.371094 0 L 35.003906 -4.003906 L 10.480469 -4.003906 L 10.480469 -21.28125 L 32.84375 -21.28125 Z M 32.84375 -25.285156 "/></g></g></g><g fill="#2e394b" fill-opacity="1"><g transform="translate(1139.188552, 396.510163)"><g><path d="M 20.648438 -20.140625 C 28.84375 -20.140625 30.875 -17.214844 30.875 -10.417969 L 30.875 -9.339844 C 30.875 -5.398438 30.75 -1.90625 31.574219 0 L 36.019531 0 C 35.257812 -1.714844 35.449219 -5.78125 35.449219 -8.894531 L 35.449219 -10.671875 C 35.449219 -18.296875 32.335938 -21.15625 28.207031 -22.171875 C 32.84375 -23.25 36.210938 -26.871094 36.210938 -32.589844 C 36.210938 -39.515625 31.445312 -44.34375 22.554688 -44.34375 L 6.035156 -44.34375 L 6.035156 0 L 10.546875 0 L 10.546875 -20.140625 Z M 10.546875 -40.339844 L 21.601562 -40.339844 C 28.078125 -40.339844 31.445312 -37.417969 31.445312 -32.335938 C 31.445312 -26.871094 28.144531 -24.140625 20.773438 -24.140625 L 10.546875 -24.140625 Z M 10.546875 -40.339844 "/></g></g></g><g fill="#2e394b" fill-opacity="1"><g transform="translate(1179.464586, 396.510163)"><g><path d="M 29.476562 -14.359375 L 34.878906 0 L 39.769531 0 L 22.996094 -44.34375 L 17.535156 -44.34375 C 17.535156 -44.34375 1.460938 0 1.460938 0 L 5.972656 0 L 11.246094 -14.359375 Z M 12.578125 -18.421875 C 16.328125 -29.097656 19.058594 -36.785156 20.140625 -40.339844 L 20.203125 -40.339844 C 21.15625 -37.164062 23.570312 -30.875 28.207031 -18.421875 Z M 12.578125 -18.421875 "/></g></g></g><g fill="#2e394b" fill-opacity="1"><g transform="translate(1220.693532, 396.510163)"><g><path d="M 15.054688 0 L 19.628906 0 L 19.628906 -40.277344 L 34.304688 -40.277344 L 34.304688 -44.34375 L 0.382812 -44.34375 L 0.382812 -40.277344 L 15.054688 -40.277344 Z M 15.054688 0 "/></g></g></g><g fill="#2e394b" fill-opacity="1"><g transform="translate(1255.44274, 396.510163)"><g><path d="M 6.035156 -44.34375 L 6.035156 0 L 10.546875 0 L 10.546875 -44.34375 Z M 6.035156 -44.34375 "/></g></g></g><g fill="#2e394b" fill-opacity="1"><g transform="translate(1272.08679, 396.510163)"><g><path d="M 23.949219 -44.980469 C 10.671875 -44.980469 3.429688 -34.75 3.429688 -22.171875 C 3.429688 -9.402344 10.738281 0.636719 23.441406 0.636719 C 37.292969 0.636719 43.898438 -10.292969 43.898438 -22.425781 C 43.898438 -35.449219 36.273438 -44.980469 23.949219 -44.980469 Z M 23.761719 -40.976562 C 34.050781 -40.976562 39.132812 -32.335938 39.132812 -22.363281 C 39.132812 -12.324219 34.625 -3.304688 23.695312 -3.304688 C 13.53125 -3.304688 8.257812 -12.386719 8.257812 -22.363281 C 8.257812 -32.082031 12.960938 -40.976562 23.761719 -40.976562 Z M 23.761719 -40.976562 "/></g></g></g><g fill="#2e394b" fill-opacity="1"><g transform="translate(1319.47784, 396.510163)"><g><path d="M 10.417969 0 L 10.417969 -19.25 C 10.417969 -27.316406 10.480469 -34.242188 10.164062 -39.707031 L 10.226562 -39.707031 C 13.214844 -34.8125 28.777344 -9.972656 35.003906 0 L 40.914062 0 L 40.914062 -44.34375 L 36.464844 -44.34375 L 36.464844 -25.476562 C 36.464844 -18.234375 36.402344 -11.5 36.847656 -5.464844 L 36.785156 -5.464844 C 34.117188 -10.226562 18.996094 -33.796875 12.324219 -44.34375 L 6.035156 -44.34375 L 6.035156 0 Z M 10.417969 0 "/></g></g></g></svg>