<svg version="1.2" xmlns="http://www.w3.org/2000/svg" viewBox="0 0 1918 484" width="1918" height="484"><defs><clipPath clipPathUnits="userSpaceOnUse" id="cp1"><path d="m-121-1375h2160v2160h-2160z"/></clipPath></defs><style>.a{fill:#eaeaea}</style><g clip-path="url(#cp1)"><path class="a" d="m70.5 360.9q-26.3-34.6-26.3-99.5 0-4.6 0.1-9c-10.9 0.1-22.1 0.2-33.4 0.5l-9.9 0.2q-0.4 7.3-0.4 14.9 0 66.1 36.5 104.8c19 20.2 44.1 32.5 75.3 36.9v-19.3q-25.6-8.1-41.9-29.5zm181.8-204.6c-20.7-21.3-48.8-33.5-84.1-36.7q-6.5 5.2-14.3 9.4c1.4 2.3 2.8 4.6 4.1 6.8 27.1 3 47.8 14 61.9 32.9 13 17.4 21 40.6 23.9 69.5 7.5 2.6 14.1 6.1 19.9 10.3 11.9 8.6 19.9 20 23.9 33.6 0.8-7.5 1.2-15.3 1.2-23.3q0-65-36.5-102.5z"/><path fill-rule="evenodd" class="a" d="m211.3 233.5c-8 0.9-14.6 1.5-20 1.5q-6.7 0-11.8-0.4-5.2-0.3-9.2-1.3-1.9-0.5-3.7-1.1c-1.3-0.5-2.4-0.9-3.5-1.5q-3.3-1.5-6.5-4c-4.5-3.4-9-8.3-13.4-14.7q-6.6-9.7-13.6-21.8-7.2-12.2-14.8-26l-3-5.3q-5.2-8.9-10.7-17.6c-0.8-1.3-1.7-2.7-2.5-4-1.7-2.6-3.1-4.7-4.3-6.2-1.1-1.6-2.4-2.7-3.8-3.6 0 0 0 0 0 0q-2.1-1.3-4.9-1.9-2.7-0.5-7-0.6l-11.6-0.3v57.1c0 6.6 0.1 12.5 0.1 17.8 0.1 5.2 0.2 10 0.3 14.3 0 1.3 0.2 2.3 0.6 3.3q1.1 2.3 3.7 3.1l18.2 5.4 0.4 6 0.1 1.1c-1.3 0-2.7-0.1-4-0.1q-10.3-0.2-20.6-0.3c-4.9 0-9.7-0.1-14.6-0.1q-2.8 0-5.6 0.1c-11.5 0-23.2 0.1-35.2 0.4l-0.6-7.1 20.2-6c2.8-0.8 4.2-2.5 4.4-5.1q0.2-6.7 0.3-14.8c0-5.4 0-11.4 0-18v-133.5c0-5.6 0-10.7 0-15.2q-0.1-6.8-0.3-12.2c-0.1-2.8-1.4-4.7-3.9-5.6l-20.4-6.4-0.3-7q21.2 0.6 41.4 0.6c2.7 0 6.1-0.1 10.2-0.3 4.1-0.1 9.1-0.3 15-0.5 6-0.3 11-0.4 14.9-0.5 4-0.1 7.2-0.2 9.5-0.2 25.3 0 44.3 4.8 56.9 14.2 12.6 9.4 19 23.2 19 41.3q0 24.6-13 39.8c-0.8 0.9-1.7 1.8-2.6 2.7-8.6 8.8-21 15.7-37.2 20.7 0.1 0.1 0.2 0.3 0.3 0.4q5.1 7.6 9.7 15c3.3 5.1 6.4 10.2 9.4 15.2q1.4 2.4 2.9 4.7 7.2 12 13.5 22.3c5.1 8.1 9.7 15.3 14 21.6q6.3 9.4 11.7 14.8c1.9 1.9 3.8 3.5 5.6 4.9q2.8 2 5.8 3.4 3.1 1.3 6.5 2.2c2.2 0.7 4.7 1.4 7.5 2l0.3 5.5zm-83.8-132.8q0.6-0.6 1.2-1.1 12-12.3 12-36.8c0-16.7-4.2-28.9-12.6-36.6q-12.7-11.5-39.7-11.5-4.6 0-9.9 0.4c-3.5 0.2-7.3 0.5-11.4 0.9v96.4q3.2 0.1 6.2 0.2 6.6 0.2 12.4 0.2c19.1 0 33-4 41.8-12.1zm152.3 314.1q-0.1 33-24 51-23.9 18-66.4 18c-5.6 0-11.7-0.1-18.3-0.5-6.5-0.3-13.8-0.5-22-0.5q-20 0-40.9 0.5l-0.6-7.1 20.2-6c2.7-0.8 4.2-2.5 4.5-5.1q0.1-6.6 0.2-14.8 0.1-8.1 0.1-18v-133.5q0-8.4-0.1-15.2-0.1-6.7-0.2-12.1-0.2-4.3-4-5.6l-20.4-6.5-0.3-6v-1q2.2 0 4.4 0.1 18.9 0.5 37.1 0.5 5.3-0.2 15-0.5c3.1-0.2 6.3-0.3 10-0.5q17.2-0.6 23.3-0.6 11.7 0 21.6 1.4 3.1 0.4 6 1 11.6 2.3 20.3 6.8v0.1c2.4 1.2 4.6 2.6 6.7 4.1q18.5 13.4 18.5 38.6 0 40.5-43.6 55.1 14.6 2.5 25.4 8.4 7.9 4.3 13.8 10.6c0.6 0.7 1.3 1.4 1.8 2.1 8 9.4 11.9 21.2 11.9 35.2zm-94.6-149.6c-2.9 0-6 0.1-9.4 0.3-3.3 0.1-7 0.4-10.9 0.9v88.7q10.1 0.2 20.6 0.1c7.2 0 13.6-0.7 19.2-2.3 7-1.9 12.8-5 17.4-9.4q12.4-11.8 12.4-34.2 0-20.3-9.6-30.8c-0.9-1.1-2-2.1-3.1-3-8.5-6.9-20.7-10.3-36.6-10.3zm58.5 153.1q0-8.4-1.6-15.4c-1.5-7.3-4.5-13.5-8.6-18.5q-1.9-2.3-4.1-4.2-5.9-5.1-14.9-8.1-11.6-4-28.4-4.3-1.5 0-3.1 0-9.3 0-18.1 0.5v99.9c3.2 1.2 7 2 11.3 2.3 4.4 0.3 8.3 0.5 11.9 0.5 18.2 0 32-4.5 41.4-13.5q14.2-13.5 14.2-39.2zm181.6 15.2c0 16.2-8.6 30.9-26.8 30.9-16.7 0-26.4-13.5-26.4-30.5 0-16.7 9.4-30.4 26.9-30.4 16.3 0 26.3 12.8 26.3 30zm-48.3 0.2c0 13.6 7.5 26.5 21.7 26.5 15.3 0 21.7-12.6 21.7-26.6 0-13.8-7.2-25.9-21.5-25.9-15.2 0-21.9 12.6-21.9 26zm61.4-29.4h21.1c10.8 0 18.3 6 18.3 16.5 0 10.7-7.4 17-18.9 17h-15.9v25.7h-4.6zm4.6 29.2h16.3c9.6 0 13.6-5.1 13.6-12.5 0-7.9-5.3-12.4-13.2-12.4h-16.7zm81.5 0.9h-30.2v24.9h33.1l-0.7 4.2h-36.9v-59.2h36.3v4.2h-31.8v21.7h30.2zm19.2 1.4v27.7h-4.6v-59.2h21.2c11.7 0 17.9 6.2 17.9 15.5 0 7.6-4.5 12.5-11.1 13.9 6.1 1.4 10.1 5.4 10.1 15.5v2.3c0 4.1-0.3 9.7 0.8 12h-4.7c-1.1-2.6-0.8-7.3-0.8-12.4v-1.5c0-9.7-2.9-13.8-14.2-13.8zm0-4.2h14.3c10.4 0 15.2-3.9 15.2-11.7 0-7.3-4.7-11.4-14-11.4h-15.5zm55.6 11.4l-7.5 20.5h-4.7l21.8-59.2h5.4l22.7 59.2h-5l-7.7-20.5zm23.4-4.2c-6.6-17.6-10-26.1-11.2-30h-0.1c-1.4 4.4-5.2 14.9-10.5 30zm45.2 29.3c3.1 0.4 8.8 2.1 8.8 7.8 0 6.4-5.4 7.9-9.4 7.9-3.1 0-5-0.6-6.1-1.1v-4.2c1.6 0.8 4.5 1.2 6.1 1.2 3.3 0 5.1-1.2 5.1-3.5 0-3.6-4.7-4.4-9.7-4.4v-2l4-5.7c-15.6-1.1-23.8-14.2-23.8-30.1 0-16 8.8-30.6 26-30.6 12.8 0 20.3 7.1 22.3 17h-4.6c-2.7-7.7-7.7-12.7-17.9-12.7-14.7 0-20.9 13.4-20.9 26.2 0 12.7 6.1 26 21.2 26 9.7 0 14.6-5 17.5-12.2h4.6c-2.6 8.8-9 15.6-20.2 16.4zm41.5-25.1l-7.6 20.4h-4.6l21.7-59.2h5.4l22.7 59.2h-5l-7.7-20.4zm-1.8-44.9v-1.1c0-5.6 2.7-7.7 6.6-7.7 5 0 10.8 4.8 14.2 4.8 1.9 0 3-0.9 3-4.2v-1.1h3.6v1.6c0 5.6-2.4 7.7-6.5 7.7-5 0-10.3-5-14.4-5-1.6 0-2.7 0.9-2.7 3.4v1.6zm25.2 40.6c-6.6-17.6-9.9-26-11.1-30h-0.1c-1.4 4.5-5.2 15-10.6 30zm73.5-5.3c0 16.2-8.6 30.9-26.9 30.9-16.6 0-26.4-13.5-26.4-30.5 0-16.7 9.4-30.4 27-30.4 16.2 0 26.3 12.8 26.3 30zm-48.4 0.2c0 13.6 7.6 26.5 21.8 26.5 15.3 0 21.7-12.6 21.7-26.6 0-13.8-7.3-25.9-21.6-25.9-15.2 0-21.9 12.6-21.9 26zm118.2 0.7h-30.2v24.9h33.1l-0.7 4.2h-37v-59.2h36.3v4.3h-31.7v21.6h30.2zm15.4 13.2c1.8 7.9 7.1 12.5 16.8 12.5 10.8 0 15-5.4 15-11.8 0-6.7-3-10.8-16-14.1-12.5-3.1-18-7.1-18-15.7 0-7.8 5.7-15 18.4-15 13 0 18.5 7.9 19.3 15.1h-4.8c-1.3-6.3-5.5-10.9-14.8-10.9-8.5 0-13.1 4-13.1 10.6 0 6.5 3.8 9 14.8 11.7 16.6 4.2 19.1 10.8 19.1 17.9 0 8.8-6.4 16.3-20.1 16.3-14.8 0-20.2-8.6-21.3-16.6zm61.3-39.1h-19.9v-4.2h44.5v4.2h-19.9v55h-4.7zm38.1 27.3v27.7h-4.7v-59.2h21.2c11.7 0 17.9 6.2 17.9 15.5 0 7.6-4.5 12.5-11.1 13.9 6.1 1.4 10.2 5.4 10.2 15.5v2.3c0 4.1-0.4 9.7 0.7 12h-4.6c-1.1-2.6-0.9-7.3-0.9-12.4v-1.5c0-9.7-2.9-13.8-14.2-13.8zm0-4.2h14.3c10.4 0 15.2-3.9 15.2-11.7 0-7.2-4.7-11.4-13.9-11.4h-15.6zm52.6-27.3v35.9c0 15.7 8.9 19.7 17.3 19.7 9.9 0 17.2-4.1 17.2-19.7v-35.9h4.7v35.6c0 18.5-9.8 24.3-22.1 24.3-11.7 0-21.8-6.4-21.8-23.5v-36.4zm68.1 4.2h-19.8v-4.2h44.4v4.2h-19.9v55h-4.7zm38.8-4.2v35.8c0 15.8 8.9 19.8 17.3 19.8 9.9 0 17.3-4.1 17.3-19.8v-35.8h4.6v35.6c0 18.5-9.8 24.2-22.1 24.2-11.6 0-21.8-6.3-21.8-23.5v-36.3zm60.4 31.5v27.7h-4.7v-59.2h21.3c11.6 0 17.8 6.2 17.8 15.5 0 7.6-4.5 12.5-11.1 13.9 6.1 1.4 10.2 5.4 10.2 15.5v2.3c0 4.1-0.4 9.7 0.7 12h-4.6c-1.1-2.6-0.9-7.3-0.9-12.4v-1.5c0-9.7-2.8-13.8-14.2-13.8zm0-4.2h14.3c10.4 0 15.3-3.9 15.3-11.7 0-7.3-4.8-11.4-14-11.4h-15.6zm55.7 11.4l-7.6 20.5h-4.6l21.7-59.2h5.4l22.7 59.2h-5l-7.7-20.5zm23.5-4.2c-6.6-17.6-10-26.1-11.2-30h-0.1c-1.4 4.4-5.2 14.9-10.6 30zm24.7-34.5h19.6c16.3 0 27.5 11.3 27.5 29.1 0 17.6-11 30.1-27.5 30.1h-19.6zm4.6 55h14.3c15.6 0 23.3-11 23.3-25.7 0-13-6.9-25.1-23.3-25.1h-14.3zm61-16.2l-7.5 20.4h-4.6l21.7-59.2h5.4l22.7 59.2h-5l-7.7-20.4zm23.4-4.3c-6.6-17.6-10-26-11.1-30h-0.1c-1.5 4.5-5.3 15-10.6 30zm46.7-34.5h19.6c16.2 0 27.5 11.4 27.5 29.1 0 17.7-11 30.1-27.6 30.1h-19.5zm4.5 55h14.3c15.7 0 23.4-11 23.4-25.6 0-13-7-25.1-23.4-25.1h-14.3zm90.4-24.9h-30.2v24.9h33l-0.6 4.2h-37v-59.2h36.3v4.2h-31.7v21.7h30.2zm81.1 13.3c-2.8 9.3-9.7 16.4-22.2 16.4-17 0-26-13.5-26-30.2 0-15.9 8.8-30.5 26.1-30.5 12.7 0 20.3 7.1 22.2 17h-4.5c-2.7-7.7-7.7-12.8-18-12.8-14.7 0-20.9 13.5-20.9 26.3 0 12.7 6.1 26 21.3 26 9.6 0 14.5-5 17.5-12.2zm17.4-11.9v27.7h-4.7v-59.2h21.3c11.6 0 17.8 6.2 17.8 15.5 0 7.6-4.5 12.5-11.1 13.9 6.1 1.4 10.2 5.4 10.2 15.5v2.3c0 4.1-0.4 9.7 0.7 12h-4.6c-1.1-2.6-0.9-7.3-0.9-12.4v-1.5c0-9.7-2.8-13.8-14.2-13.8zm0-4.2h14.3c10.4 0 15.2-3.9 15.2-11.7 0-7.3-4.7-11.4-13.9-11.4h-15.6zm82.7-45.4l-14.2 11.6h-5.2l13-11.6zm0.9 48.2h-30.2v24.8h33.1l-0.7 4.3h-36.9v-59.2h36.3v4.2h-31.8v21.7h30.2zm14.6-30.2h19.6c16.2 0 27.5 11.4 27.5 29.1 0 17.7-11 30.1-27.6 30.1h-19.5zm4.5 55h14.3c15.7 0 23.4-11 23.4-25.6 0-13-7-25.1-23.4-25.1h-14.3zm60.2 4.2h-4.6v-59.2h4.6zm29.2-55h-19.8v-4.2h44.4v4.2h-19.9v55h-4.7zm81.6 25c0 16.1-8.7 30.8-26.9 30.8-16.7 0-26.4-13.4-26.4-30.4 0-16.8 9.4-30.5 27-30.5 16.2 0 26.3 12.8 26.3 30.1zm-48.4 0.1c0 13.6 7.5 26.5 21.7 26.5 15.3 0 21.7-12.5 21.7-26.6 0-13.7-7.2-25.8-21.5-25.8-15.2 0-21.9 12.6-21.9 25.9z"/><path fill-rule="evenodd" class="a" d="m412.6 311.6q0 5.5 0 9.8 0.1 4.4 0.2 8 0.1 2.8 2.3 3.5l10.1 3 0.3 3.9q-10.8-0.2-21.7-0.2-11 0-22.5 0.2l-0.4-3.9 11.2-3.3q2.3-0.7 2.5-2.9 0-3.6 0.1-8.1 0-4.5 0-10v-73.8q0-4.7 0-8.4-0.1-3.7-0.1-6.7-0.1-2.4-2.2-3.1l-11.3-3.6-0.2-3.9q11.7 0.4 22.9 0.4 2.2 0 5.7-0.2 3.4-0.1 8.2-0.3 5-0.2 8.3-0.3 3.3-0.1 5.3-0.1 20.9 0 31.4 7.9 10.5 7.8 10.5 22.8 0 13.6-7.2 22-7.2 8.4-21.9 13 5.8 8.7 10.7 16.9 4.9 8.1 9.1 14.9 4.2 6.8 7.6 12 3.5 5.2 6.5 8.2 1.6 1.5 3.1 2.7 1.6 1.1 3.3 1.8 1.7 0.8 3.5 1.3 1.9 0.6 4.2 1.1l0.2 4q-6.5 0.8-11 0.8-3.7 0-6.5-0.2-2.9-0.1-5.1-0.7-2.2-0.5-4-1.4-1.8-0.9-3.6-2.2-3.7-2.8-7.4-8.2-3.6-5.3-7.6-12-3.9-6.8-8.1-14.4-4.3-7.6-9-14.9-1.4-2.2-2.3-3.4-1-1.3-2.2-2-1.1-0.8-2.6-1-1.6-0.3-4-0.4l-6.3-0.2zm0-38.4q5.5 0.3 10.3 0.3 15.7 0 23.1-6.7 7.3-6.7 7.3-21 0-13.9-7-20.2-7-6.4-22-6.4-2.5 0-5.4 0.2-3 0.2-6.3 0.5zm108.6-60.7h22.1q20.4 0 43.1-0.4l0.5 0.8-5.2 28.1-3.7 0.6-5.6-21h-42.1v50.1h8.3q9.5 0 21.1-0.2 2.4-0.1 3.1-2.4l3.2-12.3 4.9-0.1q-0.2 12.7-0.2 18.8 0 5.9 0.2 18.6l-4.9 0.3-3.3-12.4q-0.7-2.4-2.8-2.5-11.8-0.2-21.4-0.2h-8.2v33.2q0 10.1 0.2 19.9h43.7l11.1-23.1 4.1-0.7-2 31.6-0.6 0.7q-23.6-0.3-43.6-0.3h-21.6q-11 0-22.6 0.3l-0.4-3.9 11.2-3.4q2.3-0.6 2.5-2.8 0.1-3.7 0.1-8.2 0.1-4.5 0.1-9.9v-73.9q0-4.6-0.1-8.4 0-3.7-0.1-6.7-0.1-2.4-2.2-3.1l-11.3-3.6-0.2-3.9q11.8 0.4 22.6 0.4zm145.4-2.3l40.4 111.4q2.3 6.3 4.2 8.5 1.9 2.2 5.3 3.3l8.6 2.6 0.2 3.9q-12-0.3-22.2-0.3-10.3 0-24.5 0.3l-0.3-3.9 8.6-2.6q1.8-0.6 2.6-1.4 0.8-0.8 0.8-2.4 0-1.8-1-4.8-0.9-3-2.6-7.9l-8.6-24.4h-43.9l-9.6 24.3q-1.9 5.1-3 8.1-1.1 3.1-1.1 4.8 0 1.5 0.9 2.3 0.9 0.8 2.6 1.3l8.5 2.5 0.2 4.1q-13-0.3-21.2-0.3-8.2 0-18.3 0.3l-0.4-3.9 9.2-2.9q3.4-1.1 5.1-3.3 1.6-2.3 3.6-7.1l46.5-111.1zm-29 74h37.5l-17.7-50.2zm126.7-46.8v74.1q0 10.1 0.2 19.9h44.3l11.7-24.1 4.1-0.7-2 32.6-0.6 0.7q-23.5-0.3-43.6-0.3h-22.8q-11.1 0-22.6 0.3l-0.4-3.9 11.2-3.4q2.3-0.6 2.5-2.8 0.1-3.7 0.1-8.2 0.1-4.5 0.1-10v-73.8q0-4.6-0.1-8.4 0-3.7-0.1-6.7-0.1-2.4-2.2-3.1l-11.3-3.6-0.2-3.9q11.8 0.4 22.6 0.4 10.9 0 22.6-0.4l0.3 3.9-11.2 3.4q-2.2 0.6-2.4 2.8-0.1 3.2-0.1 9.3-0.1 6.1-0.1 5.9zm247.9 35.7q0 31.5-17.8 50.7-17.9 19.2-50 19.2-30.5 0-47.2-17.7-16.7-17.8-16.7-48 0-31.5 18-49.8 17.9-18.4 49.8-18.4 30.6 0 47.3 17.2 16.6 17.1 16.6 46.8zm-111.8 1.2q0 29.7 12.1 45.5 12 15.8 35.2 15.8 22.8 0 33.7-14.3 10.9-14.4 10.9-45.1 0-28.7-11.6-44.2-11.5-15.5-35.7-15.5-23.4 0-34 14.3-10.6 14.4-10.6 43.5zm161.6 37.3q0 5.5 0 9.9 0.1 4.3 0.1 7.8 0.1 2.1 2.4 2.8l12.6 3.9 0.2 3.9q-13.2-0.3-24.1-0.3-11 0-22.6 0.3l-0.3-3.9 11.2-3.4q2.3-0.7 2.4-2.8 0.1-3.7 0.2-8.2 0-4.5 0-10v-73.8q0-4.6 0-8.4-0.1-3.7-0.2-6.7-0.1-2.4-2.1-3.1l-11.3-3.6-0.2-3.9q11.7 0.4 22.9 0.4 7.5 0 14.6-0.4 7-0.3 12.8-0.3 21.5 0 32.6 8.4 11 8.4 11 25.1 0 19.5-12.7 30.4-12.8 10.8-35.9 10.8-6.4 0-13.6-0.8zm0-33.6q6.3 1.1 12.5 1.1 14.6 0 22.2-7.5 7.6-7.5 7.6-23 0-14.9-7.2-22.1-7.3-7.3-22.8-7.3-6.1 0-12.3 0.7zm95.7-65.6h22.1q20.4 0 43.1-0.3l0.5 0.7-5.3 28.1-3.6 0.7-5.7-21.1h-42v50.1h8.3q9.4 0 21.1-0.2 2.3 0 3.1-2.3l3.2-12.3 4.9-0.2q-0.3 12.7-0.3 18.8 0 6 0.3 18.6l-4.9 0.4-3.3-12.5q-0.7-2.4-2.8-2.4-11.9-0.2-21.4-0.2h-8.2v33.1q0 10.1 0.1 20h43.8l11.1-23.2 4.1-0.7-2 31.7-0.7 0.6q-23.6-0.2-43.5-0.2h-21.7q-11 0-22.6 0.2l-0.3-3.9 11.2-3.4q2.3-0.6 2.4-2.8 0.1-3.6 0.2-8.1 0-4.5 0-10v-73.8q0-4.7 0-8.4-0.1-3.8-0.2-6.8-0.1-2.3-2.1-3.1l-11.3-3.5-0.2-3.9q11.7 0.3 22.6 0.3zm107.8 25.6v73.6q0 10.7 0.2 17.8 0 2.6 2.2 3.1l10.9 3.2 0.1 4.1q-11.3-0.2-18.6-0.2-7.1 0-18.9 0.2l-0.3-3.9 11.2-3.4q2.3-0.7 2.4-2.8 0.2-7.4 0.2-18.1v-73.8q0-9.2-0.2-15.2-0.1-2.3-2.2-3.1l-11.3-3.5-0.1-3.9q11.7 0.3 18.5 0.3 4.1 0 8.3-0.3l76.5 95.5v-70.2q0-8.8-0.2-15.2-0.1-2.1-2.3-2.8l-10.8-3.1-0.2-4.2q11.7 0.3 18.9 0.3 7.3 0 18.7-0.3l0.3 3.9-11.5 3.5q-2.1 0.8-2.1 3.1-0.2 6-0.2 15.2v101.8l-7.7 0.7zm164.4-26q11.7 0.4 23 0.4 4.2-0.2 13.8-0.6 9.5-0.3 12.9-0.3 20 0 30.2 7.4 10.2 7.4 10.2 21.4 0 22.4-24.1 30.5 14.1 2.3 21.7 10.4 7.5 8.1 7.5 20.7 0 18.2-13.2 28.2-13.3 10-36.7 10-4.7 0-10.1-0.3-5.5-0.3-12.2-0.3-11.1 0-22.7 0.3l-0.3-3.9 11.2-3.4q2.3-0.6 2.4-2.8 0.1-3.7 0.2-8.2 0-4.5 0-9.9v-73.9q0-4.6 0-8.4-0.1-3.7-0.2-6.7-0.1-2.4-2.1-3.1l-11.3-3.6zm31.7 56.9q5.6 0.1 11.4 0.1 13.4 0 20.2-6.6 6.9-6.5 6.9-18.9 0-13-7.1-18.7-7-5.7-20.2-5.7-2.4 0-5.2 0.2-2.8 0.1-6 0.5zm0 7.3v55.2q2.7 1 6.3 1.3 3.5 0.3 6.5 0.3 15.1 0 22.9-7.5 7.9-7.4 7.9-21.6 0-14.3-8-21.1-7.9-6.9-25.6-6.9-5.2 0-10 0.3z"/><path fill-rule="evenodd" class="a" d="m1598.7 210.2l40.4 111.3q2.3 6.3 4.1 8.6 1.9 2.2 5.4 3.3l8.5 2.5 0.2 3.9q-11.9-0.2-22.1-0.2-10.4 0-24.5 0.2l-0.4-3.9 8.7-2.5q1.8-0.7 2.6-1.4 0.7-0.8 0.7-2.4 0-1.9-0.9-4.8-1-3-2.7-7.9l-8.6-24.4h-43.9l-9.5 24.3q-1.9 5.1-3 8.1-1.1 3-1.1 4.7 0 1.6 0.8 2.4 0.9 0.7 2.6 1.3l8.5 2.4 0.2 4.1q-12.9-0.2-21.1-0.2-8.2 0-18.3 0.2l-0.5-3.9 9.2-2.8q3.5-1.1 5.1-3.4 1.6-2.2 3.6-7.1l46.6-111.1zm-29.1 74.1h37.5l-17.7-50.2zm117.2-46.2v73.6q0 10.8 0.2 17.9 0 2.5 2.2 3.1l10.9 3.1 0.2 4.1q-11.4-0.2-18.7-0.2-7.1 0-18.9 0.2l-0.3-3.9 11.2-3.3q2.3-0.8 2.4-2.9 0.2-7.3 0.2-18.1v-73.8q0-9.1-0.2-15.2-0.1-2.3-2.2-3l-11.2-3.6-0.2-3.9q11.7 0.3 18.5 0.3 4.1 0 8.3-0.3l76.5 95.5v-70.2q0-8.8-0.2-15.2-0.1-2.1-2.3-2.8l-10.8-3.1-0.2-4.2q11.7 0.3 18.9 0.3 7.3 0 18.7-0.3l0.3 3.9-11.4 3.6q-2.1 0.7-2.2 3-0.2 6.1-0.2 15.2v101.8l-7.7 0.7zm151.6 37l36.7-40.8q4.3-4.9 7-8.2 2.6-3.3 2.6-5.3 0-1.8-2.5-2.5l-7.4-2-0.2-4.2q9 0.4 20.1 0.4 10.7 0 20-0.4l0.4 4-9.2 2.9q-4.2 1.3-7.2 4.2-3.1 2.8-6.5 6.6l-36.5 40.1 41.5 54.6q2.6 3.5 5.2 5.6 2.5 2.1 6.6 3.3l8.3 2.6 0.2 3.9q-7.7-0.3-19.4-0.3-3.1 0-6.3 0.1-3.2 0-6.4 0.1-3.2-6.6-16.8-24.7zm-2.4-37.7v74.2q0 5.5 0.1 10 0 4.4 0.1 8.1 0.1 2.3 2.4 3.1l10.1 3.1 0.2 4q-10.8-0.3-21.6-0.3-11 0-22.6 0.3l-0.4-4 11.2-3.3q2.4-0.8 2.5-2.8 0.1-3.7 0.1-8.2 0.1-4.5 0.1-10v-73.8q0-4.7-0.1-8.4 0-3.7-0.1-6.7-0.1-2.4-2.2-3.1l-11.3-3.6-0.2-3.9q11.8 0.4 22.6 0.4 10.8 0 21.6-0.4l0.4 3.9-10.3 3.2q-2.2 0.6-2.4 2.8-0.1 3.3-0.1 7.1-0.1 3.9-0.1 8.3z"/></g></svg>