<svg xmlns="http://www.w3.org/2000/svg" xmlns:xlink="http://www.w3.org/1999/xlink" width="1920" height="654" preserveAspectRatio="xMidYMid meet" version="1.0" viewBox="0 0 1440 490.5" zoomAndPan="magnify"><defs><clipPath id="bd681fc454"><path d="M 5.40625 231.144531 L 89 231.144531 L 89 348 L 5.40625 348 Z M 5.40625 231.144531" clip-rule="nonzero"/></clipPath><clipPath id="64e129c576"><path d="M 13.636719 231.539062 L 6.347656 231.695312 C 6.085938 235.300781 5.953125 238.960938 5.953125 242.671875 C 5.953125 275.339844 14.96875 301.210938 33.003906 320.289062 C 47.039062 335.265625 65.617188 344.359375 88.746094 347.574219 L 88.746094 333.304688 C 76.097656 329.28125 65.75 321.988281 57.699219 311.429688 C 44.738281 294.390625 38.257812 269.851562 38.257812 237.808594 C 38.257812 235.5625 38.28125 233.367188 38.335938 231.222656 C 30.335938 231.222656 21.949219 231.300781 13.636719 231.539062 Z M 13.636719 231.539062" clip-rule="nonzero"/></clipPath><clipPath id="e9e22cd672"><path d="M 121 130.328125 L 220.511719 130.328125 L 220.511719 250 L 121 250 Z M 121 130.328125" clip-rule="nonzero"/></clipPath><clipPath id="2847e30c6a"><path d="M 121.253906 137.777344 C 122.261719 139.40625 123.269531 141.117188 124.28125 142.746094 C 144.144531 144.917969 159.203125 152.988281 169.601562 166.878906 C 179.144531 179.605469 184.964844 196.523438 187.136719 217.710938 C 192.570312 219.648438 197.460938 222.132812 201.726562 225.238281 C 210.34375 231.523438 216.316406 239.90625 219.1875 249.914062 C 219.808594 244.40625 220.121094 238.742188 220.121094 232.84375 C 220.121094 201.078125 211.195312 176.035156 193.347656 157.722656 C 178.136719 142.125 157.648438 133.199219 131.730469 130.871094 C 128.574219 133.40625 125.082031 135.710938 121.253906 137.777344 Z M 121.253906 137.777344" clip-rule="nonzero"/></clipPath></defs><g clip-path="url(#bd681fc454)"><g clip-path="url(#64e129c576)"><path fill="#eaeaea" fill-opacity="1" fill-rule="nonzero" d="M 5.953125 231.222656 L 5.953125 347.574219 L 88.746094 347.574219 L 88.746094 231.222656 Z M 5.953125 231.222656"/></g></g><g fill="#eaeaea" fill-opacity="1"><g><g><path d="M 55.09375 -37.921875 C 55.09375 -32.984375 55.113281 -28.535156 55.15625 -24.578125 C 55.195312 -20.628906 55.257812 -17.046875 55.34375 -13.828125 C 55.414062 -11.273438 56.484375 -9.671875 58.546875 -9.015625 L 72.265625 -4.9375 L 72.625 0.375 C 62.832031 0.125 53.035156 0 43.234375 0 C 33.265625 0 23.050781 0.125 12.59375 0.375 L 12.109375 -4.9375 L 27.296875 -9.515625 C 29.359375 -10.085938 30.472656 -11.363281 30.640625 -13.34375 C 30.710938 -16.632812 30.769531 -20.316406 30.8125 -24.390625 C 30.851562 -28.472656 30.875 -32.984375 30.875 -37.921875 L 30.875 -138.09375 C 30.875 -142.289062 30.851562 -146.078125 30.8125 -149.453125 C 30.769531 -152.828125 30.710938 -155.875 30.640625 -158.59375 C 30.554688 -160.738281 29.566406 -162.140625 27.671875 -162.796875 L 12.359375 -167.609375 L 12.109375 -172.921875 C 22.722656 -172.597656 33.054688 -172.4375 43.109375 -172.4375 C 45.085938 -172.4375 47.597656 -172.492188 50.640625 -172.609375 C 53.691406 -172.734375 57.398438 -172.878906 61.765625 -173.046875 C 66.210938 -173.210938 69.914062 -173.335938 72.875 -173.421875 C 75.84375 -173.503906 78.191406 -173.546875 79.921875 -173.546875 C 98.691406 -173.546875 112.769531 -170.003906 122.15625 -162.921875 C 131.550781 -155.835938 136.25 -145.503906 136.25 -131.921875 C 136.25 -119.648438 133.035156 -109.703125 126.609375 -102.078125 C 120.179688 -94.460938 110.378906 -88.597656 97.203125 -84.484375 C 102.390625 -76.578125 107.164062 -68.9375 111.53125 -61.5625 C 115.894531 -54.195312 119.953125 -47.445312 123.703125 -41.3125 C 127.453125 -35.175781 130.890625 -29.757812 134.015625 -25.0625 C 137.148438 -20.375 140.070312 -16.671875 142.78125 -13.953125 C 144.1875 -12.554688 145.585938 -11.34375 146.984375 -10.3125 C 148.390625 -9.28125 149.851562 -8.4375 151.375 -7.78125 C 152.894531 -7.125 154.5 -6.546875 156.1875 -6.046875 C 157.875 -5.554688 159.75 -5.0625 161.8125 -4.5625 L 162.1875 0.859375 C 156.25 1.597656 151.265625 1.96875 147.234375 1.96875 C 143.859375 1.96875 140.894531 1.882812 138.34375 1.71875 C 135.789062 1.5625 133.523438 1.234375 131.546875 0.734375 C 129.566406 0.242188 127.773438 -0.390625 126.171875 -1.171875 C 124.566406 -1.953125 122.984375 -2.960938 121.421875 -4.203125 C 118.046875 -6.753906 114.726562 -10.4375 111.46875 -15.25 C 108.21875 -20.070312 104.84375 -25.53125 101.34375 -31.625 C 97.84375 -37.71875 94.195312 -44.203125 90.40625 -51.078125 C 86.625 -57.953125 82.632812 -64.679688 78.4375 -71.265625 C 77.195312 -73.242188 76.144531 -74.804688 75.28125 -75.953125 C 74.414062 -77.109375 73.46875 -78.015625 72.4375 -78.671875 C 71.414062 -79.335938 70.222656 -79.789062 68.859375 -80.03125 C 67.503906 -80.28125 65.753906 -80.445312 63.609375 -80.53125 L 55.09375 -80.78125 Z M 55.09375 -90.046875 C 60.113281 -89.796875 64.765625 -89.671875 69.046875 -89.671875 C 83.296875 -89.671875 93.734375 -92.695312 100.359375 -98.75 C 106.984375 -104.800781 110.296875 -114.289062 110.296875 -127.21875 C 110.296875 -139.738281 107.125 -148.878906 100.78125 -154.640625 C 94.445312 -160.410156 84.53125 -163.296875 71.03125 -163.296875 C 68.71875 -163.296875 66.242188 -163.210938 63.609375 -163.046875 C 60.972656 -162.878906 58.132812 -162.632812 55.09375 -162.3125 Z M 55.09375 -90.046875" transform="translate(0.73322, 214.317964)"/></g></g></g><g fill="#eaeaea" fill-opacity="1"><g><g><path d="M 12.109375 -172.921875 C 22.722656 -172.597656 33.054688 -172.4375 43.109375 -172.4375 C 46.898438 -172.601562 53.035156 -172.847656 61.515625 -173.171875 C 69.992188 -173.503906 75.71875 -173.671875 78.6875 -173.671875 C 96.46875 -173.671875 109.90625 -170.3125 119 -163.59375 C 128.101562 -156.882812 132.65625 -147.234375 132.65625 -134.640625 C 132.65625 -114.378906 121.742188 -100.582031 99.921875 -93.25 C 112.691406 -91.113281 122.71875 -86.378906 130 -79.046875 C 137.289062 -71.722656 140.9375 -62.378906 140.9375 -51.015625 C 140.9375 -34.546875 134.960938 -21.800781 123.015625 -12.78125 C 111.078125 -3.769531 94.53125 0.734375 73.375 0.734375 C 69.175781 0.734375 64.625 0.609375 59.71875 0.359375 C 54.820312 0.117188 49.328125 0 43.234375 0 C 33.265625 0 23.050781 0.125 12.59375 0.375 L 12.109375 -4.9375 L 27.296875 -9.515625 C 29.359375 -10.085938 30.472656 -11.363281 30.640625 -13.34375 C 30.710938 -16.632812 30.769531 -20.316406 30.8125 -24.390625 C 30.851562 -28.472656 30.875 -32.984375 30.875 -37.921875 L 30.875 -138.09375 C 30.875 -142.289062 30.851562 -146.078125 30.8125 -149.453125 C 30.769531 -152.828125 30.710938 -155.875 30.640625 -158.59375 C 30.554688 -160.738281 29.566406 -162.140625 27.671875 -162.796875 L 12.359375 -167.609375 Z M 54.84375 -85.96875 L 54.84375 -11 C 57.3125 -10.09375 60.171875 -9.515625 63.421875 -9.265625 C 66.679688 -9.015625 69.664062 -8.890625 72.375 -8.890625 C 86.050781 -8.890625 96.445312 -12.265625 103.5625 -19.015625 C 110.6875 -25.773438 114.25 -35.578125 114.25 -48.421875 C 114.25 -61.265625 110.644531 -70.796875 103.4375 -77.015625 C 96.238281 -83.234375 84.609375 -86.34375 68.546875 -86.34375 C 63.859375 -86.34375 59.289062 -86.21875 54.84375 -85.96875 Z M 54.84375 -95.84375 C 59.945312 -95.769531 65.132812 -95.734375 70.40625 -95.734375 C 82.59375 -95.734375 91.796875 -98.675781 98.015625 -104.5625 C 104.234375 -110.445312 107.34375 -118.988281 107.34375 -130.1875 C 107.34375 -141.96875 104.148438 -150.429688 97.765625 -155.578125 C 91.378906 -160.722656 82.175781 -163.296875 70.15625 -163.296875 C 68.019531 -163.296875 65.675781 -163.234375 63.125 -163.109375 C 60.570312 -162.984375 57.8125 -162.753906 54.84375 -162.421875 Z M 54.84375 -95.84375" transform="translate(73.394168, 400.918602)"/></g></g></g><g clip-path="url(#e9e22cd672)"><g clip-path="url(#2847e30c6a)"><path fill="#eaeaea" fill-opacity="1" fill-rule="nonzero" d="M 121.253906 130.871094 L 121.253906 249.914062 L 220.121094 249.914062 L 220.121094 130.871094 Z M 121.253906 130.871094"/></g></g><g fill="#eaeaea" fill-opacity="1"><g><g><path d="M 30.15625 -20.765625 C 30.15625 -18.054688 30.164062 -15.617188 30.1875 -13.453125 C 30.21875 -11.296875 30.253906 -9.335938 30.296875 -7.578125 C 30.335938 -6.179688 30.925781 -5.300781 32.0625 -4.9375 L 39.5625 -2.703125 L 39.765625 0.203125 C 34.398438 0.0664062 29.035156 0 23.671875 0 C 18.210938 0 12.617188 0.0664062 6.890625 0.203125 L 6.625 -2.703125 L 14.953125 -5.203125 C 16.078125 -5.523438 16.679688 -6.222656 16.765625 -7.296875 C 16.816406 -9.109375 16.851562 -11.128906 16.875 -13.359375 C 16.894531 -15.585938 16.90625 -18.054688 16.90625 -20.765625 L 16.90625 -75.609375 C 16.90625 -77.910156 16.894531 -79.984375 16.875 -81.828125 C 16.851562 -83.671875 16.816406 -85.335938 16.765625 -86.828125 C 16.722656 -88.003906 16.1875 -88.769531 15.15625 -89.125 L 6.765625 -91.765625 L 6.625 -94.671875 C 12.4375 -94.492188 18.097656 -94.40625 23.609375 -94.40625 C 24.679688 -94.40625 26.050781 -94.4375 27.71875 -94.5 C 29.394531 -94.570312 31.425781 -94.65625 33.8125 -94.75 C 36.25 -94.832031 38.273438 -94.894531 39.890625 -94.9375 C 41.515625 -94.988281 42.800781 -95.015625 43.75 -95.015625 C 54.03125 -95.015625 61.738281 -93.078125 66.875 -89.203125 C 72.019531 -85.328125 74.59375 -79.664062 74.59375 -72.21875 C 74.59375 -65.507812 72.832031 -60.066406 69.3125 -55.890625 C 65.800781 -51.722656 60.4375 -48.507812 53.21875 -46.25 C 56.0625 -41.925781 58.675781 -37.742188 61.0625 -33.703125 C 63.457031 -29.671875 65.679688 -25.972656 67.734375 -22.609375 C 69.785156 -19.253906 71.664062 -16.289062 73.375 -13.71875 C 75.082031 -11.15625 76.679688 -9.128906 78.171875 -7.640625 C 78.941406 -6.878906 79.707031 -6.210938 80.46875 -5.640625 C 81.238281 -5.078125 82.039062 -4.613281 82.875 -4.25 C 83.707031 -3.894531 84.585938 -3.582031 85.515625 -3.3125 C 86.441406 -3.039062 87.46875 -2.769531 88.59375 -2.5 L 88.796875 0.46875 C 85.546875 0.875 82.816406 1.078125 80.609375 1.078125 C 78.765625 1.078125 77.140625 1.03125 75.734375 0.9375 C 74.335938 0.851562 73.097656 0.675781 72.015625 0.40625 C 70.941406 0.132812 69.960938 -0.210938 69.078125 -0.640625 C 68.203125 -1.066406 67.335938 -1.617188 66.484375 -2.296875 C 64.628906 -3.691406 62.8125 -5.707031 61.03125 -8.34375 C 59.25 -10.988281 57.398438 -13.976562 55.484375 -17.3125 C 53.566406 -20.644531 51.570312 -24.191406 49.5 -27.953125 C 47.425781 -31.722656 45.238281 -35.410156 42.9375 -39.015625 C 42.257812 -40.097656 41.6875 -40.953125 41.21875 -41.578125 C 40.75 -42.210938 40.226562 -42.710938 39.65625 -43.078125 C 39.09375 -43.441406 38.441406 -43.691406 37.703125 -43.828125 C 36.960938 -43.960938 36.003906 -44.050781 34.828125 -44.09375 L 30.15625 -44.234375 Z M 30.15625 -49.296875 C 32.90625 -49.160156 35.453125 -49.09375 37.796875 -49.09375 C 45.597656 -49.09375 51.3125 -50.75 54.9375 -54.0625 C 58.570312 -57.375 60.390625 -62.570312 60.390625 -69.65625 C 60.390625 -76.507812 58.648438 -81.515625 55.171875 -84.671875 C 51.703125 -87.828125 46.273438 -89.40625 38.890625 -89.40625 C 37.617188 -89.40625 36.257812 -89.359375 34.8125 -89.265625 C 33.375 -89.171875 31.820312 -89.035156 30.15625 -88.859375 Z M 30.15625 -49.296875" transform="translate(282.772373, 293.883253)"/></g></g></g><g fill="#eaeaea" fill-opacity="1"><g><g><path d="M 23.40625 -94.40625 L 39.828125 -94.40625 C 49.929688 -94.40625 60.59375 -94.492188 71.8125 -94.671875 L 72.21875 -94.140625 L 68.296875 -73.234375 L 65.59375 -72.765625 L 61.40625 -88.390625 L 30.15625 -88.390625 L 30.15625 -51.1875 L 36.3125 -51.1875 C 41 -51.1875 46.226562 -51.234375 52 -51.328125 C 53.175781 -51.367188 53.941406 -51.957031 54.296875 -53.09375 L 56.671875 -62.21875 L 60.328125 -62.359375 C 60.191406 -56.046875 60.125 -51.378906 60.125 -48.359375 C 60.125 -45.421875 60.191406 -40.820312 60.328125 -34.5625 L 56.671875 -34.28125 L 54.234375 -43.546875 C 53.878906 -44.722656 53.179688 -45.332031 52.140625 -45.375 C 46.273438 -45.46875 40.976562 -45.515625 36.25 -45.515625 L 30.15625 -45.515625 L 30.15625 -20.890625 C 30.15625 -15.890625 30.203125 -10.957031 30.296875 -6.09375 L 62.765625 -6.09375 L 71.015625 -23.265625 L 74.046875 -23.8125 L 72.5625 -0.265625 L 72.09375 0.203125 C 60.414062 0.0664062 49.640625 0 39.765625 0 L 23.671875 0 C 18.210938 0 12.617188 0.0664062 6.890625 0.203125 L 6.625 -2.703125 L 14.953125 -5.203125 C 16.078125 -5.523438 16.679688 -6.222656 16.765625 -7.296875 C 16.816406 -9.109375 16.851562 -11.128906 16.875 -13.359375 C 16.894531 -15.585938 16.90625 -18.054688 16.90625 -20.765625 L 16.90625 -75.609375 C 16.90625 -77.910156 16.894531 -79.984375 16.875 -81.828125 C 16.851562 -83.671875 16.816406 -85.335938 16.765625 -86.828125 C 16.722656 -88.003906 16.1875 -88.769531 15.15625 -89.125 L 6.765625 -91.765625 L 6.625 -94.671875 C 12.4375 -94.492188 18.03125 -94.40625 23.40625 -94.40625 Z M 23.40625 -94.40625" transform="translate(370.342033, 293.883253)"/></g></g></g><g fill="#eaeaea" fill-opacity="1"><g><g><path d="M 50.984375 -96.09375 L 81.015625 -13.390625 C 82.140625 -10.273438 83.164062 -8.164062 84.09375 -7.0625 C 85.019531 -5.957031 86.335938 -5.132812 88.046875 -4.59375 L 94.40625 -2.703125 L 94.546875 0.203125 C 88.640625 0.0664062 83.160156 0 78.109375 0 C 72.972656 0 66.910156 0.0664062 59.921875 0.203125 L 59.640625 -2.703125 L 66.078125 -4.59375 C 66.972656 -4.914062 67.613281 -5.265625 68 -5.640625 C 68.382812 -6.023438 68.578125 -6.625 68.578125 -7.4375 C 68.578125 -8.34375 68.335938 -9.523438 67.859375 -10.984375 C 67.390625 -12.453125 66.726562 -14.40625 65.875 -16.84375 L 59.515625 -34.96875 L 26.921875 -34.96875 L 19.8125 -16.90625 C 18.863281 -14.382812 18.117188 -12.378906 17.578125 -10.890625 C 17.035156 -9.398438 16.765625 -8.226562 16.765625 -7.375 C 16.765625 -6.601562 16.976562 -6.023438 17.40625 -5.640625 C 17.84375 -5.265625 18.488281 -4.941406 19.34375 -4.671875 L 25.625 -2.84375 L 25.765625 0.203125 C 19.359375 0.0664062 14.128906 0 10.078125 0 C 6.015625 0 1.484375 0.0664062 -3.515625 0.203125 L -3.859375 -2.703125 L 2.96875 -4.796875 C 4.6875 -5.335938 5.953125 -6.171875 6.765625 -7.296875 C 7.578125 -8.429688 8.476562 -10.191406 9.46875 -12.578125 L 44.03125 -95.078125 Z M 29.421875 -41.125 L 57.28125 -41.125 L 44.09375 -78.375 Z M 29.421875 -41.125" transform="translate(450.898186, 293.883253)"/></g></g></g><g fill="#eaeaea" fill-opacity="1"><g><g><path d="M 30.15625 -75.875 L 30.15625 -20.890625 C 30.15625 -15.890625 30.203125 -10.957031 30.296875 -6.09375 L 63.234375 -6.09375 L 71.890625 -24 L 74.9375 -24.484375 L 73.4375 -0.265625 L 73.03125 0.203125 C 61.351562 0.0664062 50.554688 0 40.640625 0 L 23.671875 0 C 18.210938 0 12.617188 0.0664062 6.890625 0.203125 L 6.625 -2.703125 L 14.953125 -5.203125 C 16.078125 -5.523438 16.679688 -6.222656 16.765625 -7.296875 C 16.816406 -9.109375 16.851562 -11.128906 16.875 -13.359375 C 16.894531 -15.585938 16.90625 -18.054688 16.90625 -20.765625 L 16.90625 -75.609375 C 16.90625 -77.910156 16.894531 -79.984375 16.875 -81.828125 C 16.851562 -83.671875 16.816406 -85.335938 16.765625 -86.828125 C 16.722656 -88.003906 16.1875 -88.769531 15.15625 -89.125 L 6.765625 -91.765625 L 6.625 -94.671875 C 12.4375 -94.492188 18.03125 -94.40625 23.40625 -94.40625 C 28.8125 -94.40625 34.398438 -94.492188 40.171875 -94.671875 L 40.4375 -91.765625 L 32.0625 -89.265625 C 30.976562 -88.992188 30.390625 -88.296875 30.296875 -87.171875 C 30.253906 -85.585938 30.21875 -83.285156 30.1875 -80.265625 C 30.164062 -77.253906 30.15625 -75.789062 30.15625 -75.875 Z M 30.15625 -75.875" transform="translate(545.112122, 293.883253)"/></g></g></g><g fill="#eaeaea" fill-opacity="1"><g><g><path d="M 21.578125 -48.484375 C 21.578125 -33.785156 24.550781 -22.523438 30.5 -14.703125 C 36.445312 -6.878906 45.171875 -2.96875 56.671875 -2.96875 C 67.984375 -2.96875 76.332031 -6.519531 81.71875 -13.625 C 87.113281 -20.726562 89.8125 -31.875 89.8125 -47.0625 C 89.8125 -61.3125 86.945312 -72.269531 81.21875 -79.9375 C 75.488281 -87.601562 66.648438 -91.4375 54.703125 -91.4375 C 43.117188 -91.4375 34.703125 -87.882812 29.453125 -80.78125 C 24.203125 -73.675781 21.578125 -62.910156 21.578125 -48.484375 Z M 104.6875 -49.375 C 104.6875 -33.769531 100.253906 -21.222656 91.390625 -11.734375 C 82.535156 -2.242188 70.148438 2.5 54.234375 2.5 C 39.128906 2.5 27.441406 -1.882812 19.171875 -10.65625 C 10.898438 -19.425781 6.765625 -31.289062 6.765625 -46.25 C 6.765625 -61.851562 11.210938 -74.195312 20.109375 -83.28125 C 29.015625 -92.363281 41.359375 -96.90625 57.140625 -96.90625 C 72.296875 -96.90625 84.007812 -92.65625 92.28125 -84.15625 C 100.550781 -75.664062 104.6875 -64.070312 104.6875 -49.375 Z M 104.6875 -49.375" transform="translate(654.902529, 293.883253)"/></g></g></g><g fill="#eaeaea" fill-opacity="1"><g><g><path d="M 30.15625 -45.71875 C 33.3125 -45.175781 36.425781 -44.90625 39.5 -44.90625 C 46.707031 -44.90625 52.191406 -46.765625 55.953125 -50.484375 C 59.722656 -54.203125 61.609375 -59.894531 61.609375 -67.5625 C 61.609375 -74.90625 59.816406 -80.378906 56.234375 -83.984375 C 52.648438 -87.597656 47.003906 -89.40625 39.296875 -89.40625 C 36.273438 -89.40625 33.226562 -89.222656 30.15625 -88.859375 Z M 30.15625 -20.765625 C 30.15625 -18.054688 30.164062 -15.617188 30.1875 -13.453125 C 30.21875 -11.296875 30.253906 -9.359375 30.296875 -7.640625 C 30.335938 -6.609375 30.925781 -5.910156 32.0625 -5.546875 L 41.390625 -2.703125 L 41.515625 0.203125 C 34.984375 0.0664062 29.035156 0 23.671875 0 C 18.210938 0 12.617188 0.0664062 6.890625 0.203125 L 6.625 -2.703125 L 14.953125 -5.203125 C 16.117188 -5.566406 16.722656 -6.265625 16.765625 -7.296875 C 16.816406 -9.109375 16.851562 -11.128906 16.875 -13.359375 C 16.894531 -15.585938 16.90625 -18.054688 16.90625 -20.765625 L 16.90625 -75.609375 C 16.90625 -77.910156 16.894531 -79.984375 16.875 -81.828125 C 16.851562 -83.671875 16.816406 -85.335938 16.765625 -86.828125 C 16.722656 -88.003906 16.1875 -88.769531 15.15625 -89.125 L 6.765625 -91.765625 L 6.625 -94.671875 C 12.4375 -94.492188 18.097656 -94.40625 23.609375 -94.40625 C 27.296875 -94.40625 30.863281 -94.492188 34.3125 -94.671875 C 37.769531 -94.859375 40.914062 -94.953125 43.75 -94.953125 C 54.34375 -94.953125 62.351562 -92.863281 67.78125 -88.6875 C 73.21875 -84.519531 75.9375 -78.3125 75.9375 -70.0625 C 75.9375 -60.363281 72.800781 -52.832031 66.53125 -47.46875 C 60.269531 -42.101562 51.484375 -39.421875 40.171875 -39.421875 C 37.054688 -39.421875 33.71875 -39.625 30.15625 -40.03125 Z M 30.15625 -20.765625" transform="translate(767.306721, 293.883253)"/></g></g></g><g fill="#eaeaea" fill-opacity="1"><g><g><path d="M 23.40625 -94.40625 L 39.828125 -94.40625 C 49.929688 -94.40625 60.59375 -94.492188 71.8125 -94.671875 L 72.21875 -94.140625 L 68.296875 -73.234375 L 65.59375 -72.765625 L 61.40625 -88.390625 L 30.15625 -88.390625 L 30.15625 -51.1875 L 36.3125 -51.1875 C 41 -51.1875 46.226562 -51.234375 52 -51.328125 C 53.175781 -51.367188 53.941406 -51.957031 54.296875 -53.09375 L 56.671875 -62.21875 L 60.328125 -62.359375 C 60.191406 -56.046875 60.125 -51.378906 60.125 -48.359375 C 60.125 -45.421875 60.191406 -40.820312 60.328125 -34.5625 L 56.671875 -34.28125 L 54.234375 -43.546875 C 53.878906 -44.722656 53.179688 -45.332031 52.140625 -45.375 C 46.273438 -45.46875 40.976562 -45.515625 36.25 -45.515625 L 30.15625 -45.515625 L 30.15625 -20.890625 C 30.15625 -15.890625 30.203125 -10.957031 30.296875 -6.09375 L 62.765625 -6.09375 L 71.015625 -23.265625 L 74.046875 -23.8125 L 72.5625 -0.265625 L 72.09375 0.203125 C 60.414062 0.0664062 49.640625 0 39.765625 0 L 23.671875 0 C 18.210938 0 12.617188 0.0664062 6.890625 0.203125 L 6.625 -2.703125 L 14.953125 -5.203125 C 16.078125 -5.523438 16.679688 -6.222656 16.765625 -7.296875 C 16.816406 -9.109375 16.851562 -11.128906 16.875 -13.359375 C 16.894531 -15.585938 16.90625 -18.054688 16.90625 -20.765625 L 16.90625 -75.609375 C 16.90625 -77.910156 16.894531 -79.984375 16.875 -81.828125 C 16.851562 -83.671875 16.816406 -85.335938 16.765625 -86.828125 C 16.722656 -88.003906 16.1875 -88.769531 15.15625 -89.125 L 6.765625 -91.765625 L 6.625 -94.671875 C 12.4375 -94.492188 18.03125 -94.40625 23.40625 -94.40625 Z M 23.40625 -94.40625" transform="translate(845.53856, 293.883253)"/></g></g></g><g fill="#eaeaea" fill-opacity="1"><g><g><path d="M 23.0625 -75.40625 L 23.0625 -20.765625 C 23.0625 -15.441406 23.109375 -11.019531 23.203125 -7.5 C 23.242188 -6.238281 23.804688 -5.472656 24.890625 -5.203125 L 32.9375 -2.84375 L 33.0625 0.203125 C 27.425781 0.0664062 22.804688 0 19.203125 0 C 15.691406 0 11.023438 0.0664062 5.203125 0.203125 L 4.9375 -2.703125 L 13.25 -5.203125 C 14.425781 -5.566406 15.035156 -6.265625 15.078125 -7.296875 C 15.171875 -10.953125 15.21875 -15.441406 15.21875 -20.765625 L 15.21875 -75.609375 C 15.21875 -80.117188 15.171875 -83.859375 15.078125 -86.828125 C 15.035156 -88.003906 14.492188 -88.769531 13.453125 -89.125 L 5.078125 -91.765625 L 4.9375 -94.671875 C 10.75 -94.492188 15.347656 -94.40625 18.734375 -94.40625 C 20.765625 -94.40625 22.816406 -94.492188 24.890625 -94.671875 L 81.6875 -23.734375 L 81.6875 -75.875 C 81.6875 -80.25 81.644531 -84.015625 81.5625 -87.171875 C 81.507812 -88.210938 80.921875 -88.910156 79.796875 -89.265625 L 71.8125 -91.5625 L 71.6875 -94.671875 C 77.457031 -94.492188 82.125 -94.40625 85.6875 -94.40625 C 89.289062 -94.40625 93.910156 -94.492188 99.546875 -94.671875 L 99.8125 -91.765625 L 91.296875 -89.125 C 90.253906 -88.769531 89.710938 -88.003906 89.671875 -86.828125 C 89.578125 -83.859375 89.53125 -80.117188 89.53125 -75.609375 L 89.53125 0 L 83.859375 0.546875 Z M 23.0625 -75.40625" transform="translate(926.044925, 293.883253)"/></g></g></g><g fill="#eaeaea" fill-opacity="1"><g><g><path d="M 6.625 -94.671875 C 12.4375 -94.492188 18.097656 -94.40625 23.609375 -94.40625 C 25.679688 -94.5 29.035156 -94.632812 33.671875 -94.8125 C 38.316406 -94.988281 41.453125 -95.078125 43.078125 -95.078125 C 52.816406 -95.078125 60.175781 -93.238281 65.15625 -89.5625 C 70.132812 -85.894531 72.625 -80.613281 72.625 -73.71875 C 72.625 -62.625 66.648438 -55.070312 54.703125 -51.0625 C 61.691406 -49.882812 67.179688 -47.289062 71.171875 -43.28125 C 75.160156 -39.269531 77.15625 -34.15625 77.15625 -27.9375 C 77.15625 -18.914062 73.882812 -11.9375 67.34375 -7 C 60.8125 -2.0625 51.753906 0.40625 40.171875 0.40625 C 37.867188 0.40625 35.375 0.335938 32.6875 0.203125 C 30.007812 0.0664062 27.003906 0 23.671875 0 C 18.210938 0 12.617188 0.0664062 6.890625 0.203125 L 6.625 -2.703125 L 14.953125 -5.203125 C 16.078125 -5.523438 16.679688 -6.222656 16.765625 -7.296875 C 16.816406 -9.109375 16.851562 -11.128906 16.875 -13.359375 C 16.894531 -15.585938 16.90625 -18.054688 16.90625 -20.765625 L 16.90625 -75.609375 C 16.90625 -77.910156 16.894531 -79.984375 16.875 -81.828125 C 16.851562 -83.671875 16.816406 -85.335938 16.765625 -86.828125 C 16.722656 -88.003906 16.1875 -88.769531 15.15625 -89.125 L 6.765625 -91.765625 Z M 30.03125 -47.0625 L 30.03125 -6.015625 C 31.382812 -5.523438 32.945312 -5.210938 34.71875 -5.078125 C 36.5 -4.941406 38.132812 -4.875 39.625 -4.875 C 47.113281 -4.875 52.804688 -6.71875 56.703125 -10.40625 C 60.609375 -14.101562 62.5625 -19.472656 62.5625 -26.515625 C 62.5625 -33.546875 60.585938 -38.757812 56.640625 -42.15625 C 52.691406 -45.5625 46.320312 -47.265625 37.53125 -47.265625 C 34.957031 -47.265625 32.457031 -47.195312 30.03125 -47.0625 Z M 30.03125 -52.484375 C 32.820312 -52.429688 35.660156 -52.40625 38.546875 -52.40625 C 45.222656 -52.40625 50.257812 -54.015625 53.65625 -57.234375 C 57.0625 -60.460938 58.765625 -65.144531 58.765625 -71.28125 C 58.765625 -77.726562 57.015625 -82.359375 53.515625 -85.171875 C 50.023438 -87.992188 44.988281 -89.40625 38.40625 -89.40625 C 37.238281 -89.40625 35.957031 -89.367188 34.5625 -89.296875 C 33.164062 -89.234375 31.65625 -89.109375 30.03125 -88.921875 Z M 30.03125 -52.484375" transform="translate(1065.449569, 293.883253)"/></g></g></g><g fill="#eaeaea" fill-opacity="1"><g><g><path d="M 50.984375 -96.09375 L 81.015625 -13.390625 C 82.140625 -10.273438 83.164062 -8.164062 84.09375 -7.0625 C 85.019531 -5.957031 86.335938 -5.132812 88.046875 -4.59375 L 94.40625 -2.703125 L 94.546875 0.203125 C 88.640625 0.0664062 83.160156 0 78.109375 0 C 72.972656 0 66.910156 0.0664062 59.921875 0.203125 L 59.640625 -2.703125 L 66.078125 -4.59375 C 66.972656 -4.914062 67.613281 -5.265625 68 -5.640625 C 68.382812 -6.023438 68.578125 -6.625 68.578125 -7.4375 C 68.578125 -8.34375 68.335938 -9.523438 67.859375 -10.984375 C 67.390625 -12.453125 66.726562 -14.40625 65.875 -16.84375 L 59.515625 -34.96875 L 26.921875 -34.96875 L 19.8125 -16.90625 C 18.863281 -14.382812 18.117188 -12.378906 17.578125 -10.890625 C 17.035156 -9.398438 16.765625 -8.226562 16.765625 -7.375 C 16.765625 -6.601562 16.976562 -6.023438 17.40625 -5.640625 C 17.84375 -5.265625 18.488281 -4.941406 19.34375 -4.671875 L 25.625 -2.84375 L 25.765625 0.203125 C 19.359375 0.0664062 14.128906 0 10.078125 0 C 6.015625 0 1.484375 0.0664062 -3.515625 0.203125 L -3.859375 -2.703125 L 2.96875 -4.796875 C 4.6875 -5.335938 5.953125 -6.171875 6.765625 -7.296875 C 7.578125 -8.429688 8.476562 -10.191406 9.46875 -12.578125 L 44.03125 -95.078125 Z M 29.421875 -41.125 L 57.28125 -41.125 L 44.09375 -78.375 Z M 29.421875 -41.125" transform="translate(1146.704685, 293.883253)"/></g></g></g><g fill="#eaeaea" fill-opacity="1"><g><g><path d="M 23.0625 -75.40625 L 23.0625 -20.765625 C 23.0625 -15.441406 23.109375 -11.019531 23.203125 -7.5 C 23.242188 -6.238281 23.804688 -5.472656 24.890625 -5.203125 L 32.9375 -2.84375 L 33.0625 0.203125 C 27.425781 0.0664062 22.804688 0 19.203125 0 C 15.691406 0 11.023438 0.0664062 5.203125 0.203125 L 4.9375 -2.703125 L 13.25 -5.203125 C 14.425781 -5.566406 15.035156 -6.265625 15.078125 -7.296875 C 15.171875 -10.953125 15.21875 -15.441406 15.21875 -20.765625 L 15.21875 -75.609375 C 15.21875 -80.117188 15.171875 -83.859375 15.078125 -86.828125 C 15.035156 -88.003906 14.492188 -88.769531 13.453125 -89.125 L 5.078125 -91.765625 L 4.9375 -94.671875 C 10.75 -94.492188 15.347656 -94.40625 18.734375 -94.40625 C 20.765625 -94.40625 22.816406 -94.492188 24.890625 -94.671875 L 81.6875 -23.734375 L 81.6875 -75.875 C 81.6875 -80.25 81.644531 -84.015625 81.5625 -87.171875 C 81.507812 -88.210938 80.921875 -88.910156 79.796875 -89.265625 L 71.8125 -91.5625 L 71.6875 -94.671875 C 77.457031 -94.492188 82.125 -94.40625 85.6875 -94.40625 C 89.289062 -94.40625 93.910156 -94.492188 99.546875 -94.671875 L 99.8125 -91.765625 L 91.296875 -89.125 C 90.253906 -88.769531 89.710938 -88.003906 89.671875 -86.828125 C 89.578125 -83.859375 89.53125 -80.117188 89.53125 -75.609375 L 89.53125 0 L 83.859375 0.546875 Z M 23.0625 -75.40625" transform="translate(1240.639135, 293.883253)"/></g></g></g><g fill="#eaeaea" fill-opacity="1"><g><g><path d="M 30.15625 -75.875 L 30.15625 -20.765625 C 30.15625 -18.054688 30.164062 -15.597656 30.1875 -13.390625 C 30.21875 -11.179688 30.253906 -9.175781 30.296875 -7.375 C 30.335938 -6.195312 30.925781 -5.429688 32.0625 -5.078125 L 39.5625 -2.703125 L 39.765625 0.203125 C 34.398438 0.0664062 29.035156 0 23.671875 0 C 18.210938 0 12.617188 0.0664062 6.890625 0.203125 L 6.625 -2.703125 L 14.953125 -5.203125 C 16.117188 -5.566406 16.722656 -6.265625 16.765625 -7.296875 C 16.816406 -9.109375 16.851562 -11.128906 16.875 -13.359375 C 16.894531 -15.585938 16.90625 -18.054688 16.90625 -20.765625 L 16.90625 -75.609375 C 16.90625 -77.910156 16.894531 -79.984375 16.875 -81.828125 C 16.851562 -83.671875 16.816406 -85.335938 16.765625 -86.828125 C 16.722656 -88.003906 16.1875 -88.769531 15.15625 -89.125 L 6.765625 -91.765625 L 6.625 -94.671875 C 12.4375 -94.492188 18.03125 -94.40625 23.40625 -94.40625 C 28.769531 -94.40625 34.109375 -94.492188 39.421875 -94.671875 L 39.765625 -91.765625 L 32.0625 -89.40625 C 30.976562 -89.132812 30.390625 -88.4375 30.296875 -87.3125 C 30.253906 -85.6875 30.21875 -83.925781 30.1875 -82.03125 C 30.164062 -80.132812 30.15625 -78.082031 30.15625 -75.875 Z M 31.921875 -47.875 L 59.171875 -78.25 C 61.296875 -80.632812 63.007812 -82.648438 64.3125 -84.296875 C 65.625 -85.941406 66.28125 -87.257812 66.28125 -88.25 C 66.28125 -89.15625 65.671875 -89.765625 64.453125 -90.078125 L 58.90625 -91.5625 L 58.765625 -94.671875 C 63.234375 -94.492188 68.21875 -94.40625 73.71875 -94.40625 C 78.988281 -94.40625 83.945312 -94.492188 88.59375 -94.671875 L 88.859375 -91.765625 L 82.03125 -89.609375 C 79.957031 -88.929688 78.164062 -87.894531 76.65625 -86.5 C 75.144531 -85.101562 73.53125 -83.457031 71.8125 -81.5625 L 44.765625 -51.796875 L 75.546875 -11.21875 C 76.847656 -9.507812 78.128906 -8.125 79.390625 -7.0625 C 80.648438 -6.007812 82.296875 -5.1875 84.328125 -4.59375 L 90.484375 -2.703125 L 90.625 0.203125 C 86.832031 0.0664062 82.03125 0 76.21875 0 C 74.6875 0 73.128906 0.0078125 71.546875 0.03125 C 69.972656 0.0507812 68.394531 0.0859375 66.8125 0.140625 C 65.238281 -3.109375 61.066406 -9.21875 54.296875 -18.1875 Z M 31.921875 -47.875" transform="translate(1345.367993, 293.883253)"/></g></g></g><g fill="#eaeaea" fill-opacity="1"><g><g><path d="M 2.796875 -12.070312 C 3.683594 -5.71875 8.066406 0.570312 19.1875 0.570312 C 29.667969 0.570312 34.6875 -5.082031 34.6875 -11.878906 C 34.6875 -17.34375 32.652344 -22.296875 20.140625 -25.410156 C 12.132812 -27.382812 9.402344 -29.160156 9.402344 -33.734375 C 9.402344 -38.371094 12.707031 -41.101562 18.613281 -41.101562 C 25.347656 -41.101562 28.207031 -37.738281 29.097656 -33.351562 L 33.734375 -33.351562 C 33.164062 -38.945312 28.96875 -44.980469 18.804688 -44.980469 C 9.148438 -44.980469 4.636719 -39.515625 4.636719 -33.351562 C 4.636719 -27.0625 8.511719 -23.761719 18.359375 -21.347656 C 27.699219 -19.058594 29.921875 -16.199219 29.921875 -11.433594 C 29.921875 -6.925781 27 -3.238281 19.375 -3.238281 C 12.515625 -3.238281 8.703125 -6.417969 7.433594 -12.070312 Z M 2.796875 -12.070312" transform="translate(349.136084, 396.510163)"/></g></g></g><g fill="#eaeaea" fill-opacity="1"><g><g><path d="M 15.054688 0 L 19.628906 0 L 19.628906 -40.277344 L 34.304688 -40.277344 L 34.304688 -44.34375 L 0.382812 -44.34375 L 0.382812 -40.277344 L 15.054688 -40.277344 Z M 15.054688 0" transform="translate(386.998098, 396.510163)"/></g></g></g><g fill="#eaeaea" fill-opacity="1"><g><g><path d="M 20.648438 -20.140625 C 28.84375 -20.140625 30.875 -17.214844 30.875 -10.417969 L 30.875 -9.339844 C 30.875 -5.398438 30.75 -1.90625 31.574219 0 L 36.019531 0 C 35.257812 -1.714844 35.449219 -5.78125 35.449219 -8.894531 L 35.449219 -10.671875 C 35.449219 -18.296875 32.335938 -21.15625 28.207031 -22.171875 C 32.84375 -23.25 36.210938 -26.871094 36.210938 -32.589844 C 36.210938 -39.515625 31.445312 -44.34375 22.554688 -44.34375 L 6.035156 -44.34375 L 6.035156 0 L 10.546875 0 L 10.546875 -20.140625 Z M 10.546875 -40.339844 L 21.601562 -40.339844 C 28.078125 -40.339844 31.445312 -37.417969 31.445312 -32.335938 C 31.445312 -26.871094 28.144531 -24.140625 20.773438 -24.140625 L 10.546875 -24.140625 Z M 10.546875 -40.339844" transform="translate(421.747305, 396.510163)"/></g></g></g><g fill="#eaeaea" fill-opacity="1"><g><g><path d="M 5.71875 -44.34375 L 5.71875 -17.28125 C 5.71875 -4.066406 13.46875 0.570312 22.425781 0.570312 C 31.765625 0.570312 39.386719 -3.683594 39.386719 -17.789062 L 39.386719 -44.34375 L 34.8125 -44.34375 L 34.8125 -17.535156 C 34.8125 -6.480469 29.667969 -3.367188 22.554688 -3.367188 C 16.582031 -3.367188 10.355469 -6.351562 10.355469 -17.535156 L 10.355469 -44.34375 Z M 5.71875 -44.34375" transform="translate(462.023339, 396.510163)"/></g></g></g><g fill="#eaeaea" fill-opacity="1"><g><g><path d="M 35.703125 -12.132812 C 33.734375 -7.179688 30.367188 -3.367188 23.316406 -3.367188 C 12.453125 -3.367188 8.257812 -13.023438 8.257812 -22.171875 C 8.257812 -31.445312 12.578125 -40.976562 23.0625 -40.976562 C 30.429688 -40.976562 33.925781 -37.292969 35.703125 -31.957031 L 40.277344 -31.957031 C 38.878906 -39.324219 33.226562 -44.980469 23.25 -44.980469 C 10.101562 -44.980469 3.429688 -34.050781 3.429688 -22.042969 C 3.429688 -9.53125 10.164062 0.570312 23.125 0.570312 C 32.78125 0.570312 38.179688 -4.890625 40.214844 -12.132812 Z M 35.703125 -12.132812" transform="translate(507.127431, 396.510163)"/></g></g></g><g fill="#eaeaea" fill-opacity="1"><g><g><path d="M 15.054688 0 L 19.628906 0 L 19.628906 -40.277344 L 34.304688 -40.277344 L 34.304688 -44.34375 L 0.382812 -44.34375 L 0.382812 -40.277344 L 15.054688 -40.277344 Z M 15.054688 0" transform="translate(550.135122, 396.510163)"/></g></g></g><g fill="#eaeaea" fill-opacity="1"><g><g><path d="M 5.71875 -44.34375 L 5.71875 -17.28125 C 5.71875 -4.066406 13.46875 0.570312 22.425781 0.570312 C 31.765625 0.570312 39.386719 -3.683594 39.386719 -17.789062 L 39.386719 -44.34375 L 34.8125 -44.34375 L 34.8125 -17.535156 C 34.8125 -6.480469 29.667969 -3.367188 22.554688 -3.367188 C 16.582031 -3.367188 10.355469 -6.351562 10.355469 -17.535156 L 10.355469 -44.34375 Z M 5.71875 -44.34375" transform="translate(584.88433, 396.510163)"/></g></g></g><g fill="#eaeaea" fill-opacity="1"><g><g><path d="M 20.648438 -20.140625 C 28.84375 -20.140625 30.875 -17.214844 30.875 -10.417969 L 30.875 -9.339844 C 30.875 -5.398438 30.75 -1.90625 31.574219 0 L 36.019531 0 C 35.257812 -1.714844 35.449219 -5.78125 35.449219 -8.894531 L 35.449219 -10.671875 C 35.449219 -18.296875 32.335938 -21.15625 28.207031 -22.171875 C 32.84375 -23.25 36.210938 -26.871094 36.210938 -32.589844 C 36.210938 -39.515625 31.445312 -44.34375 22.554688 -44.34375 L 6.035156 -44.34375 L 6.035156 0 L 10.546875 0 L 10.546875 -20.140625 Z M 10.546875 -40.339844 L 21.601562 -40.339844 C 28.078125 -40.339844 31.445312 -37.417969 31.445312 -32.335938 C 31.445312 -26.871094 28.144531 -24.140625 20.773438 -24.140625 L 10.546875 -24.140625 Z M 10.546875 -40.339844" transform="translate(629.988422, 396.510163)"/></g></g></g><g fill="#eaeaea" fill-opacity="1"><g><g><path d="M 32.84375 -25.285156 L 10.480469 -25.285156 L 10.480469 -40.277344 L 33.988281 -40.277344 L 33.988281 -44.34375 L 6.035156 -44.34375 L 6.035156 0 L 34.371094 0 L 35.003906 -4.003906 L 10.480469 -4.003906 L 10.480469 -21.28125 L 32.84375 -21.28125 Z M 32.84375 -25.285156" transform="translate(670.264456, 396.510163)"/></g></g></g><g fill="#eaeaea" fill-opacity="1"><g><g><path d="M 6.035156 0 L 21.089844 0 C 33.734375 0 41.929688 -9.339844 41.929688 -22.554688 C 41.929688 -35.832031 33.542969 -44.34375 21.21875 -44.34375 L 6.035156 -44.34375 Z M 10.546875 -40.339844 L 20.648438 -40.339844 C 32.273438 -40.339844 37.164062 -31.699219 37.164062 -22.425781 C 37.164062 -11.878906 31.765625 -3.9375 20.648438 -3.9375 L 10.546875 -3.9375 Z M 10.546875 -40.339844" transform="translate(707.681769, 396.510163)"/></g></g></g><g fill="#eaeaea" fill-opacity="1"><g><g><path d="M 35.703125 -12.132812 C 33.734375 -7.179688 30.367188 -3.367188 23.316406 -3.367188 C 12.453125 -3.367188 8.257812 -13.023438 8.257812 -22.171875 C 8.257812 -31.445312 12.578125 -40.976562 23.0625 -40.976562 C 30.429688 -40.976562 33.925781 -37.292969 35.703125 -31.957031 L 40.277344 -31.957031 C 38.878906 -39.324219 33.226562 -44.980469 23.25 -44.980469 C 10.101562 -44.980469 3.429688 -34.050781 3.429688 -22.042969 C 3.429688 -9.53125 10.164062 0.570312 23.125 0.570312 C 32.78125 0.570312 38.179688 -4.890625 40.214844 -12.132812 Z M 35.703125 -12.132812" transform="translate(776.967031, 396.510163)"/></g></g></g><g fill="#eaeaea" fill-opacity="1"><g><g><path d="M 20.648438 -20.140625 C 28.84375 -20.140625 30.875 -17.214844 30.875 -10.417969 L 30.875 -9.339844 C 30.875 -5.398438 30.75 -1.90625 31.574219 0 L 36.019531 0 C 35.257812 -1.714844 35.449219 -5.78125 35.449219 -8.894531 L 35.449219 -10.671875 C 35.449219 -18.296875 32.335938 -21.15625 28.207031 -22.171875 C 32.84375 -23.25 36.210938 -26.871094 36.210938 -32.589844 C 36.210938 -39.515625 31.445312 -44.34375 22.554688 -44.34375 L 6.035156 -44.34375 L 6.035156 0 L 10.546875 0 L 10.546875 -20.140625 Z M 10.546875 -40.339844 L 21.601562 -40.339844 C 28.078125 -40.339844 31.445312 -37.417969 31.445312 -32.335938 C 31.445312 -26.871094 28.144531 -24.140625 20.773438 -24.140625 L 10.546875 -24.140625 Z M 10.546875 -40.339844" transform="translate(819.974722, 396.510163)"/></g></g></g><g fill="#eaeaea" fill-opacity="1"><g><g><path d="M 32.84375 -25.285156 L 10.480469 -25.285156 L 10.480469 -40.277344 L 33.988281 -40.277344 L 33.988281 -44.34375 L 6.035156 -44.34375 L 6.035156 0 L 34.371094 0 L 35.003906 -4.003906 L 10.480469 -4.003906 L 10.480469 -21.28125 L 32.84375 -21.28125 Z M 32.84375 -25.285156" transform="translate(860.250755, 396.510163)"/></g></g></g><g fill="#eaeaea" fill-opacity="1"><g><g><path d="M 6.035156 0 L 21.089844 0 C 33.734375 0 41.929688 -9.339844 41.929688 -22.554688 C 41.929688 -35.832031 33.542969 -44.34375 21.21875 -44.34375 L 6.035156 -44.34375 Z M 10.546875 -40.339844 L 20.648438 -40.339844 C 32.273438 -40.339844 37.164062 -31.699219 37.164062 -22.425781 C 37.164062 -11.878906 31.765625 -3.9375 20.648438 -3.9375 L 10.546875 -3.9375 Z M 10.546875 -40.339844" transform="translate(897.668088, 396.510163)"/></g></g></g><g fill="#eaeaea" fill-opacity="1"><g><g><path d="M 6.035156 -44.34375 L 6.035156 0 L 10.546875 0 L 10.546875 -44.34375 Z M 6.035156 -44.34375" transform="translate(943.089799, 396.510163)"/></g></g></g><g fill="#eaeaea" fill-opacity="1"><g><g><path d="M 15.054688 0 L 19.628906 0 L 19.628906 -40.277344 L 34.304688 -40.277344 L 34.304688 -44.34375 L 0.382812 -44.34375 L 0.382812 -40.277344 L 15.054688 -40.277344 Z M 15.054688 0" transform="translate(959.733849, 396.510163)"/></g></g></g><g fill="#eaeaea" fill-opacity="1"><g><g><path d="M 23.949219 -44.980469 C 10.671875 -44.980469 3.429688 -34.75 3.429688 -22.171875 C 3.429688 -9.402344 10.738281 0.636719 23.441406 0.636719 C 37.292969 0.636719 43.898438 -10.292969 43.898438 -22.425781 C 43.898438 -35.449219 36.273438 -44.980469 23.949219 -44.980469 Z M 23.761719 -40.976562 C 34.050781 -40.976562 39.132812 -32.335938 39.132812 -22.363281 C 39.132812 -12.324219 34.625 -3.304688 23.695312 -3.304688 C 13.53125 -3.304688 8.257812 -12.386719 8.257812 -22.363281 C 8.257812 -32.082031 12.960938 -40.976562 23.761719 -40.976562 Z M 23.761719 -40.976562" transform="translate(1014.993498, 396.510163)"/></g></g></g><g fill="#eaeaea" fill-opacity="1"><g><g><path d="M 6.035156 0 L 10.609375 0 L 10.609375 -18.804688 L 21.917969 -18.804688 C 30.558594 -18.804688 36.339844 -23.441406 36.339844 -31.699219 C 36.339844 -39.640625 30.621094 -44.34375 22.296875 -44.34375 L 6.035156 -44.34375 Z M 10.609375 -40.339844 L 22.171875 -40.339844 C 27.824219 -40.339844 31.636719 -37.292969 31.636719 -31.574219 C 31.636719 -26.175781 28.589844 -22.742188 21.917969 -22.742188 L 10.609375 -22.742188 Z M 10.609375 -40.339844" transform="translate(1062.384547, 396.510163)"/></g></g></g><g fill="#eaeaea" fill-opacity="1"><g><g><path d="M 32.84375 -25.285156 L 10.480469 -25.285156 L 10.480469 -40.277344 L 33.988281 -40.277344 L 33.988281 -44.34375 L 6.035156 -44.34375 L 6.035156 0 L 34.371094 0 L 35.003906 -4.003906 L 10.480469 -4.003906 L 10.480469 -21.28125 L 32.84375 -21.28125 Z M 32.84375 -25.285156" transform="translate(1101.771219, 396.510163)"/></g></g></g><g fill="#eaeaea" fill-opacity="1"><g><g><path d="M 20.648438 -20.140625 C 28.84375 -20.140625 30.875 -17.214844 30.875 -10.417969 L 30.875 -9.339844 C 30.875 -5.398438 30.75 -1.90625 31.574219 0 L 36.019531 0 C 35.257812 -1.714844 35.449219 -5.78125 35.449219 -8.894531 L 35.449219 -10.671875 C 35.449219 -18.296875 32.335938 -21.15625 28.207031 -22.171875 C 32.84375 -23.25 36.210938 -26.871094 36.210938 -32.589844 C 36.210938 -39.515625 31.445312 -44.34375 22.554688 -44.34375 L 6.035156 -44.34375 L 6.035156 0 L 10.546875 0 L 10.546875 -20.140625 Z M 10.546875 -40.339844 L 21.601562 -40.339844 C 28.078125 -40.339844 31.445312 -37.417969 31.445312 -32.335938 C 31.445312 -26.871094 28.144531 -24.140625 20.773438 -24.140625 L 10.546875 -24.140625 Z M 10.546875 -40.339844" transform="translate(1139.188552, 396.510163)"/></g></g></g><g fill="#eaeaea" fill-opacity="1"><g><g><path d="M 29.476562 -14.359375 L 34.878906 0 L 39.769531 0 L 22.996094 -44.34375 L 17.535156 -44.34375 C 17.535156 -44.34375 1.460938 0 1.460938 0 L 5.972656 0 L 11.246094 -14.359375 Z M 12.578125 -18.421875 C 16.328125 -29.097656 19.058594 -36.785156 20.140625 -40.339844 L 20.203125 -40.339844 C 21.15625 -37.164062 23.570312 -30.875 28.207031 -18.421875 Z M 12.578125 -18.421875" transform="translate(1179.464586, 396.510163)"/></g></g></g><g fill="#eaeaea" fill-opacity="1"><g><g><path d="M 15.054688 0 L 19.628906 0 L 19.628906 -40.277344 L 34.304688 -40.277344 L 34.304688 -44.34375 L 0.382812 -44.34375 L 0.382812 -40.277344 L 15.054688 -40.277344 Z M 15.054688 0" transform="translate(1220.693532, 396.510163)"/></g></g></g><g fill="#eaeaea" fill-opacity="1"><g><g><path d="M 6.035156 -44.34375 L 6.035156 0 L 10.546875 0 L 10.546875 -44.34375 Z M 6.035156 -44.34375" transform="translate(1255.44274, 396.510163)"/></g></g></g><g fill="#eaeaea" fill-opacity="1"><g><g><path d="M 23.949219 -44.980469 C 10.671875 -44.980469 3.429688 -34.75 3.429688 -22.171875 C 3.429688 -9.402344 10.738281 0.636719 23.441406 0.636719 C 37.292969 0.636719 43.898438 -10.292969 43.898438 -22.425781 C 43.898438 -35.449219 36.273438 -44.980469 23.949219 -44.980469 Z M 23.761719 -40.976562 C 34.050781 -40.976562 39.132812 -32.335938 39.132812 -22.363281 C 39.132812 -12.324219 34.625 -3.304688 23.695312 -3.304688 C 13.53125 -3.304688 8.257812 -12.386719 8.257812 -22.363281 C 8.257812 -32.082031 12.960938 -40.976562 23.761719 -40.976562 Z M 23.761719 -40.976562" transform="translate(1272.08679, 396.510163)"/></g></g></g><g fill="#eaeaea" fill-opacity="1"><g><g><path d="M 10.417969 0 L 10.417969 -19.25 C 10.417969 -27.316406 10.480469 -34.242188 10.164062 -39.707031 L 10.226562 -39.707031 C 13.214844 -34.8125 28.777344 -9.972656 35.003906 0 L 40.914062 0 L 40.914062 -44.34375 L 36.464844 -44.34375 L 36.464844 -25.476562 C 36.464844 -18.234375 36.402344 -11.5 36.847656 -5.464844 L 36.785156 -5.464844 C 34.117188 -10.226562 18.996094 -33.796875 12.324219 -44.34375 L 6.035156 -44.34375 L 6.035156 0 Z M 10.417969 0" transform="translate(1319.47784, 396.510163)"/></g></g></g></svg>